<?xml version="1.0" encoding="utf-8"?>
<!-- Generator: Adobe Illustrator 23.0.3, SVG Export Plug-In . SVG Version: 6.00 Build 0)  -->
<svg version="1.1" id="tabl_x5F_box" xmlns="http://www.w3.org/2000/svg" xmlns:xlink="http://www.w3.org/1999/xlink" x="0px"
	 y="0px" viewBox="0 0 82.9 58.3" style="enable-background:new 0 0 82.9 58.3;" xml:space="preserve">
<style type="text/css">
	.st0{opacity:0.25;fill:none;stroke:#FF6B00;stroke-width:11.3386;stroke-linejoin:round;stroke-miterlimit:10;}
	.st1{fill:none;stroke:#FFFFFF;stroke-width:5.6693;stroke-linejoin:round;stroke-miterlimit:10;}
	.st2{fill:#FFFFFF;}
	.st3{fill:#FF6B00;}
	.st4{opacity:0.25;fill:none;stroke:#A2D45E;stroke-width:11.3386;stroke-linejoin:round;stroke-miterlimit:10;}
	.st5{fill:#A2D45E;}
</style>
<g id="Layer_12">
	<g id="art_copy">
	</g>
	<g id="art">
		<g>
			<path class="st0" d="M26.5,24.4c0,1.1-0.9,2-2,2c-1.1,0-2-0.9-2-2s0.9-2,2-2C25.6,22.4,26.5,23.3,26.5,24.4z M24.5,12.4
				c-1.1,0-2,0.9-2,2s0.9,2,2,2c1.1,0,2-0.9,2-2S25.6,12.4,24.5,12.4z M24.5,5.7c-1.1,0-2,0.9-2,2s0.9,2,2,2c1.1,0,2-0.9,2-2
				S25.6,5.7,24.5,5.7z M23.7,9.5c0,0,0.6,0.7,0.6,1.6c0,0.9-0.6,1.6-0.6,1.6l0.8,0V9.5H23.7z M25.3,12.6c0,0-0.6-0.7-0.6-1.6
				c0-0.9,0.6-1.6,0.6-1.6l-0.8,0v3.1H25.3z M25.6,9c0,0,1.5-0.3,3,0s2.4,1.2,2.4,1.2l0.4-0.8L26,8.2L25.6,9z M31.8,8.6
				c0,0-1.5,0.3-3,0s-2.4-1.2-2.4-1.2l-0.4,0.8l5.3,1.2L31.8,8.6z M23,8.2l-5.3,1.2l0.4,0.8c0,0,0.9-0.9,2.4-1.2s3,0,3,0L23,8.2z
				 M17.6,9.4l5.3-1.2l-0.4-0.8c0,0-0.9,0.9-2.4,1.2s-3,0-3,0L17.6,9.4z M25.7,15.6c0,0,0.7-0.6,1.2-0.4c0.6,0.2,0.8,1.1,0.8,1.1
				l0.2-1L26,14.6L25.7,15.6z M28.3,14.4c0,0-0.7,0.6-1.2,0.4c-0.6-0.2-0.8-1.1-0.8-1.1l-0.2,1l2.1,0.7L28.3,14.4z M22.9,14.6
				l-2.1,0.7l0.2,1c0,0,0.3-0.9,0.8-1.1c0.6-0.2,1.2,0.4,1.2,0.4L22.9,14.6z M20.9,15.4l2.1-0.7l-0.2-1c0,0-0.3,0.9-0.8,1.1
				c-0.6,0.2-1.2-0.4-1.2-0.4L20.9,15.4z M30.5,13.9c-1-0.5-2.2-0.2-2.7,0.8s-0.2,2.2,0.8,2.7s2.2,0.2,2.7-0.8
				C31.8,15.7,31.4,14.5,30.5,13.9z M33.8,8.1c-1-0.5-2.2-0.2-2.7,0.8s-0.2,2.2,0.8,2.7c1,0.5,2.2,0.2,2.7-0.8
				C35.1,9.9,34.8,8.7,33.8,8.1z M31.2,11c0,0,0.2,0.9-0.2,1.7c-0.4,0.7-1.3,1-1.3,1l0.7,0.4l1.5-2.7L31.2,11z M31.1,14.5
				c0,0-0.2-0.9,0.2-1.7c0.4-0.7,1.3-1,1.3-1l-0.7-0.4l-1.5,2.7L31.1,14.5z M33.1,11.6c0,0,1.5,0.5,2.6,1.5c1.1,1,1.5,2.2,1.5,2.2
				l0.7-0.5l-4.1-3.6L33.1,11.6z M38.7,14.3c0,0-1.5-0.5-2.6-1.5s-1.5-2.2-1.5-2.2l-0.7,0.5l4.1,3.6L38.7,14.3z M31.2,9.6L26,8
				l-0.1,0.9c0,0,1.2-0.3,2.6,0.1c1.4,0.5,2.6,1.5,2.6,1.5L31.2,9.6z M25.9,8l5.2,1.6l0.1-0.9c0,0-1.2,0.3-2.6-0.1
				C27.1,8.2,26,7.1,26,7.1L25.9,8z M29.9,17.4c0,0,0.9-0.2,1.3,0.3c0.4,0.5,0.2,1.4,0.2,1.4l0.7-0.8l-1.4-1.7L29.9,17.4z
				 M32.8,17.6c0,0-0.9,0.2-1.3-0.3c-0.4-0.5-0.2-1.4-0.2-1.4l-0.7,0.8l1.4,1.7L32.8,17.6z M28,15.2l-2.2-0.4l-0.3,1
				c0,0,0.7-0.7,1.3-0.6s0.9,1,0.9,1L28,15.2z M25.8,14.8l2.2,0.4l0.3-1c0,0-0.7,0.7-1.3,0.6c-0.6-0.1-0.9-1-0.9-1L25.8,14.8z
				 M18.5,35c1,0.5,2.2,0.2,2.7-0.8s0.2-2.2-0.8-2.7c-1-0.5-2.2-0.2-2.7,0.8C17.2,33.3,17.6,34.5,18.5,35z M15.2,40.9
				c1,0.5,2.2,0.2,2.7-0.8c0.5-1,0.2-2.2-0.8-2.7c-1-0.5-2.2-0.2-2.7,0.8S14.2,40.3,15.2,40.9z M17.8,38c0,0-0.2-0.9,0.2-1.7
				c0.4-0.7,1.3-1,1.3-1l-0.7-0.4l-1.5,2.7L17.8,38z M17.9,34.5c0,0,0.2,0.9-0.2,1.7c-0.4,0.7-1.3,1-1.3,1l0.7,0.4l1.5-2.7
				L17.9,34.5z M15.9,37.4c0,0-1.5-0.5-2.6-1.5c-1.1-1-1.5-2.2-1.5-2.2l-0.7,0.5l4.1,3.6L15.9,37.4z M10.3,34.6c0,0,1.5,0.5,2.6,1.5
				c1.1,1,1.5,2.2,1.5,2.2l0.7-0.5L11,34.2L10.3,34.6z M17.8,39.4L23,41l0.1-0.9c0,0-1.2,0.3-2.6-0.1s-2.6-1.5-2.6-1.5L17.8,39.4z
				 M23,41l-5.2-1.6l-0.1,0.9c0,0,1.2-0.3,2.6,0.1s2.6,1.5,2.6,1.5L23,41z M19.1,31.6c0,0-0.9,0.2-1.3-0.3c-0.4-0.5-0.2-1.4-0.2-1.4
				l-0.7,0.8l1.4,1.7L19.1,31.6z M16.2,31.4c0,0,0.9-0.2,1.3,0.3c0.4,0.5,0.2,1.4,0.2,1.4l0.7-0.8l-1.4-1.7L16.2,31.4z M21,33.8
				l2.2,0.4l0.3-1c0,0-0.7,0.7-1.3,0.6c-0.6-0.1-0.9-1-0.9-1L21,33.8z M23.2,34.2L21,33.8l-0.3,1c0,0,0.7-0.7,1.3-0.6
				c0.6,0.1,0.9,1,0.9,1L23.2,34.2z M13.9,18.5c-0.5,1-0.2,2.2,0.8,2.7s2.2,0.2,2.7-0.8c0.5-1,0.2-2.2-0.8-2.7S14.5,17.6,13.9,18.5z
				 M8.1,15.2c-0.5,1-0.2,2.2,0.8,2.7s2.2,0.2,2.7-0.8c0.5-1,0.2-2.2-0.8-2.7S8.7,14.2,8.1,15.2z M11,17.8c0,0,0.9-0.2,1.7,0.2
				c0.7,0.4,1,1.3,1,1.3l0.4-0.7l-2.7-1.5L11,17.8z M14.5,17.9c0,0-0.9,0.2-1.7-0.2c-0.7-0.4-1-1.3-1-1.3l-0.4,0.7l2.7,1.5
				L14.5,17.9z M11.6,15.9c0,0,0.5-1.5,1.5-2.6s2.2-1.5,2.2-1.5l-0.5-0.7l-3.6,4.1L11.6,15.9z M14.3,10.3c0,0-0.5,1.5-1.5,2.6
				s-2.2,1.5-2.2,1.5l0.5,0.7l3.6-4.1L14.3,10.3z M9.6,17.8L8,23l0.9,0.1c0,0-0.3-1.2,0.1-2.6s1.5-2.6,1.5-2.6L9.6,17.8z M8,23
				l1.6-5.2l-0.9-0.1c0,0,0.3,1.2-0.1,2.6S7.1,23,7.1,23L8,23z M17.4,19.1c0,0-0.2-0.9,0.3-1.3c0.5-0.4,1.4-0.2,1.4-0.2l-0.8-0.7
				l-1.7,1.4L17.4,19.1z M17.6,16.2c0,0,0.2,0.9-0.3,1.3c-0.5,0.4-1.4,0.2-1.4,0.2l0.8,0.7l1.7-1.4L17.6,16.2z M15.2,21l-0.4,2.2
				l1,0.3c0,0-0.7-0.7-0.6-1.3c0.1-0.6,1-0.9,1-0.9L15.2,21z M14.8,23.2l0.4-2.2l-1-0.3c0,0,0.7,0.7,0.6,1.3c-0.1,0.6-1,0.9-1,0.9
				L14.8,23.2z M35,30.5c0.5-1,0.2-2.2-0.8-2.7s-2.2-0.2-2.7,0.8s-0.2,2.2,0.8,2.7C33.3,31.8,34.5,31.4,35,30.5z M40.9,33.8
				c0.5-1,0.2-2.2-0.8-2.7c-1-0.5-2.2-0.2-2.7,0.8c-0.5,1-0.2,2.2,0.8,2.7C39.1,35.1,40.3,34.8,40.9,33.8z M38,31.2
				c0,0-0.9,0.2-1.7-0.2s-1-1.3-1-1.3l-0.4,0.7l2.7,1.5L38,31.2z M34.5,31.1c0,0,0.9-0.2,1.7,0.2c0.7,0.4,1,1.3,1,1.3l0.4-0.7
				l-2.7-1.5L34.5,31.1z M37.4,33.1c0,0-0.5,1.5-1.5,2.6c-1,1.1-2.2,1.5-2.2,1.5l0.5,0.7l3.6-4.1L37.4,33.1z M34.6,38.7
				c0,0,0.5-1.5,1.5-2.6c1-1.1,2.2-1.5,2.2-1.5l-0.5-0.7L34.2,38L34.6,38.7z M39.4,31.2L41,26l-0.9-0.1c0,0,0.3,1.2-0.1,2.6
				c-0.5,1.4-1.5,2.6-1.5,2.6L39.4,31.2z M41,25.9l-1.6,5.2l0.9,0.1c0,0-0.3-1.2,0.1-2.6c0.5-1.4,1.5-2.6,1.5-2.6L41,25.9z
				 M31.6,29.9c0,0,0.2,0.9-0.3,1.3c-0.5,0.4-1.4,0.2-1.4,0.2l0.8,0.7l1.7-1.4L31.6,29.9z M31.4,32.8c0,0-0.2-0.9,0.3-1.3
				c0.5-0.4,1.4-0.2,1.4-0.2l-0.8-0.7l-1.7,1.4L31.4,32.8z M33.8,28l0.4-2.2l-1-0.3c0,0,0.7,0.7,0.6,1.3c-0.1,0.6-1,0.9-1,0.9
				L33.8,28z M34.2,25.8L33.8,28l1,0.3c0,0-0.7-0.7-0.6-1.3c0.1-0.6,1-0.9,1-0.9L34.2,25.8z M35,18.4c-0.6-1-1.8-1.3-2.7-0.7
				c-1,0.6-1.3,1.8-0.7,2.7c0.6,1,1.8,1.3,2.7,0.7C35.2,20.6,35.5,19.4,35,18.4z M40.8,15c-0.6-1-1.8-1.3-2.7-0.7
				c-1,0.6-1.3,1.8-0.7,2.7c0.6,1,1.8,1.3,2.7,0.7C41,17.2,41.3,16,40.8,15z M37.1,16.2c0,0-0.3,0.9-1,1.3c-0.7,0.4-1.7,0.2-1.7,0.2
				l0.4,0.7l2.7-1.5L37.1,16.2z M35.2,19.2c0,0,0.3-0.9,1-1.3s1.7-0.2,1.7-0.2l-0.4-0.7l-2.7,1.5L35.2,19.2z M38.5,17.7
				c0,0,1.1,1.2,1.5,2.6s0.2,2.6,0.2,2.6l0.9-0.1l-1.7-5.2L38.5,17.7z M41.9,22.9c0,0-1.1-1.2-1.5-2.6s-0.2-2.6-0.2-2.6l-0.9,0.1
				l1.7,5.2L41.9,22.9z M37.8,15l-3.7-4l-0.5,0.7c0,0,1.2,0.3,2.2,1.4c1,1.1,1.5,2.6,1.5,2.6L37.8,15z M34.1,11l3.7,4l0.5-0.7
				c0,0-1.2-0.3-2.2-1.4s-1.5-2.6-1.5-2.6L34.1,11z M32.8,21.1c0,0,0.9,0.3,1,0.9c0.1,0.6-0.6,1.3-0.6,1.3l1-0.3l-0.4-2.2L32.8,21.1
				z M35.1,22.7c0,0-0.9-0.3-1-0.9c-0.1-0.6,0.6-1.3,0.6-1.3l-1,0.3l0.4,2.2L35.1,22.7z M32.2,18.2l-1.7-1.4l-0.7,0.7
				c0,0,0.9-0.2,1.4,0.2s0.3,1.3,0.3,1.3L32.2,18.2z M30.5,16.8l1.7,1.4l0.7-0.7c0,0-0.9,0.2-1.4-0.2s-0.3-1.3-0.3-1.3L30.5,16.8z
				 M14,30.6c0.6,1,1.8,1.3,2.7,0.7c1-0.6,1.3-1.8,0.7-2.7c-0.6-1-1.8-1.3-2.7-0.7C13.8,28.4,13.5,29.6,14,30.6z M8.2,34
				c0.6,1,1.8,1.3,2.7,0.7c1-0.6,1.3-1.8,0.7-2.7c-0.6-1-1.8-1.3-2.7-0.7S7.7,33,8.2,34z M11.9,32.8c0,0,0.3-0.9,1-1.3
				s1.7-0.2,1.7-0.2l-0.4-0.7L11.5,32L11.9,32.8z M13.8,29.8c0,0-0.3,0.9-1,1.3s-1.7,0.2-1.7,0.2l0.4,0.7l2.7-1.5L13.8,29.8z
				 M10.5,31.3c0,0-1.1-1.2-1.5-2.6c-0.5-1.4-0.2-2.6-0.2-2.6L8,26.2l1.7,5.2L10.5,31.3z M7.1,26.1c0,0,1.1,1.2,1.5,2.6
				c0.5,1.4,0.2,2.6,0.2,2.6l0.9-0.1L8,26.1L7.1,26.1z M11.2,34l3.7,4l0.5-0.7c0,0-1.2-0.3-2.2-1.4s-1.5-2.6-1.5-2.6L11.2,34z
				 M14.9,38l-3.7-4l-0.5,0.7c0,0,1.2,0.3,2.2,1.4s1.5,2.6,1.5,2.6L14.9,38z M16.2,27.9c0,0-0.9-0.3-1-0.9c-0.1-0.6,0.6-1.3,0.6-1.3
				l-1,0.3l0.4,2.2L16.2,27.9z M13.9,26.3c0,0,0.9,0.3,1,0.9s-0.6,1.3-0.6,1.3l1-0.3L14.9,26L13.9,26.3z M16.8,30.8l1.7,1.4l0.7-0.7
				c0,0-0.9,0.2-1.4-0.2s-0.3-1.3-0.3-1.3L16.8,30.8z M18.5,32.2l-1.7-1.4L16,31.5c0,0,0.9-0.2,1.4,0.2c0.5,0.4,0.3,1.3,0.3,1.3
				L18.5,32.2z M18.4,14c-1,0.6-1.3,1.8-0.7,2.7c0.6,1,1.8,1.3,2.7,0.7c1-0.6,1.3-1.8,0.7-2.7C20.6,13.8,19.4,13.5,18.4,14z M15,8.2
				c-1,0.6-1.3,1.8-0.7,2.7s1.8,1.3,2.7,0.7c1-0.6,1.3-1.8,0.7-2.7C17.2,8,16,7.7,15,8.2z M16.2,11.9c0,0,0.9,0.3,1.3,1
				c0.4,0.7,0.2,1.7,0.2,1.7l0.7-0.4l-1.5-2.7L16.2,11.9z M19.2,13.8c0,0-0.9-0.3-1.3-1s-0.2-1.7-0.2-1.7l-0.7,0.4l1.5,2.7
				L19.2,13.8z M17.7,10.5c0,0,1.2-1.1,2.6-1.5c1.4-0.5,2.6-0.2,2.6-0.2L22.8,8l-5.2,1.7L17.7,10.5z M22.9,7.1c0,0-1.2,1.1-2.6,1.5
				c-1.4,0.5-2.6,0.2-2.6,0.2l0.1,0.9L22.9,8L22.9,7.1z M15,11.2l-4,3.7l0.7,0.5c0,0,0.3-1.2,1.4-2.2s2.6-1.5,2.6-1.5L15,11.2z
				 M11,14.9l4-3.7l-0.7-0.5c0,0-0.3,1.2-1.4,2.2s-2.6,1.5-2.6,1.5L11,14.9z M21.1,16.2c0,0,0.3-0.9,0.9-1c0.6-0.1,1.3,0.6,1.3,0.6
				l-0.3-1l-2.2,0.4L21.1,16.2z M22.7,13.9c0,0-0.3,0.9-0.9,1s-1.3-0.6-1.3-0.6l0.3,1l2.2-0.4L22.7,13.9z M18.2,16.8l-1.4,1.7
				l0.7,0.7c0,0-0.2-0.9,0.2-1.4s1.3-0.3,1.3-0.3L18.2,16.8z M16.8,18.5l1.4-1.7L17.5,16c0,0,0.2,0.9-0.2,1.4s-1.3,0.3-1.3,0.3
				L16.8,18.5z M30.6,35c1-0.6,1.3-1.8,0.7-2.7c-0.6-1-1.8-1.3-2.7-0.7c-1,0.6-1.3,1.8-0.7,2.7C28.4,35.2,29.6,35.5,30.6,35z
				 M34,40.8c1-0.6,1.3-1.8,0.7-2.7c-0.6-1-1.8-1.3-2.7-0.7c-1,0.6-1.3,1.8-0.7,2.7S33,41.3,34,40.8z M32.8,37.1c0,0-0.9-0.3-1.3-1
				c-0.4-0.7-0.2-1.7-0.2-1.7l-0.7,0.4l1.5,2.7L32.8,37.1z M29.8,35.2c0,0,0.9,0.3,1.3,1s0.2,1.7,0.2,1.7l0.7-0.4l-1.5-2.7
				L29.8,35.2z M31.3,38.5c0,0-1.2,1.1-2.6,1.5c-1.4,0.5-2.6,0.2-2.6,0.2l0.1,0.9l5.2-1.7L31.3,38.5z M26.1,41.9
				c0,0,1.2-1.1,2.6-1.5c1.4-0.5,2.6-0.2,2.6-0.2l-0.1-0.9L26.1,41L26.1,41.9z M34,37.8l4-3.7l-0.7-0.5c0,0-0.3,1.2-1.4,2.2
				c-1.1,1-2.6,1.5-2.6,1.5L34,37.8z M38,34.1l-4,3.7l0.7,0.5c0,0,0.3-1.2,1.4-2.2s2.6-1.5,2.6-1.5L38,34.1z M27.9,32.8
				c0,0-0.3,0.9-0.9,1c-0.6,0.1-1.3-0.6-1.3-0.6l0.3,1l2.2-0.4L27.9,32.8z M26.3,35.1c0,0,0.3-0.9,0.9-1c0.6-0.1,1.3,0.6,1.3,0.6
				l-0.3-1L26,34.1L26.3,35.1z M30.8,32.2l1.4-1.7l-0.7-0.7c0,0,0.2,0.9-0.2,1.4s-1.3,0.3-1.3,0.3L30.8,32.2z M32.2,30.5l-1.4,1.7
				l0.7,0.7c0,0-0.2-0.9,0.2-1.4c0.4-0.5,1.3-0.3,1.3-0.3L32.2,30.5z M24.5,36.6c1.1,0,2-0.9,2-2c0-1.1-0.9-2-2-2s-2,0.9-2,2
				C22.5,35.7,23.4,36.6,24.5,36.6z M24.5,43.3c1.1,0,2-0.9,2-2c0-1.1-0.9-2-2-2s-2,0.9-2,2C22.5,42.4,23.4,43.3,24.5,43.3z
				 M25.3,39.5c0,0-0.6-0.7-0.6-1.6s0.6-1.6,0.6-1.6l-0.8,0v3.1H25.3z M23.7,36.4c0,0,0.6,0.7,0.6,1.6s-0.6,1.6-0.6,1.6l0.8,0v-3.1
				H23.7z M23.4,40c0,0-1.5,0.3-3,0S18,38.8,18,38.8l-0.4,0.8l5.3,1.2L23.4,40z M17.2,40.3c0,0,1.5-0.3,3,0s2.4,1.2,2.4,1.2l0.4-0.8
				l-5.3-1.2L17.2,40.3z M26,40.8l5.3-1.2L31,38.8c0,0-0.9,0.9-2.4,1.2s-3,0-3,0L26,40.8z M31.4,39.6l-5.3,1.2l0.4,0.8
				c0,0,0.9-0.9,2.4-1.2s3,0,3,0L31.4,39.6z M23.3,33.3c0,0-0.7,0.6-1.2,0.4c-0.6-0.2-0.8-1.1-0.8-1.1l-0.2,1l2.1,0.7L23.3,33.3z
				 M20.7,34.6c0,0,0.7-0.6,1.2-0.4c0.6,0.2,0.8,1.1,0.8,1.1l0.2-1l-2.1-0.7L20.7,34.6z M26,34.3l2.1-0.7l-0.2-1
				c0,0-0.3,0.9-0.8,1.1c-0.6,0.2-1.2-0.4-1.2-0.4L26,34.3z M28.1,33.6l-2.1,0.7l0.2,1c0,0,0.3-0.9,0.8-1.1c0.6-0.2,1.2,0.4,1.2,0.4
				L28.1,33.6z M12.4,24.5c0,1.1,0.9,2,2,2s2-0.9,2-2s-0.9-2-2-2S12.4,23.4,12.4,24.5z M5.7,24.5c0,1.1,0.9,2,2,2s2-0.9,2-2
				s-0.9-2-2-2S5.7,23.4,5.7,24.5z M9.5,25.3c0,0,0.7-0.6,1.6-0.6c0.9,0,1.6,0.6,1.6,0.6l0-0.8H9.5V25.3z M12.6,23.7
				c0,0-0.7,0.6-1.6,0.6c-0.9,0-1.6-0.6-1.6-0.6l0,0.8h3.1V23.7z M9,23.4c0,0-0.3-1.5,0-3s1.2-2.4,1.2-2.4l-0.8-0.4L8.2,23L9,23.4z
				 M8.6,17.2c0,0,0.3,1.5,0,3s-1.2,2.4-1.2,2.4l0.8,0.4l1.2-5.3L8.6,17.2z M8.2,26l1.2,5.3l0.8-0.4c0,0-0.9-0.9-1.2-2.4s0-3,0-3
				L8.2,26z M9.4,31.4l-1.2-5.3l-0.8,0.4c0,0,0.9,0.9,1.2,2.4s0,3,0,3L9.4,31.4z M15.6,23.3c0,0-0.6-0.7-0.4-1.2
				c0.2-0.6,1.1-0.8,1.1-0.8l-1-0.2L14.6,23L15.6,23.3z M14.4,20.7c0,0,0.6,0.7,0.4,1.2c-0.2,0.6-1.1,0.8-1.1,0.8l1,0.2l0.7-2.1
				L14.4,20.7z M14.6,26l0.7,2.1l1-0.2c0,0-0.9-0.3-1.1-0.8c-0.2-0.6,0.4-1.2,0.4-1.2L14.6,26z M15.4,28.1l-0.7-2.1l-1,0.2
				c0,0,0.9,0.3,1.1,0.8c0.2,0.6-0.4,1.2-0.4,1.2L15.4,28.1z M36.6,24.5c0-1.1-0.9-2-2-2c-1.1,0-2,0.9-2,2c0,1.1,0.9,2,2,2
				C35.7,26.5,36.6,25.6,36.6,24.5z M43.3,24.5c0-1.1-0.9-2-2-2c-1.1,0-2,0.9-2,2c0,1.1,0.9,2,2,2C42.4,26.5,43.3,25.6,43.3,24.5z
				 M39.5,23.7c0,0-0.7,0.6-1.6,0.6s-1.6-0.6-1.6-0.6l0,0.8h3.1V23.7z M36.4,25.3c0,0,0.7-0.6,1.6-0.6s1.6,0.6,1.6,0.6l0-0.8h-3.1
				V25.3z M40,25.6c0,0,0.3,1.5,0,3S38.8,31,38.8,31l0.8,0.4l1.2-5.3L40,25.6z M40.3,31.8c0,0-0.3-1.5,0-3s1.2-2.4,1.2-2.4l-0.8-0.4
				l-1.2,5.3L40.3,31.8z M40.8,23l-1.2-5.3L38.8,18c0,0,0.9,0.9,1.2,2.4s0,3,0,3L40.8,23z M39.6,17.6l1.2,5.3l0.8-0.4
				c0,0-0.9-0.9-1.2-2.4s0-3,0-3L39.6,17.6z M33.3,25.7c0,0,0.6,0.7,0.4,1.2c-0.2,0.6-1.1,0.8-1.1,0.8l1,0.2l0.7-2.1L33.3,25.7z
				 M34.6,28.3c0,0-0.6-0.7-0.4-1.2c0.2-0.6,1.1-0.8,1.1-0.8l-1-0.2L33.6,28L34.6,28.3z M34.3,22.9l-0.7-2.1l-1,0.2
				c0,0,0.9,0.3,1.1,0.8c0.2,0.6-0.4,1.2-0.4,1.2L34.3,22.9z M33.6,20.9l0.7,2.1l1-0.2c0,0-0.9-0.3-1.1-0.8
				c-0.2-0.6,0.4-1.2,0.4-1.2L33.6,20.9z"/>
			<path class="st1" d="M26.5,24.4c0,1.1-0.9,2-2,2c-1.1,0-2-0.9-2-2s0.9-2,2-2C25.6,22.4,26.5,23.3,26.5,24.4z M24.5,12.4
				c-1.1,0-2,0.9-2,2s0.9,2,2,2c1.1,0,2-0.9,2-2S25.6,12.4,24.5,12.4z M24.5,5.7c-1.1,0-2,0.9-2,2s0.9,2,2,2c1.1,0,2-0.9,2-2
				S25.6,5.7,24.5,5.7z M23.7,9.5c0,0,0.6,0.7,0.6,1.6c0,0.9-0.6,1.6-0.6,1.6l0.8,0V9.5H23.7z M25.3,12.6c0,0-0.6-0.7-0.6-1.6
				c0-0.9,0.6-1.6,0.6-1.6l-0.8,0v3.1H25.3z M25.6,9c0,0,1.5-0.3,3,0s2.4,1.2,2.4,1.2l0.4-0.8L26,8.2L25.6,9z M31.8,8.6
				c0,0-1.5,0.3-3,0s-2.4-1.2-2.4-1.2l-0.4,0.8l5.3,1.2L31.8,8.6z M23,8.2l-5.3,1.2l0.4,0.8c0,0,0.9-0.9,2.4-1.2s3,0,3,0L23,8.2z
				 M17.6,9.4l5.3-1.2l-0.4-0.8c0,0-0.9,0.9-2.4,1.2s-3,0-3,0L17.6,9.4z M25.7,15.6c0,0,0.7-0.6,1.2-0.4c0.6,0.2,0.8,1.1,0.8,1.1
				l0.2-1L26,14.6L25.7,15.6z M28.3,14.4c0,0-0.7,0.6-1.2,0.4c-0.6-0.2-0.8-1.1-0.8-1.1l-0.2,1l2.1,0.7L28.3,14.4z M22.9,14.6
				l-2.1,0.7l0.2,1c0,0,0.3-0.9,0.8-1.1c0.6-0.2,1.2,0.4,1.2,0.4L22.9,14.6z M20.9,15.4l2.1-0.7l-0.2-1c0,0-0.3,0.9-0.8,1.1
				c-0.6,0.2-1.2-0.4-1.2-0.4L20.9,15.4z M30.5,13.9c-1-0.5-2.2-0.2-2.7,0.8s-0.2,2.2,0.8,2.7s2.2,0.2,2.7-0.8
				C31.8,15.7,31.4,14.5,30.5,13.9z M33.8,8.1c-1-0.5-2.2-0.2-2.7,0.8s-0.2,2.2,0.8,2.7c1,0.5,2.2,0.2,2.7-0.8
				C35.1,9.9,34.8,8.7,33.8,8.1z M31.2,11c0,0,0.2,0.9-0.2,1.7c-0.4,0.7-1.3,1-1.3,1l0.7,0.4l1.5-2.7L31.2,11z M31.1,14.5
				c0,0-0.2-0.9,0.2-1.7c0.4-0.7,1.3-1,1.3-1l-0.7-0.4l-1.5,2.7L31.1,14.5z M33.1,11.6c0,0,1.5,0.5,2.6,1.5c1.1,1,1.5,2.2,1.5,2.2
				l0.7-0.5l-4.1-3.6L33.1,11.6z M38.7,14.3c0,0-1.5-0.5-2.6-1.5s-1.5-2.2-1.5-2.2l-0.7,0.5l4.1,3.6L38.7,14.3z M31.2,9.6L26,8
				l-0.1,0.9c0,0,1.2-0.3,2.6,0.1c1.4,0.5,2.6,1.5,2.6,1.5L31.2,9.6z M25.9,8l5.2,1.6l0.1-0.9c0,0-1.2,0.3-2.6-0.1
				C27.1,8.2,26,7.1,26,7.1L25.9,8z M29.9,17.4c0,0,0.9-0.2,1.3,0.3c0.4,0.5,0.2,1.4,0.2,1.4l0.7-0.8l-1.4-1.7L29.9,17.4z
				 M32.8,17.6c0,0-0.9,0.2-1.3-0.3c-0.4-0.5-0.2-1.4-0.2-1.4l-0.7,0.8l1.4,1.7L32.8,17.6z M28,15.2l-2.2-0.4l-0.3,1
				c0,0,0.7-0.7,1.3-0.6s0.9,1,0.9,1L28,15.2z M25.8,14.8l2.2,0.4l0.3-1c0,0-0.7,0.7-1.3,0.6c-0.6-0.1-0.9-1-0.9-1L25.8,14.8z
				 M18.5,35c1,0.5,2.2,0.2,2.7-0.8s0.2-2.2-0.8-2.7c-1-0.5-2.2-0.2-2.7,0.8C17.2,33.3,17.6,34.5,18.5,35z M15.2,40.9
				c1,0.5,2.2,0.2,2.7-0.8c0.5-1,0.2-2.2-0.8-2.7c-1-0.5-2.2-0.2-2.7,0.8S14.2,40.3,15.2,40.9z M17.8,38c0,0-0.2-0.9,0.2-1.7
				c0.4-0.7,1.3-1,1.3-1l-0.7-0.4l-1.5,2.7L17.8,38z M17.9,34.5c0,0,0.2,0.9-0.2,1.7c-0.4,0.7-1.3,1-1.3,1l0.7,0.4l1.5-2.7
				L17.9,34.5z M15.9,37.4c0,0-1.5-0.5-2.6-1.5c-1.1-1-1.5-2.2-1.5-2.2l-0.7,0.5l4.1,3.6L15.9,37.4z M10.3,34.6c0,0,1.5,0.5,2.6,1.5
				c1.1,1,1.5,2.2,1.5,2.2l0.7-0.5L11,34.2L10.3,34.6z M17.8,39.4L23,41l0.1-0.9c0,0-1.2,0.3-2.6-0.1s-2.6-1.5-2.6-1.5L17.8,39.4z
				 M23,41l-5.2-1.6l-0.1,0.9c0,0,1.2-0.3,2.6,0.1s2.6,1.5,2.6,1.5L23,41z M19.1,31.6c0,0-0.9,0.2-1.3-0.3c-0.4-0.5-0.2-1.4-0.2-1.4
				l-0.7,0.8l1.4,1.7L19.1,31.6z M16.2,31.4c0,0,0.9-0.2,1.3,0.3c0.4,0.5,0.2,1.4,0.2,1.4l0.7-0.8l-1.4-1.7L16.2,31.4z M21,33.8
				l2.2,0.4l0.3-1c0,0-0.7,0.7-1.3,0.6c-0.6-0.1-0.9-1-0.9-1L21,33.8z M23.2,34.2L21,33.8l-0.3,1c0,0,0.7-0.7,1.3-0.6
				c0.6,0.1,0.9,1,0.9,1L23.2,34.2z M13.9,18.5c-0.5,1-0.2,2.2,0.8,2.7s2.2,0.2,2.7-0.8c0.5-1,0.2-2.2-0.8-2.7S14.5,17.6,13.9,18.5z
				 M8.1,15.2c-0.5,1-0.2,2.2,0.8,2.7s2.2,0.2,2.7-0.8c0.5-1,0.2-2.2-0.8-2.7S8.7,14.2,8.1,15.2z M11,17.8c0,0,0.9-0.2,1.7,0.2
				c0.7,0.4,1,1.3,1,1.3l0.4-0.7l-2.7-1.5L11,17.8z M14.5,17.9c0,0-0.9,0.2-1.7-0.2c-0.7-0.4-1-1.3-1-1.3l-0.4,0.7l2.7,1.5
				L14.5,17.9z M11.6,15.9c0,0,0.5-1.5,1.5-2.6s2.2-1.5,2.2-1.5l-0.5-0.7l-3.6,4.1L11.6,15.9z M14.3,10.3c0,0-0.5,1.5-1.5,2.6
				s-2.2,1.5-2.2,1.5l0.5,0.7l3.6-4.1L14.3,10.3z M9.6,17.8L8,23l0.9,0.1c0,0-0.3-1.2,0.1-2.6s1.5-2.6,1.5-2.6L9.6,17.8z M8,23
				l1.6-5.2l-0.9-0.1c0,0,0.3,1.2-0.1,2.6S7.1,23,7.1,23L8,23z M17.4,19.1c0,0-0.2-0.9,0.3-1.3c0.5-0.4,1.4-0.2,1.4-0.2l-0.8-0.7
				l-1.7,1.4L17.4,19.1z M17.6,16.2c0,0,0.2,0.9-0.3,1.3c-0.5,0.4-1.4,0.2-1.4,0.2l0.8,0.7l1.7-1.4L17.6,16.2z M15.2,21l-0.4,2.2
				l1,0.3c0,0-0.7-0.7-0.6-1.3c0.1-0.6,1-0.9,1-0.9L15.2,21z M14.8,23.2l0.4-2.2l-1-0.3c0,0,0.7,0.7,0.6,1.3c-0.1,0.6-1,0.9-1,0.9
				L14.8,23.2z M35,30.5c0.5-1,0.2-2.2-0.8-2.7s-2.2-0.2-2.7,0.8s-0.2,2.2,0.8,2.7C33.3,31.8,34.5,31.4,35,30.5z M40.9,33.8
				c0.5-1,0.2-2.2-0.8-2.7c-1-0.5-2.2-0.2-2.7,0.8c-0.5,1-0.2,2.2,0.8,2.7C39.1,35.1,40.3,34.8,40.9,33.8z M38,31.2
				c0,0-0.9,0.2-1.7-0.2s-1-1.3-1-1.3l-0.4,0.7l2.7,1.5L38,31.2z M34.5,31.1c0,0,0.9-0.2,1.7,0.2c0.7,0.4,1,1.3,1,1.3l0.4-0.7
				l-2.7-1.5L34.5,31.1z M37.4,33.1c0,0-0.5,1.5-1.5,2.6c-1,1.1-2.2,1.5-2.2,1.5l0.5,0.7l3.6-4.1L37.4,33.1z M34.6,38.7
				c0,0,0.5-1.5,1.5-2.6c1-1.1,2.2-1.5,2.2-1.5l-0.5-0.7L34.2,38L34.6,38.7z M39.4,31.2L41,26l-0.9-0.1c0,0,0.3,1.2-0.1,2.6
				c-0.5,1.4-1.5,2.6-1.5,2.6L39.4,31.2z M41,25.9l-1.6,5.2l0.9,0.1c0,0-0.3-1.2,0.1-2.6c0.5-1.4,1.5-2.6,1.5-2.6L41,25.9z
				 M31.6,29.9c0,0,0.2,0.9-0.3,1.3c-0.5,0.4-1.4,0.2-1.4,0.2l0.8,0.7l1.7-1.4L31.6,29.9z M31.4,32.8c0,0-0.2-0.9,0.3-1.3
				c0.5-0.4,1.4-0.2,1.4-0.2l-0.8-0.7l-1.7,1.4L31.4,32.8z M33.8,28l0.4-2.2l-1-0.3c0,0,0.7,0.7,0.6,1.3c-0.1,0.6-1,0.9-1,0.9
				L33.8,28z M34.2,25.8L33.8,28l1,0.3c0,0-0.7-0.7-0.6-1.3c0.1-0.6,1-0.9,1-0.9L34.2,25.8z M35,18.4c-0.6-1-1.8-1.3-2.7-0.7
				c-1,0.6-1.3,1.8-0.7,2.7c0.6,1,1.8,1.3,2.7,0.7C35.2,20.6,35.5,19.4,35,18.4z M40.8,15c-0.6-1-1.8-1.3-2.7-0.7
				c-1,0.6-1.3,1.8-0.7,2.7c0.6,1,1.8,1.3,2.7,0.7C41,17.2,41.3,16,40.8,15z M37.1,16.2c0,0-0.3,0.9-1,1.3c-0.7,0.4-1.7,0.2-1.7,0.2
				l0.4,0.7l2.7-1.5L37.1,16.2z M35.2,19.2c0,0,0.3-0.9,1-1.3s1.7-0.2,1.7-0.2l-0.4-0.7l-2.7,1.5L35.2,19.2z M38.5,17.7
				c0,0,1.1,1.2,1.5,2.6s0.2,2.6,0.2,2.6l0.9-0.1l-1.7-5.2L38.5,17.7z M41.9,22.9c0,0-1.1-1.2-1.5-2.6s-0.2-2.6-0.2-2.6l-0.9,0.1
				l1.7,5.2L41.9,22.9z M37.8,15l-3.7-4l-0.5,0.7c0,0,1.2,0.3,2.2,1.4c1,1.1,1.5,2.6,1.5,2.6L37.8,15z M34.1,11l3.7,4l0.5-0.7
				c0,0-1.2-0.3-2.2-1.4s-1.5-2.6-1.5-2.6L34.1,11z M32.8,21.1c0,0,0.9,0.3,1,0.9c0.1,0.6-0.6,1.3-0.6,1.3l1-0.3l-0.4-2.2L32.8,21.1
				z M35.1,22.7c0,0-0.9-0.3-1-0.9c-0.1-0.6,0.6-1.3,0.6-1.3l-1,0.3l0.4,2.2L35.1,22.7z M32.2,18.2l-1.7-1.4l-0.7,0.7
				c0,0,0.9-0.2,1.4,0.2s0.3,1.3,0.3,1.3L32.2,18.2z M30.5,16.8l1.7,1.4l0.7-0.7c0,0-0.9,0.2-1.4-0.2s-0.3-1.3-0.3-1.3L30.5,16.8z
				 M14,30.6c0.6,1,1.8,1.3,2.7,0.7c1-0.6,1.3-1.8,0.7-2.7c-0.6-1-1.8-1.3-2.7-0.7C13.8,28.4,13.5,29.6,14,30.6z M8.2,34
				c0.6,1,1.8,1.3,2.7,0.7c1-0.6,1.3-1.8,0.7-2.7c-0.6-1-1.8-1.3-2.7-0.7S7.7,33,8.2,34z M11.9,32.8c0,0,0.3-0.9,1-1.3
				s1.7-0.2,1.7-0.2l-0.4-0.7L11.5,32L11.9,32.8z M13.8,29.8c0,0-0.3,0.9-1,1.3s-1.7,0.2-1.7,0.2l0.4,0.7l2.7-1.5L13.8,29.8z
				 M10.5,31.3c0,0-1.1-1.2-1.5-2.6c-0.5-1.4-0.2-2.6-0.2-2.6L8,26.2l1.7,5.2L10.5,31.3z M7.1,26.1c0,0,1.1,1.2,1.5,2.6
				c0.5,1.4,0.2,2.6,0.2,2.6l0.9-0.1L8,26.1L7.1,26.1z M11.2,34l3.7,4l0.5-0.7c0,0-1.2-0.3-2.2-1.4s-1.5-2.6-1.5-2.6L11.2,34z
				 M14.9,38l-3.7-4l-0.5,0.7c0,0,1.2,0.3,2.2,1.4s1.5,2.6,1.5,2.6L14.9,38z M16.2,27.9c0,0-0.9-0.3-1-0.9c-0.1-0.6,0.6-1.3,0.6-1.3
				l-1,0.3l0.4,2.2L16.2,27.9z M13.9,26.3c0,0,0.9,0.3,1,0.9s-0.6,1.3-0.6,1.3l1-0.3L14.9,26L13.9,26.3z M16.8,30.8l1.7,1.4l0.7-0.7
				c0,0-0.9,0.2-1.4-0.2s-0.3-1.3-0.3-1.3L16.8,30.8z M18.5,32.2l-1.7-1.4L16,31.5c0,0,0.9-0.2,1.4,0.2c0.5,0.4,0.3,1.3,0.3,1.3
				L18.5,32.2z M18.4,14c-1,0.6-1.3,1.8-0.7,2.7c0.6,1,1.8,1.3,2.7,0.7c1-0.6,1.3-1.8,0.7-2.7C20.6,13.8,19.4,13.5,18.4,14z M15,8.2
				c-1,0.6-1.3,1.8-0.7,2.7s1.8,1.3,2.7,0.7c1-0.6,1.3-1.8,0.7-2.7C17.2,8,16,7.7,15,8.2z M16.2,11.9c0,0,0.9,0.3,1.3,1
				c0.4,0.7,0.2,1.7,0.2,1.7l0.7-0.4l-1.5-2.7L16.2,11.9z M19.2,13.8c0,0-0.9-0.3-1.3-1s-0.2-1.7-0.2-1.7l-0.7,0.4l1.5,2.7
				L19.2,13.8z M17.7,10.5c0,0,1.2-1.1,2.6-1.5c1.4-0.5,2.6-0.2,2.6-0.2L22.8,8l-5.2,1.7L17.7,10.5z M22.9,7.1c0,0-1.2,1.1-2.6,1.5
				c-1.4,0.5-2.6,0.2-2.6,0.2l0.1,0.9L22.9,8L22.9,7.1z M15,11.2l-4,3.7l0.7,0.5c0,0,0.3-1.2,1.4-2.2s2.6-1.5,2.6-1.5L15,11.2z
				 M11,14.9l4-3.7l-0.7-0.5c0,0-0.3,1.2-1.4,2.2s-2.6,1.5-2.6,1.5L11,14.9z M21.1,16.2c0,0,0.3-0.9,0.9-1c0.6-0.1,1.3,0.6,1.3,0.6
				l-0.3-1l-2.2,0.4L21.1,16.2z M22.7,13.9c0,0-0.3,0.9-0.9,1s-1.3-0.6-1.3-0.6l0.3,1l2.2-0.4L22.7,13.9z M18.2,16.8l-1.4,1.7
				l0.7,0.7c0,0-0.2-0.9,0.2-1.4s1.3-0.3,1.3-0.3L18.2,16.8z M16.8,18.5l1.4-1.7L17.5,16c0,0,0.2,0.9-0.2,1.4s-1.3,0.3-1.3,0.3
				L16.8,18.5z M30.6,35c1-0.6,1.3-1.8,0.7-2.7c-0.6-1-1.8-1.3-2.7-0.7c-1,0.6-1.3,1.8-0.7,2.7C28.4,35.2,29.6,35.5,30.6,35z
				 M34,40.8c1-0.6,1.3-1.8,0.7-2.7c-0.6-1-1.8-1.3-2.7-0.7c-1,0.6-1.3,1.8-0.7,2.7S33,41.3,34,40.8z M32.8,37.1c0,0-0.9-0.3-1.3-1
				c-0.4-0.7-0.2-1.7-0.2-1.7l-0.7,0.4l1.5,2.7L32.8,37.1z M29.8,35.2c0,0,0.9,0.3,1.3,1s0.2,1.7,0.2,1.7l0.7-0.4l-1.5-2.7
				L29.8,35.2z M31.3,38.5c0,0-1.2,1.1-2.6,1.5c-1.4,0.5-2.6,0.2-2.6,0.2l0.1,0.9l5.2-1.7L31.3,38.5z M26.1,41.9
				c0,0,1.2-1.1,2.6-1.5c1.4-0.5,2.6-0.2,2.6-0.2l-0.1-0.9L26.1,41L26.1,41.9z M34,37.8l4-3.7l-0.7-0.5c0,0-0.3,1.2-1.4,2.2
				c-1.1,1-2.6,1.5-2.6,1.5L34,37.8z M38,34.1l-4,3.7l0.7,0.5c0,0,0.3-1.2,1.4-2.2s2.6-1.5,2.6-1.5L38,34.1z M27.9,32.8
				c0,0-0.3,0.9-0.9,1c-0.6,0.1-1.3-0.6-1.3-0.6l0.3,1l2.2-0.4L27.9,32.8z M26.3,35.1c0,0,0.3-0.9,0.9-1c0.6-0.1,1.3,0.6,1.3,0.6
				l-0.3-1L26,34.1L26.3,35.1z M30.8,32.2l1.4-1.7l-0.7-0.7c0,0,0.2,0.9-0.2,1.4s-1.3,0.3-1.3,0.3L30.8,32.2z M32.2,30.5l-1.4,1.7
				l0.7,0.7c0,0-0.2-0.9,0.2-1.4c0.4-0.5,1.3-0.3,1.3-0.3L32.2,30.5z M24.5,36.6c1.1,0,2-0.9,2-2c0-1.1-0.9-2-2-2s-2,0.9-2,2
				C22.5,35.7,23.4,36.6,24.5,36.6z M24.5,43.3c1.1,0,2-0.9,2-2c0-1.1-0.9-2-2-2s-2,0.9-2,2C22.5,42.4,23.4,43.3,24.5,43.3z
				 M25.3,39.5c0,0-0.6-0.7-0.6-1.6s0.6-1.6,0.6-1.6l-0.8,0v3.1H25.3z M23.7,36.4c0,0,0.6,0.7,0.6,1.6s-0.6,1.6-0.6,1.6l0.8,0v-3.1
				H23.7z M23.4,40c0,0-1.5,0.3-3,0S18,38.8,18,38.8l-0.4,0.8l5.3,1.2L23.4,40z M17.2,40.3c0,0,1.5-0.3,3,0s2.4,1.2,2.4,1.2l0.4-0.8
				l-5.3-1.2L17.2,40.3z M26,40.8l5.3-1.2L31,38.8c0,0-0.9,0.9-2.4,1.2s-3,0-3,0L26,40.8z M31.4,39.6l-5.3,1.2l0.4,0.8
				c0,0,0.9-0.9,2.4-1.2s3,0,3,0L31.4,39.6z M23.3,33.3c0,0-0.7,0.6-1.2,0.4c-0.6-0.2-0.8-1.1-0.8-1.1l-0.2,1l2.1,0.7L23.3,33.3z
				 M20.7,34.6c0,0,0.7-0.6,1.2-0.4c0.6,0.2,0.8,1.1,0.8,1.1l0.2-1l-2.1-0.7L20.7,34.6z M26,34.3l2.1-0.7l-0.2-1
				c0,0-0.3,0.9-0.8,1.1c-0.6,0.2-1.2-0.4-1.2-0.4L26,34.3z M28.1,33.6l-2.1,0.7l0.2,1c0,0,0.3-0.9,0.8-1.1c0.6-0.2,1.2,0.4,1.2,0.4
				L28.1,33.6z M12.4,24.5c0,1.1,0.9,2,2,2s2-0.9,2-2s-0.9-2-2-2S12.4,23.4,12.4,24.5z M5.7,24.5c0,1.1,0.9,2,2,2s2-0.9,2-2
				s-0.9-2-2-2S5.7,23.4,5.7,24.5z M9.5,25.3c0,0,0.7-0.6,1.6-0.6c0.9,0,1.6,0.6,1.6,0.6l0-0.8H9.5V25.3z M12.6,23.7
				c0,0-0.7,0.6-1.6,0.6c-0.9,0-1.6-0.6-1.6-0.6l0,0.8h3.1V23.7z M9,23.4c0,0-0.3-1.5,0-3s1.2-2.4,1.2-2.4l-0.8-0.4L8.2,23L9,23.4z
				 M8.6,17.2c0,0,0.3,1.5,0,3s-1.2,2.4-1.2,2.4l0.8,0.4l1.2-5.3L8.6,17.2z M8.2,26l1.2,5.3l0.8-0.4c0,0-0.9-0.9-1.2-2.4s0-3,0-3
				L8.2,26z M9.4,31.4l-1.2-5.3l-0.8,0.4c0,0,0.9,0.9,1.2,2.4s0,3,0,3L9.4,31.4z M15.6,23.3c0,0-0.6-0.7-0.4-1.2
				c0.2-0.6,1.1-0.8,1.1-0.8l-1-0.2L14.6,23L15.6,23.3z M14.4,20.7c0,0,0.6,0.7,0.4,1.2c-0.2,0.6-1.1,0.8-1.1,0.8l1,0.2l0.7-2.1
				L14.4,20.7z M14.6,26l0.7,2.1l1-0.2c0,0-0.9-0.3-1.1-0.8c-0.2-0.6,0.4-1.2,0.4-1.2L14.6,26z M15.4,28.1l-0.7-2.1l-1,0.2
				c0,0,0.9,0.3,1.1,0.8c0.2,0.6-0.4,1.2-0.4,1.2L15.4,28.1z M36.6,24.5c0-1.1-0.9-2-2-2c-1.1,0-2,0.9-2,2c0,1.1,0.9,2,2,2
				C35.7,26.5,36.6,25.6,36.6,24.5z M43.3,24.5c0-1.1-0.9-2-2-2c-1.1,0-2,0.9-2,2c0,1.1,0.9,2,2,2C42.4,26.5,43.3,25.6,43.3,24.5z
				 M39.5,23.7c0,0-0.7,0.6-1.6,0.6s-1.6-0.6-1.6-0.6l0,0.8h3.1V23.7z M36.4,25.3c0,0,0.7-0.6,1.6-0.6s1.6,0.6,1.6,0.6l0-0.8h-3.1
				V25.3z M40,25.6c0,0,0.3,1.5,0,3S38.8,31,38.8,31l0.8,0.4l1.2-5.3L40,25.6z M40.3,31.8c0,0-0.3-1.5,0-3s1.2-2.4,1.2-2.4l-0.8-0.4
				l-1.2,5.3L40.3,31.8z M40.8,23l-1.2-5.3L38.8,18c0,0,0.9,0.9,1.2,2.4s0,3,0,3L40.8,23z M39.6,17.6l1.2,5.3l0.8-0.4
				c0,0-0.9-0.9-1.2-2.4s0-3,0-3L39.6,17.6z M33.3,25.7c0,0,0.6,0.7,0.4,1.2c-0.2,0.6-1.1,0.8-1.1,0.8l1,0.2l0.7-2.1L33.3,25.7z
				 M34.6,28.3c0,0-0.6-0.7-0.4-1.2c0.2-0.6,1.1-0.8,1.1-0.8l-1-0.2L33.6,28L34.6,28.3z M34.3,22.9l-0.7-2.1l-1,0.2
				c0,0,0.9,0.3,1.1,0.8c0.2,0.6-0.4,1.2-0.4,1.2L34.3,22.9z M33.6,20.9l0.7,2.1l1-0.2c0,0-0.9-0.3-1.1-0.8
				c-0.2-0.6,0.4-1.2,0.4-1.2L33.6,20.9z"/>
			<circle class="st2" cx="24.6" cy="24.3" r="7"/>
			<g>
				<circle class="st3" cx="24.5" cy="24.4" r="2"/>
			</g>
			<g>
				<circle class="st3" cx="24.5" cy="14.4" r="2"/>
			</g>
			<g>
				<circle class="st3" cx="24.5" cy="7.7" r="2"/>
			</g>
			<path class="st3" d="M24.5,9.5v3.1l-0.8,0c0,0,0.6-0.7,0.6-1.6c0-0.9-0.6-1.6-0.6-1.6H24.5z"/>
			<path class="st3" d="M24.5,12.6V9.5l0.8,0c0,0-0.6,0.7-0.6,1.6c0,0.9,0.6,1.6,0.6,1.6H24.5z"/>
			<path class="st3" d="M26,8.2l5.3,1.2L31,10.2c0,0-0.9-0.9-2.4-1.2s-3,0-3,0L26,8.2z"/>
			<path class="st3" d="M31.4,9.4l-5.3-1.2l0.4-0.8c0,0,0.9,0.9,2.4,1.2s3,0,3,0L31.4,9.4z"/>
			<path class="st3" d="M23,8.2l-5.3,1.2l0.4,0.8c0,0,0.9-0.9,2.4-1.2s3,0,3,0L23,8.2z"/>
			<path class="st3" d="M17.6,9.4l5.3-1.2l-0.4-0.8c0,0-0.9,0.9-2.4,1.2s-3,0-3,0L17.6,9.4z"/>
			<g>
				<path class="st3" d="M26,14.6l2.1,0.7l-0.2,1c0,0-0.3-0.9-0.8-1.1c-0.6-0.2-1.2,0.4-1.2,0.4L26,14.6z"/>
			</g>
			<g>
				<path class="st3" d="M28,15.4L26,14.7l0.2-1c0,0,0.3,0.9,0.8,1.1c0.6,0.2,1.2-0.4,1.2-0.4L28,15.4z"/>
			</g>
			<g>
				<path class="st3" d="M22.9,14.6l-2.1,0.7l0.2,1c0,0,0.3-0.9,0.8-1.1c0.6-0.2,1.2,0.4,1.2,0.4L22.9,14.6z"/>
			</g>
			<g>
				<path class="st3" d="M20.9,15.4l2.1-0.7l-0.2-1c0,0-0.3,0.9-0.8,1.1c-0.6,0.2-1.2-0.4-1.2-0.4L20.9,15.4z"/>
			</g>
			<g>
				<circle class="st3" cx="29.5" cy="15.7" r="2"/>
			</g>
			<g>
				<circle class="st3" cx="32.8" cy="9.9" r="2"/>
			</g>
			<path class="st3" d="M31.9,11.4l-1.5,2.7l-0.7-0.4c0,0,0.9-0.3,1.3-1c0.4-0.7,0.2-1.7,0.2-1.7L31.9,11.4z"/>
			<path class="st3" d="M30.3,14.1l1.5-2.7l0.7,0.4c0,0-0.9,0.3-1.3,1c-0.4,0.7-0.2,1.7-0.2,1.7L30.3,14.1z"/>
			<path class="st3" d="M33.9,11.1l4.1,3.6l-0.7,0.5c0,0-0.3-1.2-1.5-2.2c-1.1-1-2.6-1.5-2.6-1.5L33.9,11.1z"/>
			<path class="st3" d="M38,14.8l-4.1-3.6l0.7-0.5c0,0,0.3,1.2,1.5,2.2s2.6,1.5,2.6,1.5L38,14.8z"/>
			<path class="st3" d="M31.2,9.6L26,8l-0.1,0.9c0,0,1.2-0.3,2.6,0.1c1.4,0.5,2.6,1.5,2.6,1.5L31.2,9.6z"/>
			<path class="st3" d="M25.9,8l5.2,1.6l0.1-0.9c0,0-1.2,0.3-2.6-0.1C27.1,8.2,26,7.1,26,7.1L25.9,8z"/>
			<g>
				<path class="st3" d="M30.6,16.7l1.4,1.7l-0.7,0.8c0,0,0.2-0.9-0.2-1.4c-0.4-0.5-1.3-0.3-1.3-0.3L30.6,16.7z"/>
			</g>
			<g>
				<path class="st3" d="M32.1,18.4l-1.4-1.7l0.7-0.8c0,0-0.2,0.9,0.2,1.4c0.4,0.5,1.3,0.3,1.3,0.3L32.1,18.4z"/>
			</g>
			<g>
				<path class="st3" d="M28,15.2l-2.2-0.4l-0.3,1c0,0,0.7-0.7,1.3-0.6s0.9,1,0.9,1L28,15.2z"/>
			</g>
			<g>
				<path class="st3" d="M25.8,14.8l2.2,0.4l0.3-1c0,0-0.7,0.7-1.3,0.6c-0.6-0.1-0.9-1-0.9-1L25.8,14.8z"/>
			</g>
			<g>
				<circle class="st3" cx="19.5" cy="33.3" r="2"/>
			</g>
			<g>
				<circle class="st3" cx="16.2" cy="39.1" r="2"/>
			</g>
			<path class="st3" d="M17.1,37.6l1.5-2.7l0.7,0.4c0,0-0.9,0.3-1.3,1C17.6,37,17.8,38,17.8,38L17.1,37.6z"/>
			<path class="st3" d="M18.6,34.9l-1.5,2.7l-0.7-0.4c0,0,0.9-0.3,1.3-1c0.4-0.7,0.2-1.7,0.2-1.7L18.6,34.9z"/>
			<path class="st3" d="M15.1,37.9l-4.1-3.6l0.7-0.5c0,0,0.3,1.2,1.5,2.2c1.1,1,2.6,1.5,2.6,1.5L15.1,37.9z"/>
			<path class="st3" d="M11,34.2l4.1,3.6l-0.7,0.5c0,0-0.3-1.2-1.5-2.2c-1.1-1-2.6-1.5-2.6-1.5L11,34.2z"/>
			<path class="st3" d="M17.8,39.4L23,41l0.1-0.9c0,0-1.2,0.3-2.6-0.1s-2.6-1.5-2.6-1.5L17.8,39.4z"/>
			<path class="st3" d="M23,41l-5.2-1.6l-0.1,0.9c0,0,1.2-0.3,2.6,0.1s2.6,1.5,2.6,1.5L23,41z"/>
			<g>
				<path class="st3" d="M18.3,32.3l-1.4-1.7l0.7-0.8c0,0-0.2,0.9,0.2,1.4c0.4,0.5,1.3,0.3,1.3,0.3L18.3,32.3z"/>
			</g>
			<g>
				<path class="st3" d="M16.9,30.6l1.4,1.7L17.7,33c0,0,0.2-0.9-0.2-1.4c-0.4-0.5-1.3-0.3-1.3-0.3L16.9,30.6z"/>
			</g>
			<g>
				<path class="st3" d="M21,33.8l2.2,0.4l0.3-1c0,0-0.7,0.7-1.3,0.6c-0.6-0.1-0.9-1-0.9-1L21,33.8z"/>
			</g>
			<g>
				<path class="st3" d="M23.2,34.2L21,33.8l-0.3,1c0,0,0.7-0.7,1.3-0.6c0.6,0.1,0.9,1,0.9,1L23.2,34.2z"/>
			</g>
			<g>
				<circle class="st3" cx="15.7" cy="19.5" r="2"/>
			</g>
			<g>
				<circle class="st3" cx="9.9" cy="16.2" r="2"/>
			</g>
			<path class="st3" d="M11.4,17.1l2.7,1.5l-0.4,0.7c0,0-0.3-0.9-1-1.3C12,17.6,11,17.8,11,17.8L11.4,17.1z"/>
			<path class="st3" d="M14.1,18.6l-2.7-1.5l0.4-0.7c0,0,0.3,0.9,1,1.3c0.7,0.4,1.7,0.2,1.7,0.2L14.1,18.6z"/>
			<path class="st3" d="M11.1,15.1l3.6-4.1l0.5,0.7c0,0-1.2,0.3-2.2,1.5s-1.5,2.6-1.5,2.6L11.1,15.1z"/>
			<path class="st3" d="M14.8,11l-3.6,4.1l-0.5-0.7c0,0,1.2-0.3,2.2-1.5s1.5-2.6,1.5-2.6L14.8,11z"/>
			<path class="st3" d="M9.6,17.8L8,23l0.9,0.1c0,0-0.3-1.2,0.1-2.6s1.5-2.6,1.5-2.6L9.6,17.8z"/>
			<path class="st3" d="M8,23l1.6-5.2l-0.9-0.1c0,0,0.3,1.2-0.1,2.6S7.1,23,7.1,23L8,23z"/>
			<g>
				<path class="st3" d="M16.7,18.3l1.7-1.4l0.8,0.7c0,0-0.9-0.2-1.4,0.2c-0.5,0.4-0.3,1.3-0.3,1.3L16.7,18.3z"/>
			</g>
			<g>
				<path class="st3" d="M18.4,16.9l-1.7,1.4l-0.8-0.7c0,0,0.9,0.2,1.4-0.2c0.5-0.4,0.3-1.3,0.3-1.3L18.4,16.9z"/>
			</g>
			<g>
				<path class="st3" d="M15.2,21l-0.4,2.2l1,0.3c0,0-0.7-0.7-0.6-1.3c0.1-0.6,1-0.9,1-0.9L15.2,21z"/>
			</g>
			<g>
				<path class="st3" d="M14.8,23.2l0.4-2.2l-1-0.3c0,0,0.7,0.7,0.6,1.3c-0.1,0.6-1,0.9-1,0.9L14.8,23.2z"/>
			</g>
			<g>
				<circle class="st3" cx="33.3" cy="29.5" r="2"/>
			</g>
			<g>
				<circle class="st3" cx="39.1" cy="32.8" r="2"/>
			</g>
			<path class="st3" d="M37.6,31.9l-2.7-1.5l0.4-0.7c0,0,0.3,0.9,1,1.3s1.7,0.2,1.7,0.2L37.6,31.9z"/>
			<path class="st3" d="M34.9,30.3l2.7,1.5l-0.4,0.7c0,0-0.3-0.9-1-1.3c-0.7-0.4-1.7-0.2-1.7-0.2L34.9,30.3z"/>
			<path class="st3" d="M37.9,33.9l-3.6,4.1l-0.5-0.7c0,0,1.2-0.3,2.2-1.5c1-1.1,1.5-2.6,1.5-2.6L37.9,33.9z"/>
			<path class="st3" d="M34.2,38l3.6-4.1l0.5,0.7c0,0-1.2,0.3-2.2,1.5c-1,1.1-1.5,2.6-1.5,2.6L34.2,38z"/>
			<path class="st3" d="M39.4,31.2L41,26l-0.9-0.1c0,0,0.3,1.2-0.1,2.6c-0.5,1.4-1.5,2.6-1.5,2.6L39.4,31.2z"/>
			<path class="st3" d="M41,25.9l-1.6,5.2l0.9,0.1c0,0-0.3-1.2,0.1-2.6c0.5-1.4,1.5-2.6,1.5-2.6L41,25.9z"/>
			<g>
				<path class="st3" d="M32.3,30.6l-1.7,1.4l-0.8-0.7c0,0,0.9,0.2,1.4-0.2c0.5-0.4,0.3-1.3,0.3-1.3L32.3,30.6z"/>
			</g>
			<g>
				<path class="st3" d="M30.6,32.1l1.7-1.4l0.8,0.7c0,0-0.9-0.2-1.4,0.2c-0.5,0.4-0.3,1.3-0.3,1.3L30.6,32.1z"/>
			</g>
			<g>
				<path class="st3" d="M33.8,28l0.4-2.2l-1-0.3c0,0,0.7,0.7,0.6,1.3c-0.1,0.6-1,0.9-1,0.9L33.8,28z"/>
			</g>
			<g>
				<path class="st3" d="M34.2,25.8L33.8,28l1,0.3c0,0-0.7-0.7-0.6-1.3c0.1-0.6,1-0.9,1-0.9L34.2,25.8z"/>
			</g>
			<g>
				<circle class="st3" cx="33.2" cy="19.4" r="2"/>
			</g>
			<g>
				<circle class="st3" cx="39" cy="16" r="2"/>
			</g>
			<path class="st3" d="M37.5,16.9l-2.7,1.5l-0.4-0.7c0,0,0.9,0.2,1.7-0.2c0.7-0.4,1-1.3,1-1.3L37.5,16.9z"/>
			<path class="st3" d="M34.8,18.5l2.7-1.5l0.4,0.7c0,0-0.9-0.2-1.7,0.2s-1,1.3-1,1.3L34.8,18.5z"/>
			<path class="st3" d="M39.3,17.7l1.7,5.2l-0.9,0.1c0,0,0.3-1.2-0.2-2.6s-1.5-2.6-1.5-2.6L39.3,17.7z"/>
			<path class="st3" d="M41,22.9l-1.7-5.2l0.9-0.1c0,0-0.3,1.2,0.2,2.6s1.5,2.6,1.5,2.6L41,22.9z"/>
			<path class="st3" d="M37.8,15l-3.7-4l-0.5,0.7c0,0,1.2,0.3,2.2,1.4c1,1.1,1.5,2.6,1.5,2.6L37.8,15z"/>
			<path class="st3" d="M34.1,11l3.7,4l0.5-0.7c0,0-1.2-0.3-2.2-1.4s-1.5-2.6-1.5-2.6L34.1,11z"/>
			<g>
				<path class="st3" d="M33.7,20.8l0.4,2.2l-1,0.3c0,0,0.7-0.7,0.6-1.3c-0.1-0.6-1-0.9-1-0.9L33.7,20.8z"/>
			</g>
			<g>
				<path class="st3" d="M34.1,23l-0.4-2.2l1-0.3c0,0-0.7,0.7-0.6,1.3c0.1,0.6,1,0.9,1,0.9L34.1,23z"/>
			</g>
			<g>
				<path class="st3" d="M32.2,18.2l-1.7-1.4l-0.7,0.7c0,0,0.9-0.2,1.4,0.2s0.3,1.3,0.3,1.3L32.2,18.2z"/>
			</g>
			<g>
				<path class="st3" d="M30.5,16.8l1.7,1.4l0.7-0.7c0,0-0.9,0.2-1.4-0.2s-0.3-1.3-0.3-1.3L30.5,16.8z"/>
			</g>
			<g>
				<circle class="st3" cx="15.7" cy="29.6" r="2"/>
			</g>
			<g>
				<circle class="st3" cx="10" cy="33" r="2"/>
			</g>
			<path class="st3" d="M11.5,32l2.7-1.5l0.4,0.7c0,0-0.9-0.2-1.7,0.2s-1,1.3-1,1.3L11.5,32z"/>
			<path class="st3" d="M14.2,30.5l-2.7,1.5l-0.4-0.7c0,0,0.9,0.2,1.7-0.2s1-1.3,1-1.3L14.2,30.5z"/>
			<path class="st3" d="M9.7,31.3L8,26.2l0.9-0.1c0,0-0.3,1.2,0.2,2.6c0.5,1.4,1.5,2.6,1.5,2.6L9.7,31.3z"/>
			<path class="st3" d="M8,26.1l1.7,5.2l-0.9,0.1c0,0,0.3-1.2-0.2-2.6c-0.5-1.4-1.5-2.6-1.5-2.6L8,26.1z"/>
			<path class="st3" d="M11.2,34l3.7,4l0.5-0.7c0,0-1.2-0.3-2.2-1.4s-1.5-2.6-1.5-2.6L11.2,34z"/>
			<path class="st3" d="M14.9,38l-3.7-4l-0.5,0.7c0,0,1.2,0.3,2.2,1.4s1.5,2.6,1.5,2.6L14.9,38z"/>
			<g>
				<path class="st3" d="M15.2,28.2L14.8,26l1-0.3c0,0-0.7,0.7-0.6,1.3c0.1,0.6,1,0.9,1,0.9L15.2,28.2z"/>
			</g>
			<g>
				<path class="st3" d="M14.9,26l0.4,2.2l-1,0.3c0,0,0.7-0.7,0.6-1.3s-1-0.9-1-0.9L14.9,26z"/>
			</g>
			<g>
				<path class="st3" d="M16.8,30.8l1.7,1.4l0.7-0.7c0,0-0.9,0.2-1.4-0.2s-0.3-1.3-0.3-1.3L16.8,30.8z"/>
			</g>
			<g>
				<path class="st3" d="M18.5,32.2l-1.7-1.4L16,31.5c0,0,0.9-0.2,1.4,0.2c0.5,0.4,0.3,1.3,0.3,1.3L18.5,32.2z"/>
			</g>
			<g>
				<circle class="st3" cx="19.4" cy="15.7" r="2"/>
			</g>
			<g>
				<circle class="st3" cx="16" cy="10" r="2"/>
			</g>
			<path class="st3" d="M16.9,11.5l1.5,2.7l-0.7,0.4c0,0,0.2-0.9-0.2-1.7c-0.4-0.7-1.3-1-1.3-1L16.9,11.5z"/>
			<path class="st3" d="M18.5,14.2l-1.5-2.7l0.7-0.4c0,0-0.2,0.9,0.2,1.7s1.3,1,1.3,1L18.5,14.2z"/>
			<path class="st3" d="M17.7,9.7L22.8,8l0.1,0.9c0,0-1.2-0.3-2.6,0.2c-1.4,0.5-2.6,1.5-2.6,1.5L17.7,9.7z"/>
			<path class="st3" d="M22.9,8l-5.2,1.7l-0.1-0.9c0,0,1.2,0.3,2.6-0.2c1.4-0.5,2.6-1.5,2.6-1.5L22.9,8z"/>
			<path class="st3" d="M15,11.2l-4,3.7l0.7,0.5c0,0,0.3-1.2,1.4-2.2s2.6-1.5,2.6-1.5L15,11.2z"/>
			<path class="st3" d="M11,14.9l4-3.7l-0.7-0.5c0,0-0.3,1.2-1.4,2.2s-2.6,1.5-2.6,1.5L11,14.9z"/>
			<g>
				<path class="st3" d="M20.8,15.2l2.2-0.4l0.3,1c0,0-0.7-0.7-1.3-0.6c-0.6,0.1-0.9,1-0.9,1L20.8,15.2z"/>
			</g>
			<g>
				<path class="st3" d="M23,14.9l-2.2,0.4l-0.3-1c0,0,0.7,0.7,1.3,0.6s0.9-1,0.9-1L23,14.9z"/>
			</g>
			<g>
				<path class="st3" d="M18.2,16.8l-1.4,1.7l0.7,0.7c0,0-0.2-0.9,0.2-1.4s1.3-0.3,1.3-0.3L18.2,16.8z"/>
			</g>
			<g>
				<path class="st3" d="M16.8,18.5l1.4-1.7L17.5,16c0,0,0.2,0.9-0.2,1.4s-1.3,0.3-1.3,0.3L16.8,18.5z"/>
			</g>
			<g>
				<circle class="st3" cx="29.6" cy="33.2" r="2"/>
			</g>
			<g>
				<circle class="st3" cx="33" cy="39" r="2"/>
			</g>
			<path class="st3" d="M32,37.5l-1.5-2.7l0.7-0.4c0,0-0.2,0.9,0.2,1.7c0.4,0.7,1.3,1,1.3,1L32,37.5z"/>
			<path class="st3" d="M30.5,34.8l1.5,2.7l-0.7,0.4c0,0,0.2-0.9-0.2-1.7s-1.3-1-1.3-1L30.5,34.8z"/>
			<path class="st3" d="M31.3,39.3L26.2,41l-0.1-0.9c0,0,1.2,0.3,2.6-0.2c1.4-0.5,2.6-1.5,2.6-1.5L31.3,39.3z"/>
			<path class="st3" d="M26.1,41l5.2-1.7l0.1,0.9c0,0-1.2-0.3-2.6,0.2c-1.4,0.5-2.6,1.5-2.6,1.5L26.1,41z"/>
			<path class="st3" d="M34,37.8l4-3.7l-0.7-0.5c0,0-0.3,1.2-1.4,2.2c-1.1,1-2.6,1.5-2.6,1.5L34,37.8z"/>
			<path class="st3" d="M38,34.1l-4,3.7l0.7,0.5c0,0,0.3-1.2,1.4-2.2s2.6-1.5,2.6-1.5L38,34.1z"/>
			<g>
				<path class="st3" d="M28.2,33.7L26,34.2l-0.3-1c0,0,0.7,0.7,1.3,0.6c0.6-0.1,0.9-1,0.9-1L28.2,33.7z"/>
			</g>
			<g>
				<path class="st3" d="M26,34.1l2.2-0.4l0.3,1c0,0-0.7-0.7-1.3-0.6c-0.6,0.1-0.9,1-0.9,1L26,34.1z"/>
			</g>
			<g>
				<path class="st3" d="M30.8,32.2l1.4-1.7l-0.7-0.7c0,0,0.2,0.9-0.2,1.4s-1.3,0.3-1.3,0.3L30.8,32.2z"/>
			</g>
			<g>
				<path class="st3" d="M32.2,30.5l-1.4,1.7l0.7,0.7c0,0-0.2-0.9,0.2-1.4c0.4-0.5,1.3-0.3,1.3-0.3L32.2,30.5z"/>
			</g>
			<g>
				<circle class="st3" cx="24.5" cy="34.6" r="2"/>
			</g>
			<g>
				<circle class="st3" cx="24.5" cy="41.3" r="2"/>
			</g>
			<path class="st3" d="M24.5,39.5v-3.1l0.8,0c0,0-0.6,0.7-0.6,1.6s0.6,1.6,0.6,1.6H24.5z"/>
			<path class="st3" d="M24.5,36.4v3.1l-0.8,0c0,0,0.6-0.7,0.6-1.6s-0.6-1.6-0.6-1.6H24.5z"/>
			<path class="st3" d="M23,40.8l-5.3-1.2l0.4-0.8c0,0,0.9,0.9,2.4,1.2s3,0,3,0L23,40.8z"/>
			<path class="st3" d="M17.6,39.6l5.3,1.2l-0.4,0.8c0,0-0.9-0.9-2.4-1.2s-3,0-3,0L17.6,39.6z"/>
			<path class="st3" d="M26,40.8l5.3-1.2L31,38.8c0,0-0.9,0.9-2.4,1.2s-3,0-3,0L26,40.8z"/>
			<path class="st3" d="M31.4,39.6l-5.3,1.2l0.4,0.8c0,0,0.9-0.9,2.4-1.2s3,0,3,0L31.4,39.6z"/>
			<g>
				<path class="st3" d="M23,34.3L21,33.6l0.2-1c0,0,0.3,0.9,0.8,1.1c0.6,0.2,1.2-0.4,1.2-0.4L23,34.3z"/>
			</g>
			<g>
				<path class="st3" d="M20.9,33.6l2.1,0.7l-0.2,1c0,0-0.3-0.9-0.8-1.1c-0.6-0.2-1.2,0.4-1.2,0.4L20.9,33.6z"/>
			</g>
			<g>
				<path class="st3" d="M26,34.3l2.1-0.7l-0.2-1c0,0-0.3,0.9-0.8,1.1c-0.6,0.2-1.2-0.4-1.2-0.4L26,34.3z"/>
			</g>
			<g>
				<path class="st3" d="M28.1,33.6l-2.1,0.7l0.2,1c0,0,0.3-0.9,0.8-1.1c0.6-0.2,1.2,0.4,1.2,0.4L28.1,33.6z"/>
			</g>
			<g>
				<circle class="st3" cx="14.4" cy="24.5" r="2"/>
			</g>
			<g>
				<circle class="st3" cx="7.7" cy="24.5" r="2"/>
			</g>
			<path class="st3" d="M9.5,24.5h3.1l0,0.8c0,0-0.7-0.6-1.6-0.6c-0.9,0-1.6,0.6-1.6,0.6V24.5z"/>
			<path class="st3" d="M12.6,24.5H9.5l0-0.8c0,0,0.7,0.6,1.6,0.6c0.9,0,1.6-0.6,1.6-0.6V24.5z"/>
			<path class="st3" d="M8.2,23l1.2-5.3l0.8,0.4c0,0-0.9,0.9-1.2,2.4s0,3,0,3L8.2,23z"/>
			<path class="st3" d="M9.4,17.6l-1.2,5.3l-0.8-0.4c0,0,0.9-0.9,1.2-2.4s0-3,0-3L9.4,17.6z"/>
			<path class="st3" d="M8.2,26l1.2,5.3l0.8-0.4c0,0-0.9-0.9-1.2-2.4s0-3,0-3L8.2,26z"/>
			<path class="st3" d="M9.4,31.4l-1.2-5.3l-0.8,0.4c0,0,0.9,0.9,1.2,2.4s0,3,0,3L9.4,31.4z"/>
			<g>
				<path class="st3" d="M14.6,23l0.7-2.1l1,0.2c0,0-0.9,0.3-1.1,0.8c-0.2,0.6,0.4,1.2,0.4,1.2L14.6,23z"/>
			</g>
			<g>
				<path class="st3" d="M15.4,20.9L14.7,23l-1-0.2c0,0,0.9-0.3,1.1-0.8c0.2-0.6-0.4-1.2-0.4-1.2L15.4,20.9z"/>
			</g>
			<g>
				<path class="st3" d="M14.6,26l0.7,2.1l1-0.2c0,0-0.9-0.3-1.1-0.8c-0.2-0.6,0.4-1.2,0.4-1.2L14.6,26z"/>
			</g>
			<g>
				<path class="st3" d="M15.4,28.1l-0.7-2.1l-1,0.2c0,0,0.9,0.3,1.1,0.8c0.2,0.6-0.4,1.2-0.4,1.2L15.4,28.1z"/>
			</g>
			<g>
				<circle class="st3" cx="34.6" cy="24.5" r="2"/>
			</g>
			<g>
				<circle class="st3" cx="41.3" cy="24.5" r="2"/>
			</g>
			<path class="st3" d="M39.5,24.5h-3.1l0-0.8c0,0,0.7,0.6,1.6,0.6s1.6-0.6,1.6-0.6V24.5z"/>
			<path class="st3" d="M36.4,24.5h3.1l0,0.8c0,0-0.7-0.6-1.6-0.6s-1.6,0.6-1.6,0.6V24.5z"/>
			<path class="st3" d="M40.8,26l-1.2,5.3L38.8,31c0,0,0.9-0.9,1.2-2.4s0-3,0-3L40.8,26z"/>
			<path class="st3" d="M39.6,31.4l1.2-5.3l0.8,0.4c0,0-0.9,0.9-1.2,2.4s0,3,0,3L39.6,31.4z"/>
			<path class="st3" d="M40.8,23l-1.2-5.3L38.8,18c0,0,0.9,0.9,1.2,2.4s0,3,0,3L40.8,23z"/>
			<path class="st3" d="M39.6,17.6l1.2,5.3l0.8-0.4c0,0-0.9-0.9-1.2-2.4s0-3,0-3L39.6,17.6z"/>
			<g>
				<path class="st3" d="M34.3,26L33.6,28l-1-0.2c0,0,0.9-0.3,1.1-0.8c0.2-0.6-0.4-1.2-0.4-1.2L34.3,26z"/>
			</g>
			<g>
				<path class="st3" d="M33.6,28l0.7-2.1l1,0.2c0,0-0.9,0.3-1.1,0.8c-0.2,0.6,0.4,1.2,0.4,1.2L33.6,28z"/>
			</g>
			<g>
				<path class="st3" d="M34.3,22.9l-0.7-2.1l-1,0.2c0,0,0.9,0.3,1.1,0.8c0.2,0.6-0.4,1.2-0.4,1.2L34.3,22.9z"/>
			</g>
			<g>
				<path class="st3" d="M33.6,20.9l0.7,2.1l1-0.2c0,0-0.9-0.3-1.1-0.8c-0.2-0.6,0.4-1.2,0.4-1.2L33.6,20.9z"/>
			</g>
		</g>
	</g>
</g>
<g>
	<path class="st4" d="M66.8,40.9c0,0.7-0.6,1.2-1.2,1.2c-0.7,0-1.2-0.6-1.2-1.2s0.6-1.2,1.2-1.2C66.2,39.6,66.8,40.2,66.8,40.9z
		 M65.6,33.4c-0.7,0-1.2,0.6-1.2,1.2c0,0.7,0.6,1.2,1.2,1.2c0.7,0,1.2-0.6,1.2-1.2C66.8,33.9,66.2,33.4,65.6,33.4z M65.6,29.2
		c-0.7,0-1.2,0.6-1.2,1.2s0.6,1.2,1.2,1.2c0.7,0,1.2-0.6,1.2-1.2S66.2,29.2,65.6,29.2z M65,31.6c0,0,0.4,0.4,0.4,1
		c0,0.5-0.4,1-0.4,1l0.5,0v-1.9H65z M66.1,33.5c0,0-0.4-0.4-0.4-1c0-0.5,0.4-1,0.4-1l-0.5,0v1.9H66.1z M66.3,31.3c0,0,1-0.2,1.9,0
		c0.9,0.2,1.5,0.7,1.5,0.7l0.2-0.5l-3.3-0.7L66.3,31.3z M70.1,31c0,0-1,0.2-1.9,0s-1.5-0.7-1.5-0.7l-0.2,0.5l3.3,0.7L70.1,31z
		 M64.6,30.8l-3.3,0.7l0.2,0.5c0,0,0.5-0.5,1.5-0.7c0.9-0.2,1.9,0,1.9,0L64.6,30.8z M61.3,31.5l3.3-0.7l-0.2-0.5
		c0,0-0.5,0.5-1.5,0.7C62,31.3,61,31,61,31L61.3,31.5z M66.3,35.4c0,0,0.4-0.4,0.8-0.3c0.4,0.1,0.5,0.7,0.5,0.7l0.1-0.6l-1.3-0.5
		L66.3,35.4z M67.9,34.6c0,0-0.4,0.4-0.8,0.3c-0.4-0.1-0.5-0.7-0.5-0.7l-0.1,0.6l1.3,0.5L67.9,34.6z M64.6,34.8l-1.3,0.5l0.1,0.6
		c0,0,0.2-0.6,0.5-0.7c0.4-0.1,0.8,0.3,0.8,0.3L64.6,34.8z M63.3,35.2l1.3-0.5l-0.1-0.6c0,0-0.2,0.6-0.5,0.7
		c-0.4,0.1-0.8-0.3-0.8-0.3L63.3,35.2z M69.3,34.3c-0.6-0.3-1.4-0.1-1.7,0.5c-0.3,0.6-0.1,1.4,0.5,1.7c0.6,0.3,1.4,0.1,1.7-0.5
		C70.1,35.4,69.9,34.7,69.3,34.3z M71.3,30.7c-0.6-0.3-1.4-0.1-1.7,0.5c-0.3,0.6-0.1,1.4,0.5,1.7c0.6,0.3,1.4,0.1,1.7-0.5
		C72.2,31.8,71.9,31.1,71.3,30.7z M69.7,32.5c0,0,0.1,0.6-0.1,1s-0.8,0.6-0.8,0.6l0.5,0.2l0.9-1.7L69.7,32.5z M69.6,34.7
		c0,0-0.1-0.6,0.1-1s0.8-0.6,0.8-0.6l-0.5-0.2l-0.9,1.7L69.6,34.7z M70.9,32.9c0,0,0.9,0.3,1.6,0.9c0.7,0.6,0.9,1.4,0.9,1.4l0.4-0.3
		l-2.5-2.3L70.9,32.9z M74.4,34.6c0,0-0.9-0.3-1.6-0.9c-0.7-0.6-0.9-1.4-0.9-1.4l-0.4,0.3l2.5,2.3L74.4,34.6z M69.7,31.6l-3.2-1
		l0,0.5c0,0,0.7-0.2,1.6,0.1c0.9,0.3,1.6,0.9,1.6,0.9L69.7,31.6z M66.5,30.6l3.2,1l0-0.5c0,0-0.7,0.2-1.6-0.1s-1.6-0.9-1.6-0.9
		L66.5,30.6z M68.9,36.5c0,0,0.5-0.1,0.8,0.2c0.2,0.3,0.1,0.9,0.1,0.9l0.4-0.5l-0.9-1L68.9,36.5z M70.7,36.6c0,0-0.5,0.1-0.8-0.2
		c-0.2-0.3-0.1-0.9-0.1-0.9l-0.4,0.5l0.9,1L70.7,36.6z M67.8,35.1l-1.3-0.2l-0.2,0.6c0,0,0.4-0.4,0.8-0.4c0.4,0.1,0.5,0.6,0.5,0.6
		L67.8,35.1z M66.4,34.9l1.3,0.2l0.2-0.6c0,0-0.4,0.4-0.8,0.4s-0.5-0.6-0.5-0.6L66.4,34.9z M61.8,47.5c0.6,0.3,1.4,0.1,1.7-0.5
		c0.3-0.6,0.1-1.4-0.5-1.7s-1.4-0.1-1.7,0.5S61.2,47.1,61.8,47.5z M59.8,51.1c0.6,0.3,1.4,0.1,1.7-0.5s0.1-1.4-0.5-1.7
		s-1.4-0.1-1.7,0.5C59,50,59.2,50.7,59.8,51.1z M61.4,49.3c0,0-0.1-0.6,0.1-1s0.8-0.6,0.8-0.6l-0.5-0.2L61,49L61.4,49.3z M61.5,47.1
		c0,0,0.1,0.6-0.1,1s-0.8,0.6-0.8,0.6L61,49l0.9-1.7L61.5,47.1z M60.2,48.9c0,0-0.9-0.3-1.6-0.9c-0.7-0.6-0.9-1.4-0.9-1.4L57.2,47
		l2.5,2.3L60.2,48.9z M56.7,47.2c0,0,0.9,0.3,1.6,0.9c0.7,0.6,0.9,1.4,0.9,1.4l0.4-0.3l-2.5-2.3L56.7,47.2z M61.4,50.2l3.2,1l0-0.5
		c0,0-0.7,0.2-1.6-0.1c-0.9-0.3-1.6-0.9-1.6-0.9L61.4,50.2z M64.7,51.2l-3.2-1l0,0.5c0,0,0.7-0.2,1.6,0.1c0.9,0.3,1.6,0.9,1.6,0.9
		L64.7,51.2z M62.2,45.3c0,0-0.5,0.1-0.8-0.2c-0.2-0.3-0.1-0.9-0.1-0.9l-0.4,0.5l0.9,1L62.2,45.3z M60.4,45.2c0,0,0.5-0.1,0.8,0.2
		c0.2,0.3,0.1,0.9,0.1,0.9l0.4-0.5l-0.9-1L60.4,45.2z M63.4,46.7l1.3,0.2l0.2-0.6c0,0-0.4,0.4-0.8,0.4c-0.4-0.1-0.5-0.6-0.5-0.6
		L63.4,46.7z M64.7,46.9l-1.3-0.2l-0.2,0.6c0,0,0.4-0.4,0.8-0.4c0.4,0.1,0.5,0.6,0.5,0.6L64.7,46.9z M59,37.2
		c-0.3,0.6-0.1,1.4,0.5,1.7c0.6,0.3,1.4,0.1,1.7-0.5s0.1-1.4-0.5-1.7C60.1,36.4,59.3,36.6,59,37.2z M55.4,35.1
		c-0.3,0.6-0.1,1.4,0.5,1.7s1.4,0.1,1.7-0.5c0.3-0.6,0.1-1.4-0.5-1.7S55.7,34.5,55.4,35.1z M57.2,36.7c0,0,0.6-0.1,1,0.1
		s0.6,0.8,0.6,0.8l0.2-0.5l-1.7-0.9L57.2,36.7z M59.4,36.8c0,0-0.6,0.1-1-0.1c-0.5-0.3-0.6-0.8-0.6-0.8l-0.2,0.5l1.7,0.9L59.4,36.8z
		 M57.5,35.5c0,0,0.3-0.9,0.9-1.6c0.6-0.7,1.4-0.9,1.4-0.9l-0.3-0.4l-2.3,2.5L57.5,35.5z M59.3,32.1c0,0-0.3,0.9-0.9,1.6
		S57,34.6,57,34.6l0.3,0.4l2.3-2.5L59.3,32.1z M56.3,36.7l-1,3.2l0.5,0c0,0-0.2-0.7,0.1-1.6c0.3-0.9,0.9-1.6,0.9-1.6L56.3,36.7z
		 M55.3,40l1-3.2l-0.5,0c0,0,0.2,0.7-0.1,1.6c-0.3,0.9-0.9,1.6-0.9,1.6L55.3,40z M61.2,37.5c0,0-0.1-0.5,0.2-0.8
		c0.3-0.2,0.9-0.1,0.9-0.1l-0.5-0.4l-1,0.9L61.2,37.5z M61.3,35.7c0,0,0.1,0.5-0.2,0.8c-0.3,0.2-0.9,0.1-0.9,0.1l0.5,0.4l1-0.9
		L61.3,35.7z M59.8,38.7L59.5,40l0.6,0.2c0,0-0.4-0.4-0.4-0.8c0.1-0.4,0.6-0.5,0.6-0.5L59.8,38.7z M59.5,40.1l0.2-1.3l-0.6-0.2
		c0,0,0.4,0.4,0.4,0.8c-0.1,0.4-0.6,0.5-0.6,0.5L59.5,40.1z M72.1,44.6c0.3-0.6,0.1-1.4-0.5-1.7c-0.6-0.3-1.4-0.1-1.7,0.5
		c-0.3,0.6-0.1,1.4,0.5,1.7C71,45.4,71.8,45.2,72.1,44.6z M75.7,46.7c0.3-0.6,0.1-1.4-0.5-1.7c-0.6-0.3-1.4-0.1-1.7,0.5
		c-0.3,0.6-0.1,1.4,0.5,1.7C74.6,47.5,75.4,47.3,75.7,46.7z M73.9,45.1c0,0-0.6,0.1-1-0.1c-0.5-0.3-0.6-0.8-0.6-0.8L72,44.6l1.7,0.9
		L73.9,45.1z M71.8,45c0,0,0.6-0.1,1,0.1c0.5,0.3,0.6,0.8,0.6,0.8l0.2-0.5L72,44.5L71.8,45z M73.6,46.3c0,0-0.3,0.9-0.9,1.6
		s-1.4,0.9-1.4,0.9l0.3,0.4l2.3-2.5L73.6,46.3z M71.9,49.7c0,0,0.3-0.9,0.9-1.6s1.4-0.9,1.4-0.9l-0.3-0.4l-2.3,2.5L71.9,49.7z
		 M74.8,45.1l1-3.2l-0.5,0c0,0,0.2,0.7-0.1,1.6c-0.3,0.9-0.9,1.6-0.9,1.6L74.8,45.1z M75.8,41.8l-1,3.2l0.5,0c0,0-0.2-0.7,0.1-1.6
		c0.3-0.9,0.9-1.6,0.9-1.6L75.8,41.8z M70,44.3c0,0,0.1,0.5-0.2,0.8c-0.3,0.2-0.9,0.1-0.9,0.1l0.5,0.4l1-0.9L70,44.3z M69.8,46.1
		c0,0-0.1-0.5,0.2-0.8c0.3-0.2,0.9-0.1,0.9-0.1l-0.5-0.4l-1,0.9L69.8,46.1z M71.4,43.1l0.2-1.3L71,41.6c0,0,0.4,0.4,0.4,0.8
		c-0.1,0.4-0.6,0.5-0.6,0.5L71.4,43.1z M71.6,41.7l-0.2,1.3l0.6,0.2c0,0-0.4-0.4-0.4-0.8c0.1-0.4,0.6-0.5,0.6-0.5L71.6,41.7z
		 M72.1,37.1c-0.3-0.6-1.1-0.8-1.7-0.5c-0.6,0.3-0.8,1.1-0.5,1.7c0.3,0.6,1.1,0.8,1.7,0.5C72.2,38.5,72.4,37.7,72.1,37.1z M75.7,35
		c-0.3-0.6-1.1-0.8-1.7-0.5c-0.6,0.3-0.8,1.1-0.5,1.7c0.3,0.6,1.1,0.8,1.7,0.5C75.8,36.4,76,35.6,75.7,35z M73.4,35.8
		c0,0-0.2,0.6-0.6,0.8c-0.5,0.3-1,0.1-1,0.1l0.3,0.4l1.7-1L73.4,35.8z M72.2,37.6c0,0,0.2-0.6,0.6-0.8c0.5-0.3,1-0.1,1-0.1l-0.3-0.4
		l-1.7,1L72.2,37.6z M74.2,36.7c0,0,0.7,0.7,1,1.6c0.3,0.9,0.1,1.6,0.1,1.6l0.5,0l-1-3.2L74.2,36.7z M76.4,39.9c0,0-0.7-0.7-1-1.6
		c-0.3-0.9-0.1-1.6-0.1-1.6l-0.5,0l1,3.2L76.4,39.9z M73.8,35l-2.3-2.5l-0.3,0.4c0,0,0.7,0.2,1.4,0.9s0.9,1.6,0.9,1.6L73.8,35z
		 M71.5,32.5l2.3,2.5l0.3-0.4c0,0-0.7-0.2-1.4-0.9c-0.6-0.7-0.9-1.6-0.9-1.6L71.5,32.5z M70.7,38.8c0,0,0.5,0.2,0.6,0.5
		S71,40.1,71,40.1l0.6-0.2l-0.3-1.3L70.7,38.8z M72.2,39.8c0,0-0.5-0.2-0.6-0.5s0.3-0.8,0.3-0.8l-0.6,0.2l0.3,1.3L72.2,39.8z
		 M70.4,37l-1-0.9l-0.5,0.4c0,0,0.6-0.1,0.9,0.1c0.3,0.2,0.2,0.8,0.2,0.8L70.4,37z M69.3,36.1l1,0.9l0.5-0.4c0,0-0.6,0.1-0.9-0.1
		c-0.3-0.2-0.2-0.8-0.2-0.8L69.3,36.1z M59,44.7c0.3,0.6,1.1,0.8,1.7,0.5c0.6-0.3,0.8-1.1,0.5-1.7s-1.1-0.8-1.7-0.5
		C58.9,43.3,58.7,44.1,59,44.7z M55.4,46.8c0.3,0.6,1.1,0.8,1.7,0.5c0.6-0.3,0.8-1.1,0.5-1.7c-0.3-0.6-1.1-0.8-1.7-0.5
		C55.3,45.4,55.1,46.2,55.4,46.8z M57.7,46c0,0,0.2-0.6,0.6-0.8c0.5-0.3,1-0.1,1-0.1l-0.3-0.4l-1.7,1L57.7,46z M58.9,44.2
		c0,0-0.2,0.6-0.6,0.8c-0.5,0.3-1,0.1-1,0.1l0.3,0.4l1.7-1L58.9,44.2z M56.9,45.1c0,0-0.7-0.7-1-1.6c-0.3-0.9-0.1-1.6-0.1-1.6
		l-0.5,0l1,3.2L56.9,45.1z M54.8,41.9c0,0,0.7,0.7,1,1.6c0.3,0.9,0.1,1.6,0.1,1.6l0.5,0l-1-3.2L54.8,41.9z M57.3,46.8l2.3,2.5
		l0.3-0.4c0,0-0.7-0.2-1.4-0.9c-0.6-0.7-0.9-1.6-0.9-1.6L57.3,46.8z M59.6,49.3l-2.3-2.5L57,47.3c0,0,0.7,0.2,1.4,0.9
		c0.6,0.7,0.9,1.6,0.9,1.6L59.6,49.3z M60.4,43c0,0-0.5-0.2-0.6-0.5s0.3-0.8,0.3-0.8l-0.6,0.2l0.3,1.3L60.4,43z M59,42
		c0,0,0.5,0.2,0.6,0.5s-0.3,0.8-0.3,0.8l0.6-0.2l-0.3-1.3L59,42z M60.8,44.8l1,0.9l0.5-0.4c0,0-0.6,0.1-0.9-0.1
		c-0.3-0.2-0.2-0.8-0.2-0.8L60.8,44.8z M61.8,45.7l-1-0.9l-0.5,0.4c0,0,0.6-0.1,0.9,0.1s0.2,0.8,0.2,0.8L61.8,45.7z M61.8,34.4
		c-0.6,0.3-0.8,1.1-0.5,1.7c0.3,0.6,1.1,0.8,1.7,0.5c0.6-0.3,0.8-1.1,0.5-1.7C63.1,34.2,62.4,34,61.8,34.4z M59.7,30.8
		c-0.6,0.3-0.8,1.1-0.5,1.7c0.3,0.6,1.1,0.8,1.7,0.5s0.8-1.1,0.5-1.7C61,30.6,60.3,30.4,59.7,30.8z M60.4,33.1c0,0,0.6,0.2,0.8,0.6
		s0.1,1,0.1,1l0.4-0.3l-1-1.7L60.4,33.1z M62.3,34.3c0,0-0.6-0.2-0.8-0.6s-0.1-1-0.1-1l-0.4,0.3l1,1.7L62.3,34.3z M61.3,32.2
		c0,0,0.7-0.7,1.6-1c0.9-0.3,1.6-0.1,1.6-0.1l0-0.5l-3.2,1L61.3,32.2z M64.6,30.1c0,0-0.7,0.7-1.6,1s-1.6,0.1-1.6,0.1l0,0.5l3.2-1
		L64.6,30.1z M59.7,32.6l-2.5,2.3l0.4,0.3c0,0,0.2-0.7,0.9-1.4c0.7-0.6,1.6-0.9,1.6-0.9L59.7,32.6z M57.1,34.9l2.5-2.3l-0.4-0.3
		c0,0-0.2,0.7-0.9,1.4c-0.7,0.6-1.6,0.9-1.6,0.9L57.1,34.9z M63.5,35.8c0,0,0.2-0.5,0.5-0.6c0.4-0.1,0.8,0.3,0.8,0.3l-0.2-0.6
		l-1.3,0.3L63.5,35.8z M64.5,34.3c0,0-0.2,0.5-0.5,0.6s-0.8-0.3-0.8-0.3l0.2,0.6l1.3-0.3L64.5,34.3z M61.7,36.1l-0.9,1l0.4,0.5
		c0,0-0.1-0.6,0.1-0.9c0.2-0.3,0.8-0.2,0.8-0.2L61.7,36.1z M60.8,37.1l0.9-1l-0.4-0.5c0,0,0.1,0.6-0.1,0.9c-0.2,0.3-0.8,0.2-0.8,0.2
		L60.8,37.1z M69.4,47.4c0.6-0.3,0.8-1.1,0.5-1.7s-1.1-0.8-1.7-0.5c-0.6,0.3-0.8,1.1-0.5,1.7C68,47.6,68.8,47.8,69.4,47.4z M71.5,51
		c0.6-0.3,0.8-1.1,0.5-1.7c-0.3-0.6-1.1-0.8-1.7-0.5c-0.6,0.3-0.8,1.1-0.5,1.7C70.1,51.2,70.9,51.4,71.5,51z M70.7,48.7
		c0,0-0.6-0.2-0.8-0.6c-0.3-0.5-0.1-1-0.1-1l-0.4,0.3l1,1.7L70.7,48.7z M68.9,47.5c0,0,0.6,0.2,0.8,0.6c0.3,0.5,0.1,1,0.1,1l0.4-0.3
		l-1-1.7L68.9,47.5z M69.8,49.6c0,0-0.7,0.7-1.6,1c-0.9,0.3-1.6,0.1-1.6,0.1l0,0.5l3.2-1L69.8,49.6z M66.6,51.7c0,0,0.7-0.7,1.6-1
		c0.9-0.3,1.6-0.1,1.6-0.1l0-0.5l-3.2,1L66.6,51.7z M71.5,49.2l2.5-2.3l-0.4-0.3c0,0-0.2,0.7-0.9,1.4c-0.7,0.6-1.6,0.9-1.6,0.9
		L71.5,49.2z M74,46.9l-2.5,2.3l0.4,0.3c0,0,0.2-0.7,0.9-1.4c0.7-0.6,1.6-0.9,1.6-0.9L74,46.9z M67.7,46c0,0-0.2,0.5-0.5,0.6
		c-0.4,0.1-0.8-0.3-0.8-0.3l0.2,0.6l1.3-0.3L67.7,46z M66.7,47.5c0,0,0.2-0.5,0.5-0.6c0.4-0.1,0.8,0.3,0.8,0.3l-0.2-0.6l-1.3,0.3
		L66.7,47.5z M69.5,45.7l0.9-1l-0.4-0.5c0,0,0.1,0.6-0.1,0.9S69,45.3,69,45.3L69.5,45.7z M70.4,44.7l-0.9,1l0.4,0.5
		c0,0-0.1-0.6,0.1-0.9c0.2-0.3,0.8-0.2,0.8-0.2L70.4,44.7z M65.6,48.4c0.7,0,1.2-0.6,1.2-1.2c0-0.7-0.6-1.2-1.2-1.2
		c-0.7,0-1.2,0.6-1.2,1.2C64.3,47.9,64.9,48.4,65.6,48.4z M65.6,52.6c0.7,0,1.2-0.6,1.2-1.2c0-0.7-0.6-1.2-1.2-1.2
		c-0.7,0-1.2,0.6-1.2,1.2C64.3,52,64.9,52.6,65.6,52.6z M66.1,50.2c0,0-0.4-0.4-0.4-1s0.4-1,0.4-1l-0.5,0v1.9H66.1z M65.1,48.3
		c0,0,0.4,0.4,0.4,1s-0.4,1-0.4,1l0.5,0v-1.9H65.1z M64.9,50.5c0,0-1,0.2-1.9,0c-0.9-0.2-1.5-0.7-1.5-0.7l-0.2,0.5l3.3,0.7
		L64.9,50.5z M61,50.8c0,0,1-0.2,1.9,0c0.9,0.2,1.5,0.7,1.5,0.7l0.2-0.5l-3.3-0.7L61,50.8z M66.5,51l3.3-0.7l-0.2-0.5
		c0,0-0.5,0.5-1.5,0.7c-0.9,0.2-1.9,0-1.9,0L66.5,51z M69.9,50.3L66.6,51l0.2,0.5c0,0,0.5-0.5,1.5-0.7s1.9,0,1.9,0L69.9,50.3z
		 M64.8,46.4c0,0-0.4,0.4-0.8,0.3c-0.4-0.1-0.5-0.7-0.5-0.7l-0.1,0.6l1.3,0.5L64.8,46.4z M63.2,47.2c0,0,0.4-0.4,0.8-0.3
		c0.4,0.1,0.5,0.7,0.5,0.7l0.1-0.6l-1.3-0.5L63.2,47.2z M66.5,47l1.3-0.5l-0.1-0.6c0,0-0.2,0.6-0.5,0.7c-0.4,0.1-0.8-0.3-0.8-0.3
		L66.5,47z M67.8,46.5L66.5,47l0.1,0.6c0,0,0.2-0.6,0.5-0.7s0.8,0.3,0.8,0.3L67.8,46.5z M58,40.9c0,0.7,0.6,1.2,1.2,1.2
		c0.7,0,1.2-0.6,1.2-1.2c0-0.7-0.6-1.2-1.2-1.2C58.6,39.7,58,40.2,58,40.9z M53.9,40.9c0,0.7,0.6,1.2,1.2,1.2c0.7,0,1.2-0.6,1.2-1.2
		c0-0.7-0.6-1.2-1.2-1.2C54.4,39.7,53.9,40.2,53.9,40.9z M56.2,41.4c0,0,0.4-0.4,1-0.4s1,0.4,1,0.4l0-0.5h-1.9V41.4z M58.2,40.4
		c0,0-0.4,0.4-1,0.4s-1-0.4-1-0.4l0,0.5h1.9V40.4z M55.9,40.2c0,0-0.2-1,0-1.9s0.7-1.5,0.7-1.5l-0.5-0.2l-0.7,3.3L55.9,40.2z
		 M55.7,36.3c0,0,0.2,1,0,1.9c-0.2,0.9-0.7,1.5-0.7,1.5l0.5,0.2l0.7-3.3L55.7,36.3z M55.5,41.9l0.7,3.3l0.5-0.2c0,0-0.5-0.5-0.7-1.5
		s0-1.9,0-1.9L55.5,41.9z M56.2,45.2l-0.7-3.3L55,42.1c0,0,0.5,0.5,0.7,1.5s0,1.9,0,1.9L56.2,45.2z M60.1,40.1c0,0-0.4-0.4-0.3-0.8
		c0.1-0.4,0.7-0.5,0.7-0.5l-0.6-0.1L59.4,40L60.1,40.1z M59.3,38.5c0,0,0.4,0.4,0.3,0.8c-0.1,0.4-0.7,0.5-0.7,0.5l0.6,0.1l0.5-1.3
		L59.3,38.5z M59.4,41.9l0.5,1.3l0.6-0.1c0,0-0.6-0.2-0.7-0.5c-0.1-0.4,0.3-0.8,0.3-0.8L59.4,41.9z M59.9,43.2l-0.5-1.3L58.8,42
		c0,0,0.6,0.2,0.7,0.5c0.1,0.4-0.3,0.8-0.3,0.8L59.9,43.2z M73.1,40.9c0-0.7-0.6-1.2-1.2-1.2s-1.2,0.6-1.2,1.2
		c0,0.7,0.6,1.2,1.2,1.2S73.1,41.6,73.1,40.9z M77.3,40.9c0-0.7-0.6-1.2-1.2-1.2s-1.2,0.6-1.2,1.2c0,0.7,0.6,1.2,1.2,1.2
		S77.3,41.6,77.3,40.9z M74.9,40.4c0,0-0.4,0.4-1,0.4s-1-0.4-1-0.4l0,0.5h1.9V40.4z M73,41.4c0,0,0.4-0.4,1-0.4s1,0.4,1,0.4l0-0.5
		H73V41.4z M75.2,41.6c0,0,0.2,1,0,1.9c-0.2,0.9-0.7,1.5-0.7,1.5l0.5,0.2l0.7-3.3L75.2,41.6z M75.4,45.5c0,0-0.2-1,0-1.9
		c0.2-0.9,0.7-1.5,0.7-1.5l-0.5-0.2l-0.7,3.3L75.4,45.5z M75.7,39.9L75,36.6l-0.5,0.2c0,0,0.5,0.5,0.7,1.5c0.2,0.9,0,1.9,0,1.9
		L75.7,39.9z M74.9,36.6l0.7,3.3l0.5-0.2c0,0-0.5-0.5-0.7-1.5c-0.2-0.9,0-1.9,0-1.9L74.9,36.6z M71.1,41.7c0,0,0.4,0.4,0.3,0.8
		c-0.1,0.4-0.7,0.5-0.7,0.5l0.6,0.1l0.5-1.3L71.1,41.7z M71.8,43.3c0,0-0.4-0.4-0.3-0.8c0.1-0.4,0.7-0.5,0.7-0.5l-0.6-0.1l-0.5,1.3
		L71.8,43.3z M71.7,39.9l-0.5-1.3l-0.6,0.1c0,0,0.6,0.2,0.7,0.5c0.1,0.4-0.3,0.8-0.3,0.8L71.7,39.9z M71.2,38.6l0.5,1.3l0.6-0.1
		c0,0-0.6-0.2-0.7-0.5c-0.1-0.4,0.3-0.8,0.3-0.8L71.2,38.6z"/>
	<path class="st1" d="M66.8,40.9c0,0.7-0.6,1.2-1.2,1.2c-0.7,0-1.2-0.6-1.2-1.2s0.6-1.2,1.2-1.2C66.2,39.6,66.8,40.2,66.8,40.9z
		 M65.6,33.4c-0.7,0-1.2,0.6-1.2,1.2c0,0.7,0.6,1.2,1.2,1.2c0.7,0,1.2-0.6,1.2-1.2C66.8,33.9,66.2,33.4,65.6,33.4z M65.6,29.2
		c-0.7,0-1.2,0.6-1.2,1.2s0.6,1.2,1.2,1.2c0.7,0,1.2-0.6,1.2-1.2S66.2,29.2,65.6,29.2z M65,31.6c0,0,0.4,0.4,0.4,1
		c0,0.5-0.4,1-0.4,1l0.5,0v-1.9H65z M66.1,33.5c0,0-0.4-0.4-0.4-1c0-0.5,0.4-1,0.4-1l-0.5,0v1.9H66.1z M66.3,31.3c0,0,1-0.2,1.9,0
		c0.9,0.2,1.5,0.7,1.5,0.7l0.2-0.5l-3.3-0.7L66.3,31.3z M70.1,31c0,0-1,0.2-1.9,0s-1.5-0.7-1.5-0.7l-0.2,0.5l3.3,0.7L70.1,31z
		 M64.6,30.8l-3.3,0.7l0.2,0.5c0,0,0.5-0.5,1.5-0.7c0.9-0.2,1.9,0,1.9,0L64.6,30.8z M61.3,31.5l3.3-0.7l-0.2-0.5
		c0,0-0.5,0.5-1.5,0.7C62,31.3,61,31,61,31L61.3,31.5z M66.3,35.4c0,0,0.4-0.4,0.8-0.3c0.4,0.1,0.5,0.7,0.5,0.7l0.1-0.6l-1.3-0.5
		L66.3,35.4z M67.9,34.6c0,0-0.4,0.4-0.8,0.3c-0.4-0.1-0.5-0.7-0.5-0.7l-0.1,0.6l1.3,0.5L67.9,34.6z M64.6,34.8l-1.3,0.5l0.1,0.6
		c0,0,0.2-0.6,0.5-0.7c0.4-0.1,0.8,0.3,0.8,0.3L64.6,34.8z M63.3,35.2l1.3-0.5l-0.1-0.6c0,0-0.2,0.6-0.5,0.7
		c-0.4,0.1-0.8-0.3-0.8-0.3L63.3,35.2z M69.3,34.3c-0.6-0.3-1.4-0.1-1.7,0.5c-0.3,0.6-0.1,1.4,0.5,1.7c0.6,0.3,1.4,0.1,1.7-0.5
		C70.1,35.4,69.9,34.7,69.3,34.3z M71.3,30.7c-0.6-0.3-1.4-0.1-1.7,0.5c-0.3,0.6-0.1,1.4,0.5,1.7c0.6,0.3,1.4,0.1,1.7-0.5
		C72.2,31.8,71.9,31.1,71.3,30.7z M69.7,32.5c0,0,0.1,0.6-0.1,1s-0.8,0.6-0.8,0.6l0.5,0.2l0.9-1.7L69.7,32.5z M69.6,34.7
		c0,0-0.1-0.6,0.1-1s0.8-0.6,0.8-0.6l-0.5-0.2l-0.9,1.7L69.6,34.7z M70.9,32.9c0,0,0.9,0.3,1.6,0.9c0.7,0.6,0.9,1.4,0.9,1.4l0.4-0.3
		l-2.5-2.3L70.9,32.9z M74.4,34.6c0,0-0.9-0.3-1.6-0.9c-0.7-0.6-0.9-1.4-0.9-1.4l-0.4,0.3l2.5,2.3L74.4,34.6z M69.7,31.6l-3.2-1
		l0,0.5c0,0,0.7-0.2,1.6,0.1c0.9,0.3,1.6,0.9,1.6,0.9L69.7,31.6z M66.5,30.6l3.2,1l0-0.5c0,0-0.7,0.2-1.6-0.1s-1.6-0.9-1.6-0.9
		L66.5,30.6z M68.9,36.5c0,0,0.5-0.1,0.8,0.2c0.2,0.3,0.1,0.9,0.1,0.9l0.4-0.5l-0.9-1L68.9,36.5z M70.7,36.6c0,0-0.5,0.1-0.8-0.2
		c-0.2-0.3-0.1-0.9-0.1-0.9l-0.4,0.5l0.9,1L70.7,36.6z M67.8,35.1l-1.3-0.2l-0.2,0.6c0,0,0.4-0.4,0.8-0.4c0.4,0.1,0.5,0.6,0.5,0.6
		L67.8,35.1z M66.4,34.9l1.3,0.2l0.2-0.6c0,0-0.4,0.4-0.8,0.4s-0.5-0.6-0.5-0.6L66.4,34.9z M61.8,47.5c0.6,0.3,1.4,0.1,1.7-0.5
		c0.3-0.6,0.1-1.4-0.5-1.7s-1.4-0.1-1.7,0.5S61.2,47.1,61.8,47.5z M59.8,51.1c0.6,0.3,1.4,0.1,1.7-0.5s0.1-1.4-0.5-1.7
		s-1.4-0.1-1.7,0.5C59,50,59.2,50.7,59.8,51.1z M61.4,49.3c0,0-0.1-0.6,0.1-1s0.8-0.6,0.8-0.6l-0.5-0.2L61,49L61.4,49.3z M61.5,47.1
		c0,0,0.1,0.6-0.1,1s-0.8,0.6-0.8,0.6L61,49l0.9-1.7L61.5,47.1z M60.2,48.9c0,0-0.9-0.3-1.6-0.9c-0.7-0.6-0.9-1.4-0.9-1.4L57.2,47
		l2.5,2.3L60.2,48.9z M56.7,47.2c0,0,0.9,0.3,1.6,0.9c0.7,0.6,0.9,1.4,0.9,1.4l0.4-0.3l-2.5-2.3L56.7,47.2z M61.4,50.2l3.2,1l0-0.5
		c0,0-0.7,0.2-1.6-0.1c-0.9-0.3-1.6-0.9-1.6-0.9L61.4,50.2z M64.7,51.2l-3.2-1l0,0.5c0,0,0.7-0.2,1.6,0.1c0.9,0.3,1.6,0.9,1.6,0.9
		L64.7,51.2z M62.2,45.3c0,0-0.5,0.1-0.8-0.2c-0.2-0.3-0.1-0.9-0.1-0.9l-0.4,0.5l0.9,1L62.2,45.3z M60.4,45.2c0,0,0.5-0.1,0.8,0.2
		c0.2,0.3,0.1,0.9,0.1,0.9l0.4-0.5l-0.9-1L60.4,45.2z M63.4,46.7l1.3,0.2l0.2-0.6c0,0-0.4,0.4-0.8,0.4c-0.4-0.1-0.5-0.6-0.5-0.6
		L63.4,46.7z M64.7,46.9l-1.3-0.2l-0.2,0.6c0,0,0.4-0.4,0.8-0.4c0.4,0.1,0.5,0.6,0.5,0.6L64.7,46.9z M59,37.2
		c-0.3,0.6-0.1,1.4,0.5,1.7c0.6,0.3,1.4,0.1,1.7-0.5s0.1-1.4-0.5-1.7C60.1,36.4,59.3,36.6,59,37.2z M55.4,35.1
		c-0.3,0.6-0.1,1.4,0.5,1.7s1.4,0.1,1.7-0.5c0.3-0.6,0.1-1.4-0.5-1.7S55.7,34.5,55.4,35.1z M57.2,36.7c0,0,0.6-0.1,1,0.1
		s0.6,0.8,0.6,0.8l0.2-0.5l-1.7-0.9L57.2,36.7z M59.4,36.8c0,0-0.6,0.1-1-0.1c-0.5-0.3-0.6-0.8-0.6-0.8l-0.2,0.5l1.7,0.9L59.4,36.8z
		 M57.5,35.5c0,0,0.3-0.9,0.9-1.6c0.6-0.7,1.4-0.9,1.4-0.9l-0.3-0.4l-2.3,2.5L57.5,35.5z M59.3,32.1c0,0-0.3,0.9-0.9,1.6
		S57,34.6,57,34.6l0.3,0.4l2.3-2.5L59.3,32.1z M56.3,36.7l-1,3.2l0.5,0c0,0-0.2-0.7,0.1-1.6c0.3-0.9,0.9-1.6,0.9-1.6L56.3,36.7z
		 M55.3,40l1-3.2l-0.5,0c0,0,0.2,0.7-0.1,1.6c-0.3,0.9-0.9,1.6-0.9,1.6L55.3,40z M61.2,37.5c0,0-0.1-0.5,0.2-0.8
		c0.3-0.2,0.9-0.1,0.9-0.1l-0.5-0.4l-1,0.9L61.2,37.5z M61.3,35.7c0,0,0.1,0.5-0.2,0.8c-0.3,0.2-0.9,0.1-0.9,0.1l0.5,0.4l1-0.9
		L61.3,35.7z M59.8,38.7L59.5,40l0.6,0.2c0,0-0.4-0.4-0.4-0.8c0.1-0.4,0.6-0.5,0.6-0.5L59.8,38.7z M59.5,40.1l0.2-1.3l-0.6-0.2
		c0,0,0.4,0.4,0.4,0.8c-0.1,0.4-0.6,0.5-0.6,0.5L59.5,40.1z M72.1,44.6c0.3-0.6,0.1-1.4-0.5-1.7c-0.6-0.3-1.4-0.1-1.7,0.5
		c-0.3,0.6-0.1,1.4,0.5,1.7C71,45.4,71.8,45.2,72.1,44.6z M75.7,46.7c0.3-0.6,0.1-1.4-0.5-1.7c-0.6-0.3-1.4-0.1-1.7,0.5
		c-0.3,0.6-0.1,1.4,0.5,1.7C74.6,47.5,75.4,47.3,75.7,46.7z M73.9,45.1c0,0-0.6,0.1-1-0.1c-0.5-0.3-0.6-0.8-0.6-0.8L72,44.6l1.7,0.9
		L73.9,45.1z M71.8,45c0,0,0.6-0.1,1,0.1c0.5,0.3,0.6,0.8,0.6,0.8l0.2-0.5L72,44.5L71.8,45z M73.6,46.3c0,0-0.3,0.9-0.9,1.6
		s-1.4,0.9-1.4,0.9l0.3,0.4l2.3-2.5L73.6,46.3z M71.9,49.7c0,0,0.3-0.9,0.9-1.6s1.4-0.9,1.4-0.9l-0.3-0.4l-2.3,2.5L71.9,49.7z
		 M74.8,45.1l1-3.2l-0.5,0c0,0,0.2,0.7-0.1,1.6c-0.3,0.9-0.9,1.6-0.9,1.6L74.8,45.1z M75.8,41.8l-1,3.2l0.5,0c0,0-0.2-0.7,0.1-1.6
		c0.3-0.9,0.9-1.6,0.9-1.6L75.8,41.8z M70,44.3c0,0,0.1,0.5-0.2,0.8c-0.3,0.2-0.9,0.1-0.9,0.1l0.5,0.4l1-0.9L70,44.3z M69.8,46.1
		c0,0-0.1-0.5,0.2-0.8c0.3-0.2,0.9-0.1,0.9-0.1l-0.5-0.4l-1,0.9L69.8,46.1z M71.4,43.1l0.2-1.3L71,41.6c0,0,0.4,0.4,0.4,0.8
		c-0.1,0.4-0.6,0.5-0.6,0.5L71.4,43.1z M71.6,41.7l-0.2,1.3l0.6,0.2c0,0-0.4-0.4-0.4-0.8c0.1-0.4,0.6-0.5,0.6-0.5L71.6,41.7z
		 M72.1,37.1c-0.3-0.6-1.1-0.8-1.7-0.5c-0.6,0.3-0.8,1.1-0.5,1.7c0.3,0.6,1.1,0.8,1.7,0.5C72.2,38.5,72.4,37.7,72.1,37.1z M75.7,35
		c-0.3-0.6-1.1-0.8-1.7-0.5c-0.6,0.3-0.8,1.1-0.5,1.7c0.3,0.6,1.1,0.8,1.7,0.5C75.8,36.4,76,35.6,75.7,35z M73.4,35.8
		c0,0-0.2,0.6-0.6,0.8c-0.5,0.3-1,0.1-1,0.1l0.3,0.4l1.7-1L73.4,35.8z M72.2,37.6c0,0,0.2-0.6,0.6-0.8c0.5-0.3,1-0.1,1-0.1l-0.3-0.4
		l-1.7,1L72.2,37.6z M74.2,36.7c0,0,0.7,0.7,1,1.6c0.3,0.9,0.1,1.6,0.1,1.6l0.5,0l-1-3.2L74.2,36.7z M76.4,39.9c0,0-0.7-0.7-1-1.6
		c-0.3-0.9-0.1-1.6-0.1-1.6l-0.5,0l1,3.2L76.4,39.9z M73.8,35l-2.3-2.5l-0.3,0.4c0,0,0.7,0.2,1.4,0.9s0.9,1.6,0.9,1.6L73.8,35z
		 M71.5,32.5l2.3,2.5l0.3-0.4c0,0-0.7-0.2-1.4-0.9c-0.6-0.7-0.9-1.6-0.9-1.6L71.5,32.5z M70.7,38.8c0,0,0.5,0.2,0.6,0.5
		S71,40.1,71,40.1l0.6-0.2l-0.3-1.3L70.7,38.8z M72.2,39.8c0,0-0.5-0.2-0.6-0.5s0.3-0.8,0.3-0.8l-0.6,0.2l0.3,1.3L72.2,39.8z
		 M70.4,37l-1-0.9l-0.5,0.4c0,0,0.6-0.1,0.9,0.1c0.3,0.2,0.2,0.8,0.2,0.8L70.4,37z M69.3,36.1l1,0.9l0.5-0.4c0,0-0.6,0.1-0.9-0.1
		c-0.3-0.2-0.2-0.8-0.2-0.8L69.3,36.1z M59,44.7c0.3,0.6,1.1,0.8,1.7,0.5c0.6-0.3,0.8-1.1,0.5-1.7s-1.1-0.8-1.7-0.5
		C58.9,43.3,58.7,44.1,59,44.7z M55.4,46.8c0.3,0.6,1.1,0.8,1.7,0.5c0.6-0.3,0.8-1.1,0.5-1.7c-0.3-0.6-1.1-0.8-1.7-0.5
		C55.3,45.4,55.1,46.2,55.4,46.8z M57.7,46c0,0,0.2-0.6,0.6-0.8c0.5-0.3,1-0.1,1-0.1l-0.3-0.4l-1.7,1L57.7,46z M58.9,44.2
		c0,0-0.2,0.6-0.6,0.8c-0.5,0.3-1,0.1-1,0.1l0.3,0.4l1.7-1L58.9,44.2z M56.9,45.1c0,0-0.7-0.7-1-1.6c-0.3-0.9-0.1-1.6-0.1-1.6
		l-0.5,0l1,3.2L56.9,45.1z M54.8,41.9c0,0,0.7,0.7,1,1.6c0.3,0.9,0.1,1.6,0.1,1.6l0.5,0l-1-3.2L54.8,41.9z M57.3,46.8l2.3,2.5
		l0.3-0.4c0,0-0.7-0.2-1.4-0.9c-0.6-0.7-0.9-1.6-0.9-1.6L57.3,46.8z M59.6,49.3l-2.3-2.5L57,47.3c0,0,0.7,0.2,1.4,0.9
		c0.6,0.7,0.9,1.6,0.9,1.6L59.6,49.3z M60.4,43c0,0-0.5-0.2-0.6-0.5s0.3-0.8,0.3-0.8l-0.6,0.2l0.3,1.3L60.4,43z M59,42
		c0,0,0.5,0.2,0.6,0.5s-0.3,0.8-0.3,0.8l0.6-0.2l-0.3-1.3L59,42z M60.8,44.8l1,0.9l0.5-0.4c0,0-0.6,0.1-0.9-0.1
		c-0.3-0.2-0.2-0.8-0.2-0.8L60.8,44.8z M61.8,45.7l-1-0.9l-0.5,0.4c0,0,0.6-0.1,0.9,0.1s0.2,0.8,0.2,0.8L61.8,45.7z M61.8,34.4
		c-0.6,0.3-0.8,1.1-0.5,1.7c0.3,0.6,1.1,0.8,1.7,0.5c0.6-0.3,0.8-1.1,0.5-1.7C63.1,34.2,62.4,34,61.8,34.4z M59.7,30.8
		c-0.6,0.3-0.8,1.1-0.5,1.7c0.3,0.6,1.1,0.8,1.7,0.5s0.8-1.1,0.5-1.7C61,30.6,60.3,30.4,59.7,30.8z M60.4,33.1c0,0,0.6,0.2,0.8,0.6
		s0.1,1,0.1,1l0.4-0.3l-1-1.7L60.4,33.1z M62.3,34.3c0,0-0.6-0.2-0.8-0.6s-0.1-1-0.1-1l-0.4,0.3l1,1.7L62.3,34.3z M61.3,32.2
		c0,0,0.7-0.7,1.6-1c0.9-0.3,1.6-0.1,1.6-0.1l0-0.5l-3.2,1L61.3,32.2z M64.6,30.1c0,0-0.7,0.7-1.6,1s-1.6,0.1-1.6,0.1l0,0.5l3.2-1
		L64.6,30.1z M59.7,32.6l-2.5,2.3l0.4,0.3c0,0,0.2-0.7,0.9-1.4c0.7-0.6,1.6-0.9,1.6-0.9L59.7,32.6z M57.1,34.9l2.5-2.3l-0.4-0.3
		c0,0-0.2,0.7-0.9,1.4c-0.7,0.6-1.6,0.9-1.6,0.9L57.1,34.9z M63.5,35.8c0,0,0.2-0.5,0.5-0.6c0.4-0.1,0.8,0.3,0.8,0.3l-0.2-0.6
		l-1.3,0.3L63.5,35.8z M64.5,34.3c0,0-0.2,0.5-0.5,0.6s-0.8-0.3-0.8-0.3l0.2,0.6l1.3-0.3L64.5,34.3z M61.7,36.1l-0.9,1l0.4,0.5
		c0,0-0.1-0.6,0.1-0.9c0.2-0.3,0.8-0.2,0.8-0.2L61.7,36.1z M60.8,37.1l0.9-1l-0.4-0.5c0,0,0.1,0.6-0.1,0.9c-0.2,0.3-0.8,0.2-0.8,0.2
		L60.8,37.1z M69.4,47.4c0.6-0.3,0.8-1.1,0.5-1.7s-1.1-0.8-1.7-0.5c-0.6,0.3-0.8,1.1-0.5,1.7C68,47.6,68.8,47.8,69.4,47.4z M71.5,51
		c0.6-0.3,0.8-1.1,0.5-1.7c-0.3-0.6-1.1-0.8-1.7-0.5c-0.6,0.3-0.8,1.1-0.5,1.7C70.1,51.2,70.9,51.4,71.5,51z M70.7,48.7
		c0,0-0.6-0.2-0.8-0.6c-0.3-0.5-0.1-1-0.1-1l-0.4,0.3l1,1.7L70.7,48.7z M68.9,47.5c0,0,0.6,0.2,0.8,0.6c0.3,0.5,0.1,1,0.1,1l0.4-0.3
		l-1-1.7L68.9,47.5z M69.8,49.6c0,0-0.7,0.7-1.6,1c-0.9,0.3-1.6,0.1-1.6,0.1l0,0.5l3.2-1L69.8,49.6z M66.6,51.7c0,0,0.7-0.7,1.6-1
		c0.9-0.3,1.6-0.1,1.6-0.1l0-0.5l-3.2,1L66.6,51.7z M71.5,49.2l2.5-2.3l-0.4-0.3c0,0-0.2,0.7-0.9,1.4c-0.7,0.6-1.6,0.9-1.6,0.9
		L71.5,49.2z M74,46.9l-2.5,2.3l0.4,0.3c0,0,0.2-0.7,0.9-1.4c0.7-0.6,1.6-0.9,1.6-0.9L74,46.9z M67.7,46c0,0-0.2,0.5-0.5,0.6
		c-0.4,0.1-0.8-0.3-0.8-0.3l0.2,0.6l1.3-0.3L67.7,46z M66.7,47.5c0,0,0.2-0.5,0.5-0.6c0.4-0.1,0.8,0.3,0.8,0.3l-0.2-0.6l-1.3,0.3
		L66.7,47.5z M69.5,45.7l0.9-1l-0.4-0.5c0,0,0.1,0.6-0.1,0.9S69,45.3,69,45.3L69.5,45.7z M70.4,44.7l-0.9,1l0.4,0.5
		c0,0-0.1-0.6,0.1-0.9c0.2-0.3,0.8-0.2,0.8-0.2L70.4,44.7z M65.6,48.4c0.7,0,1.2-0.6,1.2-1.2c0-0.7-0.6-1.2-1.2-1.2
		c-0.7,0-1.2,0.6-1.2,1.2C64.3,47.9,64.9,48.4,65.6,48.4z M65.6,52.6c0.7,0,1.2-0.6,1.2-1.2c0-0.7-0.6-1.2-1.2-1.2
		c-0.7,0-1.2,0.6-1.2,1.2C64.3,52,64.9,52.6,65.6,52.6z M66.1,50.2c0,0-0.4-0.4-0.4-1s0.4-1,0.4-1l-0.5,0v1.9H66.1z M65.1,48.3
		c0,0,0.4,0.4,0.4,1s-0.4,1-0.4,1l0.5,0v-1.9H65.1z M64.9,50.5c0,0-1,0.2-1.9,0c-0.9-0.2-1.5-0.7-1.5-0.7l-0.2,0.5l3.3,0.7
		L64.9,50.5z M61,50.8c0,0,1-0.2,1.9,0c0.9,0.2,1.5,0.7,1.5,0.7l0.2-0.5l-3.3-0.7L61,50.8z M66.5,51l3.3-0.7l-0.2-0.5
		c0,0-0.5,0.5-1.5,0.7c-0.9,0.2-1.9,0-1.9,0L66.5,51z M69.9,50.3L66.6,51l0.2,0.5c0,0,0.5-0.5,1.5-0.7s1.9,0,1.9,0L69.9,50.3z
		 M64.8,46.4c0,0-0.4,0.4-0.8,0.3c-0.4-0.1-0.5-0.7-0.5-0.7l-0.1,0.6l1.3,0.5L64.8,46.4z M63.2,47.2c0,0,0.4-0.4,0.8-0.3
		c0.4,0.1,0.5,0.7,0.5,0.7l0.1-0.6l-1.3-0.5L63.2,47.2z M66.5,47l1.3-0.5l-0.1-0.6c0,0-0.2,0.6-0.5,0.7c-0.4,0.1-0.8-0.3-0.8-0.3
		L66.5,47z M67.8,46.5L66.5,47l0.1,0.6c0,0,0.2-0.6,0.5-0.7s0.8,0.3,0.8,0.3L67.8,46.5z M58,40.9c0,0.7,0.6,1.2,1.2,1.2
		c0.7,0,1.2-0.6,1.2-1.2c0-0.7-0.6-1.2-1.2-1.2C58.6,39.7,58,40.2,58,40.9z M53.9,40.9c0,0.7,0.6,1.2,1.2,1.2c0.7,0,1.2-0.6,1.2-1.2
		c0-0.7-0.6-1.2-1.2-1.2C54.4,39.7,53.9,40.2,53.9,40.9z M56.2,41.4c0,0,0.4-0.4,1-0.4s1,0.4,1,0.4l0-0.5h-1.9V41.4z M58.2,40.4
		c0,0-0.4,0.4-1,0.4s-1-0.4-1-0.4l0,0.5h1.9V40.4z M55.9,40.2c0,0-0.2-1,0-1.9s0.7-1.5,0.7-1.5l-0.5-0.2l-0.7,3.3L55.9,40.2z
		 M55.7,36.3c0,0,0.2,1,0,1.9c-0.2,0.9-0.7,1.5-0.7,1.5l0.5,0.2l0.7-3.3L55.7,36.3z M55.5,41.9l0.7,3.3l0.5-0.2c0,0-0.5-0.5-0.7-1.5
		s0-1.9,0-1.9L55.5,41.9z M56.2,45.2l-0.7-3.3L55,42.1c0,0,0.5,0.5,0.7,1.5s0,1.9,0,1.9L56.2,45.2z M60.1,40.1c0,0-0.4-0.4-0.3-0.8
		c0.1-0.4,0.7-0.5,0.7-0.5l-0.6-0.1L59.4,40L60.1,40.1z M59.3,38.5c0,0,0.4,0.4,0.3,0.8c-0.1,0.4-0.7,0.5-0.7,0.5l0.6,0.1l0.5-1.3
		L59.3,38.5z M59.4,41.9l0.5,1.3l0.6-0.1c0,0-0.6-0.2-0.7-0.5c-0.1-0.4,0.3-0.8,0.3-0.8L59.4,41.9z M59.9,43.2l-0.5-1.3L58.8,42
		c0,0,0.6,0.2,0.7,0.5c0.1,0.4-0.3,0.8-0.3,0.8L59.9,43.2z M73.1,40.9c0-0.7-0.6-1.2-1.2-1.2s-1.2,0.6-1.2,1.2
		c0,0.7,0.6,1.2,1.2,1.2S73.1,41.6,73.1,40.9z M77.3,40.9c0-0.7-0.6-1.2-1.2-1.2s-1.2,0.6-1.2,1.2c0,0.7,0.6,1.2,1.2,1.2
		S77.3,41.6,77.3,40.9z M74.9,40.4c0,0-0.4,0.4-1,0.4s-1-0.4-1-0.4l0,0.5h1.9V40.4z M73,41.4c0,0,0.4-0.4,1-0.4s1,0.4,1,0.4l0-0.5
		H73V41.4z M75.2,41.6c0,0,0.2,1,0,1.9c-0.2,0.9-0.7,1.5-0.7,1.5l0.5,0.2l0.7-3.3L75.2,41.6z M75.4,45.5c0,0-0.2-1,0-1.9
		c0.2-0.9,0.7-1.5,0.7-1.5l-0.5-0.2l-0.7,3.3L75.4,45.5z M75.7,39.9L75,36.6l-0.5,0.2c0,0,0.5,0.5,0.7,1.5c0.2,0.9,0,1.9,0,1.9
		L75.7,39.9z M74.9,36.6l0.7,3.3l0.5-0.2c0,0-0.5-0.5-0.7-1.5c-0.2-0.9,0-1.9,0-1.9L74.9,36.6z M71.1,41.7c0,0,0.4,0.4,0.3,0.8
		c-0.1,0.4-0.7,0.5-0.7,0.5l0.6,0.1l0.5-1.3L71.1,41.7z M71.8,43.3c0,0-0.4-0.4-0.3-0.8c0.1-0.4,0.7-0.5,0.7-0.5l-0.6-0.1l-0.5,1.3
		L71.8,43.3z M71.7,39.9l-0.5-1.3l-0.6,0.1c0,0,0.6,0.2,0.7,0.5c0.1,0.4-0.3,0.8-0.3,0.8L71.7,39.9z M71.2,38.6l0.5,1.3l0.6-0.1
		c0,0-0.6-0.2-0.7-0.5c-0.1-0.4,0.3-0.8,0.3-0.8L71.2,38.6z"/>
	<g>
		<circle class="st5" cx="65.6" cy="40.9" r="1.2"/>
	</g>
	<g>
		<circle class="st5" cx="65.6" cy="34.6" r="1.2"/>
	</g>
	<g>
		<circle class="st5" cx="65.6" cy="30.4" r="1.2"/>
	</g>
	<path class="st5" d="M65.6,31.6v1.9l-0.5,0c0,0,0.4-0.4,0.4-1c0-0.5-0.4-1-0.4-1H65.6z"/>
	<path class="st5" d="M65.5,33.5v-1.9l0.5,0c0,0-0.4,0.4-0.4,1c0,0.5,0.4,1,0.4,1H65.5z"/>
	<path class="st5" d="M66.5,30.8l3.3,0.7L69.6,32c0,0-0.5-0.5-1.5-0.7c-0.9-0.2-1.9,0-1.9,0L66.5,30.8z"/>
	<path class="st5" d="M69.9,31.5l-3.3-0.7l0.2-0.5c0,0,0.5,0.5,1.5,0.7s1.9,0,1.9,0L69.9,31.5z"/>
	<path class="st5" d="M64.6,30.8l-3.3,0.7l0.2,0.5c0,0,0.5-0.5,1.5-0.7c0.9-0.2,1.9,0,1.9,0L64.6,30.8z"/>
	<path class="st5" d="M61.3,31.5l3.3-0.7l-0.2-0.5c0,0-0.5,0.5-1.5,0.7C62,31.3,61,31,61,31L61.3,31.5z"/>
	<g>
		<path class="st5" d="M66.5,34.8l1.3,0.5l-0.1,0.6c0,0-0.2-0.6-0.5-0.7c-0.4-0.1-0.8,0.3-0.8,0.3L66.5,34.8z"/>
	</g>
	<g>
		<path class="st5" d="M67.8,35.2l-1.3-0.5l0.1-0.6c0,0,0.2,0.6,0.5,0.7c0.4,0.1,0.8-0.3,0.8-0.3L67.8,35.2z"/>
	</g>
	<g>
		<path class="st5" d="M64.6,34.8l-1.3,0.5l0.1,0.6c0,0,0.2-0.6,0.5-0.7c0.4-0.1,0.8,0.3,0.8,0.3L64.6,34.8z"/>
	</g>
	<g>
		<path class="st5" d="M63.3,35.2l1.3-0.5l-0.1-0.6c0,0-0.2,0.6-0.5,0.7c-0.4,0.1-0.8-0.3-0.8-0.3L63.3,35.2z"/>
	</g>
	<g>
		<circle class="st5" cx="68.7" cy="35.4" r="1.2"/>
	</g>
	<g>
		<circle class="st5" cx="70.7" cy="31.8" r="1.2"/>
	</g>
	<path class="st5" d="M70.2,32.8l-0.9,1.7l-0.5-0.2c0,0,0.6-0.2,0.8-0.6s0.1-1,0.1-1L70.2,32.8z"/>
	<path class="st5" d="M69.2,34.5l0.9-1.7l0.5,0.2c0,0-0.6,0.2-0.8,0.6s-0.1,1-0.1,1L69.2,34.5z"/>
	<path class="st5" d="M71.4,32.6l2.5,2.3l-0.4,0.3c0,0-0.2-0.7-0.9-1.4c-0.7-0.6-1.6-0.9-1.6-0.9L71.4,32.6z"/>
	<path class="st5" d="M73.9,34.9l-2.5-2.3l0.4-0.3c0,0,0.2,0.7,0.9,1.4c0.7,0.6,1.6,0.9,1.6,0.9L73.9,34.9z"/>
	<path class="st5" d="M69.7,31.6l-3.2-1l0,0.5c0,0,0.7-0.2,1.6,0.1c0.9,0.3,1.6,0.9,1.6,0.9L69.7,31.6z"/>
	<path class="st5" d="M66.5,30.6l3.2,1l0-0.5c0,0-0.7,0.2-1.6-0.1s-1.6-0.9-1.6-0.9L66.5,30.6z"/>
	<g>
		<path class="st5" d="M69.4,36l0.9,1l-0.4,0.5c0,0,0.1-0.6-0.1-0.9c-0.2-0.3-0.8-0.2-0.8-0.2L69.4,36z"/>
	</g>
	<g>
		<path class="st5" d="M70.3,37.1l-0.9-1l0.4-0.5c0,0-0.1,0.6,0.1,0.9c0.2,0.3,0.8,0.2,0.8,0.2L70.3,37.1z"/>
	</g>
	<g>
		<path class="st5" d="M67.8,35.1l-1.3-0.2l-0.2,0.6c0,0,0.4-0.4,0.8-0.4c0.4,0.1,0.5,0.6,0.5,0.6L67.8,35.1z"/>
	</g>
	<g>
		<path class="st5" d="M66.4,34.9l1.3,0.2l0.2-0.6c0,0-0.4,0.4-0.8,0.4s-0.5-0.6-0.5-0.6L66.4,34.9z"/>
	</g>
	<g>
		<circle class="st5" cx="62.5" cy="46.4" r="1.2"/>
	</g>
	<g>
		<circle class="st5" cx="60.4" cy="50" r="1.2"/>
	</g>
	<path class="st5" d="M61,49l0.9-1.7l0.5,0.2c0,0-0.6,0.2-0.8,0.6s-0.1,1-0.1,1L61,49z"/>
	<path class="st5" d="M61.9,47.3L61,49l-0.5-0.2c0,0,0.6-0.2,0.8-0.6s0.1-1,0.1-1L61.9,47.3z"/>
	<path class="st5" d="M59.7,49.2L57.2,47l0.4-0.3c0,0,0.2,0.7,0.9,1.4c0.7,0.6,1.6,0.9,1.6,0.9L59.7,49.2z"/>
	<path class="st5" d="M57.2,46.9l2.5,2.3l-0.4,0.3c0,0-0.2-0.7-0.9-1.4c-0.7-0.6-1.6-0.9-1.6-0.9L57.2,46.9z"/>
	<path class="st5" d="M61.4,50.2l3.2,1l0-0.5c0,0-0.7,0.2-1.6-0.1c-0.9-0.3-1.6-0.9-1.6-0.9L61.4,50.2z"/>
	<path class="st5" d="M64.7,51.2l-3.2-1l0,0.5c0,0,0.7-0.2,1.6,0.1c0.9,0.3,1.6,0.9,1.6,0.9L64.7,51.2z"/>
	<g>
		<path class="st5" d="M61.7,45.8l-0.9-1l0.4-0.5c0,0-0.1,0.6,0.1,0.9c0.2,0.3,0.8,0.2,0.8,0.2L61.7,45.8z"/>
	</g>
	<g>
		<path class="st5" d="M60.9,44.7l0.9,1l-0.4,0.5c0,0,0.1-0.6-0.1-0.9c-0.2-0.3-0.8-0.2-0.8-0.2L60.9,44.7z"/>
	</g>
	<g>
		<path class="st5" d="M63.4,46.7l1.3,0.2l0.2-0.6c0,0-0.4,0.4-0.8,0.4c-0.4-0.1-0.5-0.6-0.5-0.6L63.4,46.7z"/>
	</g>
	<g>
		<path class="st5" d="M64.7,46.9l-1.3-0.2l-0.2,0.6c0,0,0.4-0.4,0.8-0.4c0.4,0.1,0.5,0.6,0.5,0.6L64.7,46.9z"/>
	</g>
	<g>
		<circle class="st5" cx="60.1" cy="37.8" r="1.2"/>
	</g>
	<g>
		<circle class="st5" cx="56.5" cy="35.7" r="1.2"/>
	</g>
	<path class="st5" d="M57.4,36.3l1.7,0.9l-0.2,0.5c0,0-0.2-0.6-0.6-0.8s-1-0.1-1-0.1L57.4,36.3z"/>
	<path class="st5" d="M59.1,37.3l-1.7-0.9l0.2-0.5c0,0,0.2,0.6,0.6,0.8c0.5,0.3,1,0.1,1,0.1L59.1,37.3z"/>
	<path class="st5" d="M57.2,35.1l2.3-2.5l0.3,0.4c0,0-0.7,0.2-1.4,0.9c-0.6,0.7-0.9,1.6-0.9,1.6L57.2,35.1z"/>
	<path class="st5" d="M59.5,32.5l-2.3,2.5L57,34.6c0,0,0.7-0.2,1.4-0.9s0.9-1.6,0.9-1.6L59.5,32.5z"/>
	<path class="st5" d="M56.3,36.7l-1,3.2l0.5,0c0,0-0.2-0.7,0.1-1.6c0.3-0.9,0.9-1.6,0.9-1.6L56.3,36.7z"/>
	<path class="st5" d="M55.3,40l1-3.2l-0.5,0c0,0,0.2,0.7-0.1,1.6c-0.3,0.9-0.9,1.6-0.9,1.6L55.3,40z"/>
	<g>
		<path class="st5" d="M60.7,37.1l1-0.9l0.5,0.4c0,0-0.6-0.1-0.9,0.1c-0.3,0.2-0.2,0.8-0.2,0.8L60.7,37.1z"/>
	</g>
	<g>
		<path class="st5" d="M61.7,36.2l-1,0.9l-0.5-0.4c0,0,0.6,0.1,0.9-0.1c0.3-0.2,0.2-0.8,0.2-0.8L61.7,36.2z"/>
	</g>
	<g>
		<path class="st5" d="M59.8,38.7L59.5,40l0.6,0.2c0,0-0.4-0.4-0.4-0.8c0.1-0.4,0.6-0.5,0.6-0.5L59.8,38.7z"/>
	</g>
	<g>
		<path class="st5" d="M59.5,40.1l0.2-1.3l-0.6-0.2c0,0,0.4,0.4,0.4,0.8c-0.1,0.4-0.6,0.5-0.6,0.5L59.5,40.1z"/>
	</g>
	<g>
		<circle class="st5" cx="71" cy="44" r="1.2"/>
	</g>
	<g>
		<circle class="st5" cx="74.7" cy="46.1" r="1.2"/>
	</g>
	<path class="st5" d="M73.7,45.5L72,44.6l0.2-0.5c0,0,0.2,0.6,0.6,0.8c0.5,0.3,1,0.1,1,0.1L73.7,45.5z"/>
	<path class="st5" d="M72,44.5l1.7,0.9l-0.2,0.5c0,0-0.2-0.6-0.6-0.8c-0.5-0.3-1-0.1-1-0.1L72,44.5z"/>
	<path class="st5" d="M73.9,46.7l-2.3,2.5l-0.3-0.4c0,0,0.7-0.2,1.4-0.9s0.9-1.6,0.9-1.6L73.9,46.7z"/>
	<path class="st5" d="M71.6,49.3l2.3-2.5l0.3,0.4c0,0-0.7,0.2-1.4,0.9s-0.9,1.6-0.9,1.6L71.6,49.3z"/>
	<path class="st5" d="M74.8,45.1l1-3.2l-0.5,0c0,0,0.2,0.7-0.1,1.6c-0.3,0.9-0.9,1.6-0.9,1.6L74.8,45.1z"/>
	<path class="st5" d="M75.8,41.8l-1,3.2l0.5,0c0,0-0.2-0.7,0.1-1.6c0.3-0.9,0.9-1.6,0.9-1.6L75.8,41.8z"/>
	<g>
		<path class="st5" d="M70.4,44.7l-1,0.9l-0.5-0.4c0,0,0.6,0.1,0.9-0.1c0.3-0.2,0.2-0.8,0.2-0.8L70.4,44.7z"/>
	</g>
	<g>
		<path class="st5" d="M69.4,45.6l1-0.9l0.5,0.4c0,0-0.6-0.1-0.9,0.1c-0.3,0.2-0.2,0.8-0.2,0.8L69.4,45.6z"/>
	</g>
	<g>
		<path class="st5" d="M71.4,43.1l0.2-1.3L71,41.6c0,0,0.4,0.4,0.4,0.8c-0.1,0.4-0.6,0.5-0.6,0.5L71.4,43.1z"/>
	</g>
	<g>
		<path class="st5" d="M71.6,41.7l-0.2,1.3l0.6,0.2c0,0-0.4-0.4-0.4-0.8c0.1-0.4,0.6-0.5,0.6-0.5L71.6,41.7z"/>
	</g>
	<g>
		<circle class="st5" cx="71" cy="37.7" r="1.2"/>
	</g>
	<g>
		<circle class="st5" cx="74.6" cy="35.6" r="1.2"/>
	</g>
	<path class="st5" d="M73.6,36.2l-1.7,1l-0.3-0.4c0,0,0.6,0.1,1-0.1c0.5-0.3,0.6-0.8,0.6-0.8L73.6,36.2z"/>
	<path class="st5" d="M72,37.2l1.7-1l0.3,0.4c0,0-0.6-0.1-1,0.1c-0.5,0.3-0.6,0.8-0.6,0.8L72,37.2z"/>
	<path class="st5" d="M74.8,36.7l1,3.2l-0.5,0c0,0,0.2-0.7-0.1-1.6c-0.3-0.9-1-1.6-1-1.6L74.8,36.7z"/>
	<path class="st5" d="M75.8,39.9l-1-3.2l0.5,0c0,0-0.2,0.7,0.1,1.6c0.3,0.9,1,1.6,1,1.6L75.8,39.9z"/>
	<path class="st5" d="M73.8,35l-2.3-2.5l-0.3,0.4c0,0,0.7,0.2,1.4,0.9s0.9,1.6,0.9,1.6L73.8,35z"/>
	<path class="st5" d="M71.5,32.5l2.3,2.5l0.3-0.4c0,0-0.7-0.2-1.4-0.9c-0.6-0.7-0.9-1.6-0.9-1.6L71.5,32.5z"/>
	<g>
		<path class="st5" d="M71.3,38.6l0.3,1.3L71,40.1c0,0,0.4-0.4,0.3-0.8s-0.6-0.5-0.6-0.5L71.3,38.6z"/>
	</g>
	<g>
		<path class="st5" d="M71.6,40l-0.3-1.3l0.6-0.2c0,0-0.4,0.4-0.3,0.8s0.6,0.5,0.6,0.5L71.6,40z"/>
	</g>
	<g>
		<path class="st5" d="M70.4,37l-1-0.9l-0.5,0.4c0,0,0.6-0.1,0.9,0.1c0.3,0.2,0.2,0.8,0.2,0.8L70.4,37z"/>
	</g>
	<g>
		<path class="st5" d="M69.3,36.1l1,0.9l0.5-0.4c0,0-0.6,0.1-0.9-0.1c-0.3-0.2-0.2-0.8-0.2-0.8L69.3,36.1z"/>
	</g>
	<g>
		<circle class="st5" cx="60.1" cy="44.1" r="1.2"/>
	</g>
	<g>
		<circle class="st5" cx="56.5" cy="46.2" r="1.2"/>
	</g>
	<path class="st5" d="M57.5,45.6l1.7-1l0.3,0.4c0,0-0.6-0.1-1,0.1c-0.5,0.3-0.6,0.8-0.6,0.8L57.5,45.6z"/>
	<path class="st5" d="M59.2,44.6l-1.7,1l-0.3-0.4c0,0,0.6,0.1,1-0.1c0.5-0.3,0.6-0.8,0.6-0.8L59.2,44.6z"/>
	<path class="st5" d="M56.3,45.1l-1-3.2l0.5,0c0,0-0.2,0.7,0.1,1.6c0.3,0.9,1,1.6,1,1.6L56.3,45.1z"/>
	<path class="st5" d="M55.3,41.9l1,3.2l-0.5,0c0,0,0.2-0.7-0.1-1.6c-0.3-0.9-1-1.6-1-1.6L55.3,41.9z"/>
	<path class="st5" d="M57.3,46.8l2.3,2.5l0.3-0.4c0,0-0.7-0.2-1.4-0.9c-0.6-0.7-0.9-1.6-0.9-1.6L57.3,46.8z"/>
	<path class="st5" d="M59.6,49.3l-2.3-2.5L57,47.3c0,0,0.7,0.2,1.4,0.9c0.6,0.7,0.9,1.6,0.9,1.6L59.6,49.3z"/>
	<g>
		<path class="st5" d="M59.8,43.2l-0.3-1.3l0.6-0.2c0,0-0.4,0.4-0.3,0.8s0.6,0.5,0.6,0.5L59.8,43.2z"/>
	</g>
	<g>
		<path class="st5" d="M59.6,41.8l0.3,1.3l-0.6,0.2c0,0,0.4-0.4,0.3-0.8S59,42,59,42L59.6,41.8z"/>
	</g>
	<g>
		<path class="st5" d="M60.8,44.8l1,0.9l0.5-0.4c0,0-0.6,0.1-0.9-0.1c-0.3-0.2-0.2-0.8-0.2-0.8L60.8,44.8z"/>
	</g>
	<g>
		<path class="st5" d="M61.8,45.7l-1-0.9l-0.5,0.4c0,0,0.6-0.1,0.9,0.1s0.2,0.8,0.2,0.8L61.8,45.7z"/>
	</g>
	<g>
		<circle class="st5" cx="62.4" cy="35.5" r="1.2"/>
	</g>
	<g>
		<circle class="st5" cx="60.3" cy="31.9" r="1.2"/>
	</g>
	<path class="st5" d="M60.9,32.8l1,1.7l-0.4,0.3c0,0,0.1-0.6-0.1-1s-0.8-0.6-0.8-0.6L60.9,32.8z"/>
	<path class="st5" d="M61.8,34.5l-1-1.7l0.4-0.3c0,0-0.1,0.6,0.1,1s0.8,0.6,0.8,0.6L61.8,34.5z"/>
	<path class="st5" d="M61.3,31.7l3.2-1l0,0.5c0,0-0.7-0.2-1.6,0.1c-0.9,0.3-1.6,1-1.6,1L61.3,31.7z"/>
	<path class="st5" d="M64.6,30.6l-3.2,1l0-0.5c0,0,0.7,0.2,1.6-0.1s1.6-1,1.6-1L64.6,30.6z"/>
	<path class="st5" d="M59.7,32.6l-2.5,2.3l0.4,0.3c0,0,0.2-0.7,0.9-1.4c0.7-0.6,1.6-0.9,1.6-0.9L59.7,32.6z"/>
	<path class="st5" d="M57.1,34.9l2.5-2.3l-0.4-0.3c0,0-0.2,0.7-0.9,1.4c-0.7,0.6-1.6,0.9-1.6,0.9L57.1,34.9z"/>
	<g>
		<path class="st5" d="M63.3,35.1l1.3-0.3l0.2,0.6c0,0-0.4-0.4-0.8-0.3c-0.4,0.1-0.5,0.6-0.5,0.6L63.3,35.1z"/>
	</g>
	<g>
		<path class="st5" d="M64.6,34.9l-1.3,0.3l-0.2-0.6c0,0,0.4,0.4,0.8,0.3s0.5-0.6,0.5-0.6L64.6,34.9z"/>
	</g>
	<g>
		<path class="st5" d="M61.7,36.1l-0.9,1l0.4,0.5c0,0-0.1-0.6,0.1-0.9c0.2-0.3,0.8-0.2,0.8-0.2L61.7,36.1z"/>
	</g>
	<g>
		<path class="st5" d="M60.8,37.1l0.9-1l-0.4-0.5c0,0,0.1,0.6-0.1,0.9c-0.2,0.3-0.8,0.2-0.8,0.2L60.8,37.1z"/>
	</g>
	<g>
		<circle class="st5" cx="68.7" cy="46.3" r="1.2"/>
	</g>
	<g>
		<circle class="st5" cx="70.8" cy="49.9" r="1.2"/>
	</g>
	<path class="st5" d="M70.3,49l-1-1.7l0.4-0.3c0,0-0.1,0.6,0.1,1c0.3,0.5,0.8,0.6,0.8,0.6L70.3,49z"/>
	<path class="st5" d="M69.3,47.3l1,1.7l-0.4,0.3c0,0,0.1-0.6-0.1-1c-0.3-0.5-0.8-0.6-0.8-0.6L69.3,47.3z"/>
	<path class="st5" d="M69.8,50.1l-3.2,1l0-0.5c0,0,0.7,0.2,1.6-0.1c0.9-0.3,1.6-1,1.6-1L69.8,50.1z"/>
	<path class="st5" d="M66.6,51.2l3.2-1l0,0.5c0,0-0.7-0.2-1.6,0.1c-0.9,0.3-1.6,1-1.6,1L66.6,51.2z"/>
	<path class="st5" d="M71.5,49.2l2.5-2.3l-0.4-0.3c0,0-0.2,0.7-0.9,1.4c-0.7,0.6-1.6,0.9-1.6,0.9L71.5,49.2z"/>
	<path class="st5" d="M74,46.9l-2.5,2.3l0.4,0.3c0,0,0.2-0.7,0.9-1.4c0.7-0.6,1.6-0.9,1.6-0.9L74,46.9z"/>
	<g>
		<path class="st5" d="M67.8,46.7l-1.3,0.3l-0.2-0.6c0,0,0.4,0.4,0.8,0.3c0.4-0.1,0.5-0.6,0.5-0.6L67.8,46.7z"/>
	</g>
	<g>
		<path class="st5" d="M66.5,46.9l1.3-0.3l0.2,0.6c0,0-0.4-0.4-0.8-0.3c-0.4,0.1-0.5,0.6-0.5,0.6L66.5,46.9z"/>
	</g>
	<g>
		<path class="st5" d="M69.5,45.7l0.9-1l-0.4-0.5c0,0,0.1,0.6-0.1,0.9S69,45.3,69,45.3L69.5,45.7z"/>
	</g>
	<g>
		<path class="st5" d="M70.4,44.7l-0.9,1l0.4,0.5c0,0-0.1-0.6,0.1-0.9c0.2-0.3,0.8-0.2,0.8-0.2L70.4,44.7z"/>
	</g>
	<g>
		<circle class="st5" cx="65.6" cy="47.2" r="1.2"/>
	</g>
	<g>
		<circle class="st5" cx="65.6" cy="51.4" r="1.2"/>
	</g>
	<path class="st5" d="M65.6,50.2v-1.9l0.5,0c0,0-0.4,0.4-0.4,1s0.4,1,0.4,1H65.6z"/>
	<path class="st5" d="M65.6,48.3v1.9l-0.5,0c0,0,0.4-0.4,0.4-1s-0.4-1-0.4-1H65.6z"/>
	<path class="st5" d="M64.6,51l-3.3-0.7l0.2-0.5c0,0,0.5,0.5,1.5,0.7c0.9,0.2,1.9,0,1.9,0L64.6,51z"/>
	<path class="st5" d="M61.3,50.3l3.3,0.7l-0.2,0.5c0,0-0.5-0.5-1.5-0.7c-0.9-0.2-1.9,0-1.9,0L61.3,50.3z"/>
	<path class="st5" d="M66.5,51l3.3-0.7l-0.2-0.5c0,0-0.5,0.5-1.5,0.7c-0.9,0.2-1.9,0-1.9,0L66.5,51z"/>
	<path class="st5" d="M69.9,50.3L66.6,51l0.2,0.5c0,0,0.5-0.5,1.5-0.7s1.9,0,1.9,0L69.9,50.3z"/>
	<g>
		<path class="st5" d="M64.7,47l-1.3-0.5l0.1-0.6c0,0,0.2,0.6,0.5,0.7c0.4,0.1,0.8-0.3,0.8-0.3L64.7,47z"/>
	</g>
	<g>
		<path class="st5" d="M63.4,46.5l1.3,0.5l-0.1,0.6c0,0-0.2-0.6-0.5-0.7c-0.4-0.1-0.8,0.3-0.8,0.3L63.4,46.5z"/>
	</g>
	<g>
		<path class="st5" d="M66.5,47l1.3-0.5l-0.1-0.6c0,0-0.2,0.6-0.5,0.7c-0.4,0.1-0.8-0.3-0.8-0.3L66.5,47z"/>
	</g>
	<g>
		<path class="st5" d="M67.8,46.5L66.5,47l0.1,0.6c0,0,0.2-0.6,0.5-0.7s0.8,0.3,0.8,0.3L67.8,46.5z"/>
	</g>
	<g>
		<circle class="st5" cx="59.3" cy="40.9" r="1.2"/>
	</g>
	<g>
		<circle class="st5" cx="55.1" cy="40.9" r="1.2"/>
	</g>
	<path class="st5" d="M56.2,40.9h1.9l0,0.5c0,0-0.4-0.4-1-0.4s-1,0.4-1,0.4V40.9z"/>
	<path class="st5" d="M58.2,40.9h-1.9l0-0.5c0,0,0.4,0.4,1,0.4s1-0.4,1-0.4V40.9z"/>
	<path class="st5" d="M55.5,39.9l0.7-3.3l0.5,0.2c0,0-0.5,0.5-0.7,1.5s0,1.9,0,1.9L55.5,39.9z"/>
	<path class="st5" d="M56.2,36.6l-0.7,3.3L55,39.7c0,0,0.5-0.5,0.7-1.5c0.2-0.9,0-1.9,0-1.9L56.2,36.6z"/>
	<path class="st5" d="M55.5,41.9l0.7,3.3l0.5-0.2c0,0-0.5-0.5-0.7-1.5s0-1.9,0-1.9L55.5,41.9z"/>
	<path class="st5" d="M56.2,45.2l-0.7-3.3L55,42.1c0,0,0.5,0.5,0.7,1.5s0,1.9,0,1.9L56.2,45.2z"/>
	<g>
		<path class="st5" d="M59.4,40l0.5-1.3l0.6,0.1c0,0-0.6,0.2-0.7,0.5c-0.1,0.4,0.3,0.8,0.3,0.8L59.4,40z"/>
	</g>
	<g>
		<path class="st5" d="M59.9,38.7L59.5,40l-0.6-0.1c0,0,0.6-0.2,0.7-0.5c0.1-0.4-0.3-0.8-0.3-0.8L59.9,38.7z"/>
	</g>
	<g>
		<path class="st5" d="M59.4,41.9l0.5,1.3l0.6-0.1c0,0-0.6-0.2-0.7-0.5c-0.1-0.4,0.3-0.8,0.3-0.8L59.4,41.9z"/>
	</g>
	<g>
		<path class="st5" d="M59.9,43.2l-0.5-1.3L58.8,42c0,0,0.6,0.2,0.7,0.5c0.1,0.4-0.3,0.8-0.3,0.8L59.9,43.2z"/>
	</g>
	<g>
		<circle class="st5" cx="71.9" cy="40.9" r="1.2"/>
	</g>
	<g>
		<circle class="st5" cx="76" cy="40.9" r="1.2"/>
	</g>
	<path class="st5" d="M74.9,40.9H73l0-0.5c0,0,0.4,0.4,1,0.4s1-0.4,1-0.4V40.9z"/>
	<path class="st5" d="M73,40.9h1.9l0,0.5c0,0-0.4-0.4-1-0.4s-1,0.4-1,0.4V40.9z"/>
	<path class="st5" d="M75.7,41.9L75,45.2l-0.5-0.2c0,0,0.5-0.5,0.7-1.5c0.2-0.9,0-1.9,0-1.9L75.7,41.9z"/>
	<path class="st5" d="M74.9,45.2l0.7-3.3l0.5,0.2c0,0-0.5,0.5-0.7,1.5c-0.2,0.9,0,1.9,0,1.9L74.9,45.2z"/>
	<path class="st5" d="M75.7,39.9L75,36.6l-0.5,0.2c0,0,0.5,0.5,0.7,1.5c0.2,0.9,0,1.9,0,1.9L75.7,39.9z"/>
	<path class="st5" d="M74.9,36.6l0.7,3.3l0.5-0.2c0,0-0.5-0.5-0.7-1.5c-0.2-0.9,0-1.9,0-1.9L74.9,36.6z"/>
	<g>
		<path class="st5" d="M71.7,41.8l-0.5,1.3L70.6,43c0,0,0.6-0.2,0.7-0.5c0.1-0.4-0.3-0.8-0.3-0.8L71.7,41.8z"/>
	</g>
	<g>
		<path class="st5" d="M71.2,43.1l0.5-1.3l0.6,0.1c0,0-0.6,0.2-0.7,0.5c-0.1,0.4,0.3,0.8,0.3,0.8L71.2,43.1z"/>
	</g>
	<g>
		<path class="st5" d="M71.7,39.9l-0.5-1.3l-0.6,0.1c0,0,0.6,0.2,0.7,0.5c0.1,0.4-0.3,0.8-0.3,0.8L71.7,39.9z"/>
	</g>
	<g>
		<path class="st5" d="M71.2,38.6l0.5,1.3l0.6-0.1c0,0-0.6-0.2-0.7-0.5c-0.1-0.4,0.3-0.8,0.3-0.8L71.2,38.6z"/>
	</g>
</g>
</svg>
