<?xml version="1.0" encoding="utf-8"?>
<!-- Generator: Adobe Illustrator 23.0.3, SVG Export Plug-In . SVG Version: 6.00 Build 0)  -->
<svg version="1.1" id="Layer_1" xmlns="http://www.w3.org/2000/svg" xmlns:xlink="http://www.w3.org/1999/xlink" x="0px" y="0px"
	 viewBox="0 0 48.2 48.2" style="enable-background:new 0 0 48.2 48.2;" xml:space="preserve">
<style type="text/css">
	.st0{opacity:0.25;fill:none;stroke:#FF6B00;stroke-width:11.3386;stroke-linejoin:round;stroke-miterlimit:10;}
	.st1{fill:none;stroke:#FFFFFF;stroke-width:5.6693;stroke-linejoin:round;stroke-miterlimit:10;}
	.st2{fill:#FFFFFF;}
	.st3{fill:#FF6B00;}
</style>
<path class="st0" d="M26.1,24c0,1.1-0.9,2-2,2s-2-0.9-2-2s0.9-2,2-2S26.1,23,26.1,24z M24.1,12.2c-1.1,0-2,0.9-2,2s0.9,2,2,2
	s2-0.9,2-2S25.2,12.2,24.1,12.2z M24.1,5.7c-1.1,0-2,0.9-2,2s0.9,2,2,2s2-0.9,2-2S25.2,5.7,24.1,5.7z M23.3,9.4c0,0,0.6,0.7,0.6,1.5
	c0,0.8-0.6,1.5-0.6,1.5l0.8,0v-3H23.3z M24.9,12.4c0,0-0.6-0.7-0.6-1.5c0-0.8,0.6-1.5,0.6-1.5l-0.8,0v3H24.9z M25.2,8.9
	c0,0,1.5-0.3,3,0c1.4,0.3,2.3,1.2,2.3,1.2l0.4-0.8l-5.2-1.1L25.2,8.9z M31.3,8.6c0,0-1.5,0.3-3,0C26.9,8.3,26,7.4,26,7.4l-0.4,0.8
	l5.2,1.1L31.3,8.6z M22.6,8.2l-5.2,1.1l0.4,0.8c0,0,0.9-0.8,2.3-1.2c1.4-0.3,3,0,3,0L22.6,8.2z M17.3,9.3l5.2-1.1l-0.4-0.8
	c0,0-0.9,0.8-2.3,1.2c-1.4,0.3-3,0-3,0L17.3,9.3z M25.3,15.4c0,0,0.7-0.6,1.2-0.4c0.6,0.2,0.8,1.1,0.8,1.1l0.2-1l-2-0.7L25.3,15.4z
	 M27.8,14.2c0,0-0.7,0.6-1.2,0.4c-0.6-0.2-0.8-1.1-0.8-1.1l-0.2,1l2,0.7L27.8,14.2z M22.6,14.5l-2,0.7l0.2,1c0,0,0.3-0.9,0.8-1.1
	c0.6-0.2,1.2,0.4,1.2,0.4L22.6,14.5z M20.6,15.2l2-0.7l-0.2-1c0,0-0.3,0.9-0.8,1.1c-0.6,0.2-1.2-0.4-1.2-0.4L20.6,15.2z M30,13.8
	c-0.9-0.5-2.1-0.2-2.7,0.7c-0.5,0.9-0.2,2.1,0.7,2.7c0.9,0.5,2.1,0.2,2.7-0.7C31.2,15.5,30.9,14.3,30,13.8z M33.2,8.1
	c-0.9-0.5-2.1-0.2-2.7,0.7c-0.5,0.9-0.2,2.1,0.7,2.7c0.9,0.5,2.1,0.2,2.7-0.7C34.5,9.8,34.2,8.6,33.2,8.1z M30.7,10.9
	c0,0,0.2,0.9-0.2,1.6c-0.4,0.7-1.3,1-1.3,1l0.7,0.4l1.5-2.6L30.7,10.9z M30.6,14.4c0,0-0.2-0.9,0.2-1.6c0.4-0.7,1.3-1,1.3-1
	l-0.7-0.4L29.8,14L30.6,14.4z M32.6,11.5c0,0,1.5,0.5,2.6,1.4c1.1,1,1.4,2.1,1.4,2.1l0.7-0.5l-4-3.6L32.6,11.5z M38,14.2
	c0,0-1.5-0.5-2.6-1.4S34,10.6,34,10.6l-0.7,0.5l4,3.6L38,14.2z M30.7,9.5l-5.1-1.6l-0.1,0.8c0,0,1.2-0.3,2.6,0.1
	c1.4,0.4,2.6,1.5,2.6,1.5L30.7,9.5z M25.5,7.9l5.1,1.6l0.1-0.8c0,0-1.2,0.3-2.6-0.1c-1.4-0.4-2.6-1.5-2.6-1.5L25.5,7.9z M29.4,17.2
	c0,0,0.9-0.2,1.3,0.3s0.2,1.4,0.2,1.4l0.7-0.7l-1.4-1.6L29.4,17.2z M32.2,17.4c0,0-0.9,0.2-1.3-0.3s-0.2-1.4-0.2-1.4l-0.7,0.7
	l1.4,1.6L32.2,17.4z M27.6,15l-2.1-0.4l-0.3,1c0,0,0.7-0.7,1.3-0.6c0.6,0.1,0.9,0.9,0.9,0.9L27.6,15z M25.4,14.6l2.1,0.4l0.3-1
	c0,0-0.7,0.7-1.3,0.6c-0.6-0.1-0.9-0.9-0.9-0.9L25.4,14.6z M18.3,34.4c0.9,0.5,2.1,0.2,2.7-0.7s0.2-2.1-0.7-2.7
	c-0.9-0.5-2.1-0.2-2.7,0.7C17,32.7,17.3,33.9,18.3,34.4z M15,40.2c0.9,0.5,2.1,0.2,2.7-0.7c0.5-0.9,0.2-2.1-0.7-2.7
	c-0.9-0.5-2.1-0.2-2.7,0.7C13.7,38.4,14.1,39.6,15,40.2z M17.6,37.3c0,0-0.2-0.9,0.2-1.6c0.4-0.7,1.3-1,1.3-1l-0.7-0.4l-1.5,2.6
	L17.6,37.3z M17.7,33.9c0,0,0.2,0.9-0.2,1.6c-0.4,0.7-1.3,1-1.3,1l0.7,0.4l1.5-2.6L17.7,33.9z M15.7,36.8c0,0-1.5-0.5-2.6-1.4
	s-1.4-2.1-1.4-2.1L11,33.7l4,3.6L15.7,36.8z M10.2,34.1c0,0,1.5,0.5,2.6,1.4s1.4,2.1,1.4,2.1l0.7-0.5l-4-3.6L10.2,34.1z M17.6,38.7
	l5.1,1.6l0.1-0.8c0,0-1.2,0.3-2.6-0.1s-2.6-1.5-2.6-1.5L17.6,38.7z M22.7,40.3l-5.1-1.6l-0.1,0.8c0,0,1.2-0.3,2.6,0.1
	s2.6,1.5,2.6,1.5L22.7,40.3z M18.8,31.1c0,0-0.9,0.2-1.3-0.3s-0.2-1.4-0.2-1.4l-0.7,0.7l1.4,1.6L18.8,31.1z M16,30.9
	c0,0,0.9-0.2,1.3,0.3c0.4,0.4,0.2,1.4,0.2,1.4l0.7-0.7l-1.4-1.6L16,30.9z M20.7,33.2l2.1,0.4l0.3-1c0,0-0.7,0.7-1.3,0.6
	c-0.6-0.1-0.9-0.9-0.9-0.9L20.7,33.2z M22.8,33.6l-2.1-0.4l-0.3,1c0,0,0.7-0.7,1.3-0.6c0.6,0.1,0.9,0.9,0.9,0.9L22.8,33.6z
	 M13.8,18.3c-0.5,0.9-0.2,2.1,0.7,2.7c0.9,0.5,2.1,0.2,2.7-0.7s0.2-2.1-0.7-2.7C15.5,17,14.3,17.3,13.8,18.3z M8.1,15
	c-0.5,0.9-0.2,2.1,0.7,2.7c0.9,0.5,2.1,0.2,2.7-0.7s0.2-2.1-0.7-2.7C9.8,13.7,8.6,14.1,8.1,15z M10.9,17.6c0,0,0.9-0.2,1.6,0.2
	c0.7,0.4,1,1.3,1,1.3l0.4-0.7l-2.6-1.5L10.9,17.6z M14.4,17.7c0,0-0.9,0.2-1.6-0.2c-0.7-0.4-1-1.3-1-1.3l-0.4,0.7l2.6,1.5L14.4,17.7
	z M11.5,15.7c0,0,0.5-1.5,1.4-2.6s2.1-1.4,2.1-1.4L14.6,11l-3.6,4L11.5,15.7z M14.2,10.2c0,0-0.5,1.5-1.4,2.6s-2.1,1.4-2.1,1.4
	l0.5,0.7l3.6-4L14.2,10.2z M9.5,17.6l-1.6,5.1l0.8,0.1c0,0-0.3-1.2,0.1-2.6s1.5-2.6,1.5-2.6L9.5,17.6z M7.9,22.7l1.6-5.1l-0.8-0.1
	c0,0,0.3,1.2-0.1,2.6s-1.5,2.6-1.5,2.6L7.9,22.7z M17.2,18.8c0,0-0.2-0.9,0.3-1.3s1.4-0.2,1.4-0.2l-0.7-0.7l-1.6,1.4L17.2,18.8z
	 M17.4,16c0,0,0.2,0.9-0.3,1.3s-1.4,0.2-1.4,0.2l0.7,0.7l1.6-1.4L17.4,16z M15,20.7l-0.4,2.1l1,0.3c0,0-0.7-0.7-0.6-1.3
	c0.1-0.6,0.9-0.9,0.9-0.9L15,20.7z M14.6,22.8l0.4-2.1l-1-0.3c0,0,0.7,0.7,0.6,1.3c-0.1,0.6-0.9,0.9-0.9,0.9L14.6,22.8z M34.4,30
	c0.5-0.9,0.2-2.1-0.7-2.7c-0.9-0.5-2.1-0.2-2.7,0.7c-0.5,0.9-0.2,2.1,0.7,2.7S33.9,30.9,34.4,30z M40.2,33.2
	c0.5-0.9,0.2-2.1-0.7-2.7c-0.9-0.5-2.1-0.2-2.7,0.7c-0.5,0.9-0.2,2.1,0.7,2.7C38.4,34.5,39.6,34.2,40.2,33.2z M37.3,30.7
	c0,0-0.9,0.2-1.6-0.2c-0.7-0.4-1-1.3-1-1.3l-0.4,0.7l2.6,1.5L37.3,30.7z M33.9,30.6c0,0,0.9-0.2,1.6,0.2c0.7,0.4,1,1.3,1,1.3
	l0.4-0.7l-2.6-1.5L33.9,30.6z M36.8,32.6c0,0-0.5,1.5-1.4,2.6c-1,1.1-2.1,1.4-2.1,1.4l0.5,0.7l3.6-4L36.8,32.6z M34.1,38
	c0,0,0.5-1.5,1.4-2.6s2.1-1.4,2.1-1.4l-0.5-0.7l-3.6,4L34.1,38z M38.7,30.7l1.6-5.1l-0.8-0.1c0,0,0.3,1.2-0.1,2.6
	c-0.4,1.4-1.5,2.6-1.5,2.6L38.7,30.7z M40.3,25.5l-1.6,5.1l0.8,0.1c0,0-0.3-1.2,0.1-2.6c0.4-1.4,1.5-2.6,1.5-2.6L40.3,25.5z
	 M31.1,29.4c0,0,0.2,0.9-0.3,1.3s-1.4,0.2-1.4,0.2l0.7,0.7l1.6-1.4L31.1,29.4z M30.9,32.2c0,0-0.2-0.9,0.3-1.3
	c0.4-0.4,1.4-0.2,1.4-0.2l-0.7-0.7l-1.6,1.4L30.9,32.2z M33.2,27.6l0.4-2.1l-1-0.3c0,0,0.7,0.7,0.6,1.3s-0.9,0.9-0.9,0.9L33.2,27.6z
	 M33.6,25.4l-0.4,2.1l1,0.3c0,0-0.7-0.7-0.6-1.3c0.1-0.6,0.9-0.9,0.9-0.9L33.6,25.4z M34.4,18.1c-0.5-0.9-1.7-1.3-2.7-0.7
	c-0.9,0.5-1.3,1.7-0.7,2.7s1.7,1.3,2.7,0.7C34.6,20.3,34.9,19.1,34.4,18.1z M40.1,14.8c-0.5-0.9-1.7-1.3-2.7-0.7
	c-0.9,0.5-1.3,1.7-0.7,2.7s1.7,1.3,2.7,0.7C40.3,17,40.6,15.8,40.1,14.8z M36.4,16c0,0-0.3,0.9-1,1.3c-0.7,0.4-1.6,0.2-1.6,0.2
	l0.4,0.7l2.6-1.5L36.4,16z M34.6,18.9c0,0,0.3-0.9,1-1.3c0.7-0.4,1.6-0.2,1.6-0.2l-0.4-0.7l-2.6,1.5L34.6,18.9z M37.8,17.4
	c0,0,1,1.1,1.5,2.5c0.5,1.4,0.2,2.6,0.2,2.6l0.8-0.1l-1.6-5.1L37.8,17.4z M41.1,22.5c0,0-1-1.1-1.5-2.5c-0.5-1.4-0.2-2.6-0.2-2.6
	l-0.8,0.1l1.6,5.1L41.1,22.5z M37.1,14.8l-3.6-3.9l-0.5,0.7c0,0,1.2,0.3,2.2,1.4s1.5,2.6,1.5,2.6L37.1,14.8z M33.5,10.8l3.6,3.9
	l0.5-0.7c0,0-1.2-0.3-2.2-1.4s-1.5-2.6-1.5-2.6L33.5,10.8z M32.2,20.8c0,0,0.8,0.3,1,0.9c0.1,0.6-0.6,1.3-0.6,1.3l1-0.3l-0.4-2.1
	L32.2,20.8z M34.5,22.4c0,0-0.8-0.3-1-0.9s0.6-1.3,0.6-1.3l-1,0.3l0.4,2.1L34.5,22.4z M31.7,18l-1.6-1.4l-0.7,0.7
	c0,0,0.9-0.2,1.4,0.2c0.5,0.4,0.3,1.3,0.3,1.3L31.7,18z M30,16.6l1.6,1.4l0.7-0.7c0,0-0.9,0.2-1.4-0.2c-0.5-0.4-0.3-1.3-0.3-1.3
	L30,16.6z M13.8,30.1c0.5,0.9,1.7,1.3,2.7,0.7c0.9-0.5,1.3-1.7,0.7-2.7s-1.7-1.3-2.7-0.7C13.6,28,13.3,29.2,13.8,30.1z M8.2,33.4
	c0.5,0.9,1.7,1.3,2.7,0.7s1.3-1.7,0.7-2.7c-0.5-0.9-1.7-1.3-2.7-0.7C7.9,31.3,7.6,32.5,8.2,33.4z M11.8,32.2c0,0,0.3-0.9,1-1.3
	s1.6-0.2,1.6-0.2L14,30l-2.6,1.5L11.8,32.2z M13.6,29.3c0,0-0.3,0.9-1,1.3S11,30.8,11,30.8l0.4,0.7L14,30L13.6,29.3z M10.4,30.8
	c0,0-1-1.1-1.5-2.5s-0.2-2.6-0.2-2.6l-0.8,0.1l1.6,5.1L10.4,30.8z M7.1,25.7c0,0,1,1.1,1.5,2.5c0.5,1.4,0.2,2.6,0.2,2.6l0.8-0.1
	l-1.6-5.1L7.1,25.7z M11.1,33.4l3.6,3.9l0.5-0.7c0,0-1.2-0.3-2.2-1.4s-1.5-2.6-1.5-2.6L11.1,33.4z M14.7,37.4l-3.6-3.9l-0.5,0.7
	c0,0,1.2,0.3,2.2,1.4c1,1.1,1.5,2.6,1.5,2.6L14.7,37.4z M16,27.4c0,0-0.8-0.3-1-0.9c-0.1-0.6,0.6-1.3,0.6-1.3l-1,0.3l0.4,2.1
	L16,27.4z M13.7,25.8c0,0,0.8,0.3,1,0.9S14.1,28,14.1,28l1-0.3l-0.4-2.1L13.7,25.8z M16.5,30.3l1.6,1.4l0.7-0.7c0,0-0.9,0.2-1.4-0.2
	c-0.5-0.4-0.3-1.3-0.3-1.3L16.5,30.3z M18.2,31.7l-1.6-1.4L15.8,31c0,0,0.9-0.2,1.4,0.2c0.5,0.4,0.3,1.3,0.3,1.3L18.2,31.7z
	 M18.1,13.8c-0.9,0.5-1.3,1.7-0.7,2.7c0.5,0.9,1.7,1.3,2.7,0.7s1.3-1.7,0.7-2.7C20.3,13.6,19.1,13.3,18.1,13.8z M14.8,8.2
	c-0.9,0.5-1.3,1.7-0.7,2.7c0.5,0.9,1.7,1.3,2.7,0.7c0.9-0.5,1.3-1.7,0.7-2.7C17,7.9,15.8,7.6,14.8,8.2z M16,11.8c0,0,0.9,0.3,1.3,1
	s0.2,1.6,0.2,1.6l0.7-0.4l-1.5-2.6L16,11.8z M18.9,13.6c0,0-0.9-0.3-1.3-1S17.4,11,17.4,11l-0.7,0.4l1.5,2.6L18.9,13.6z M17.4,10.4
	c0,0,1.1-1,2.5-1.5c1.4-0.5,2.6-0.2,2.6-0.2l-0.1-0.8l-5.1,1.6L17.4,10.4z M22.5,7.1c0,0-1.1,1-2.5,1.5c-1.4,0.5-2.6,0.2-2.6,0.2
	l0.1,0.8l5.1-1.6L22.5,7.1z M14.8,11.1l-3.9,3.6l0.7,0.5c0,0,0.3-1.2,1.4-2.2s2.6-1.5,2.6-1.5L14.8,11.1z M10.8,14.7l3.9-3.6
	l-0.7-0.5c0,0-0.3,1.2-1.4,2.2s-2.6,1.5-2.6,1.5L10.8,14.7z M20.8,16c0,0,0.3-0.8,0.9-1c0.6-0.1,1.3,0.6,1.3,0.6l-0.3-1L20.5,15
	L20.8,16z M22.4,13.7c0,0-0.3,0.8-0.9,1s-1.3-0.6-1.3-0.6l0.3,1l2.1-0.4L22.4,13.7z M18,16.5l-1.4,1.6l0.7,0.7c0,0-0.2-0.9,0.2-1.4
	c0.4-0.5,1.3-0.3,1.3-0.3L18,16.5z M16.6,18.2l1.4-1.6l-0.7-0.7c0,0,0.2,0.9-0.2,1.4c-0.4,0.5-1.3,0.3-1.3,0.3L16.6,18.2z
	 M30.1,34.4c0.9-0.5,1.3-1.7,0.7-2.7c-0.5-0.9-1.7-1.3-2.7-0.7s-1.3,1.7-0.7,2.7S29.2,34.9,30.1,34.4z M33.4,40.1
	c0.9-0.5,1.3-1.7,0.7-2.7s-1.7-1.3-2.7-0.7c-0.9,0.5-1.3,1.7-0.7,2.7S32.5,40.6,33.4,40.1z M32.2,36.4c0,0-0.9-0.3-1.3-1
	c-0.4-0.7-0.2-1.6-0.2-1.6L30,34.2l1.5,2.6L32.2,36.4z M29.3,34.6c0,0,0.9,0.3,1.3,1c0.4,0.7,0.2,1.6,0.2,1.6l0.7-0.4L30,34.2
	L29.3,34.6z M30.8,37.8c0,0-1.1,1-2.5,1.5c-1.4,0.5-2.6,0.2-2.6,0.2l0.1,0.8l5.1-1.6L30.8,37.8z M25.7,41.1c0,0,1.1-1,2.5-1.5
	c1.4-0.5,2.6-0.2,2.6-0.2l-0.1-0.8l-5.1,1.6L25.7,41.1z M33.4,37.1l3.9-3.6l-0.7-0.5c0,0-0.3,1.2-1.4,2.2s-2.6,1.5-2.6,1.5
	L33.4,37.1z M37.4,33.5l-3.9,3.6l0.7,0.5c0,0,0.3-1.2,1.4-2.2c1.1-1,2.6-1.5,2.6-1.5L37.4,33.5z M27.4,32.2c0,0-0.3,0.8-0.9,1
	c-0.6,0.1-1.3-0.6-1.3-0.6l0.3,1l2.1-0.4L27.4,32.2z M25.8,34.5c0,0,0.3-0.8,0.9-1s1.3,0.6,1.3,0.6l-0.3-1l-2.1,0.4L25.8,34.5z
	 M30.3,31.7l1.4-1.6L31,29.3c0,0,0.2,0.9-0.2,1.4c-0.4,0.5-1.3,0.3-1.3,0.3L30.3,31.7z M31.7,30l-1.4,1.6l0.7,0.7
	c0,0-0.2-0.9,0.2-1.4c0.4-0.5,1.3-0.3,1.3-0.3L31.7,30z M24.1,36c1.1,0,2-0.9,2-2s-0.9-2-2-2s-2,0.9-2,2S23,36,24.1,36z M24.1,42.6
	c1.1,0,2-0.9,2-2s-0.9-2-2-2s-2,0.9-2,2S23,42.6,24.1,42.6z M24.9,38.8c0,0-0.6-0.7-0.6-1.5c0-0.8,0.6-1.5,0.6-1.5l-0.8,0v3H24.9z
	 M23.3,35.8c0,0,0.6,0.7,0.6,1.5c0,0.8-0.6,1.5-0.6,1.5l0.8,0v-3H23.3z M23,39.3c0,0-1.5,0.3-3,0c-1.4-0.3-2.3-1.2-2.3-1.2l-0.4,0.8
	l5.2,1.1L23,39.3z M16.9,39.6c0,0,1.5-0.3,3,0c1.4,0.3,2.3,1.2,2.3,1.2l0.4-0.8l-5.2-1.1L16.9,39.6z M25.6,40l5.2-1.1l-0.4-0.8
	c0,0-0.9,0.8-2.3,1.2s-3,0-3,0L25.6,40z M30.9,38.9L25.7,40l0.4,0.8c0,0,0.9-0.8,2.3-1.2c1.4-0.3,3,0,3,0L30.9,38.9z M22.9,32.8
	c0,0-0.7,0.6-1.2,0.4c-0.6-0.2-0.8-1.1-0.8-1.1l-0.2,1l2,0.7L22.9,32.8z M20.4,34c0,0,0.7-0.6,1.2-0.4s0.8,1.1,0.8,1.1l0.2-1l-2-0.7
	L20.4,34z M25.6,33.8l2-0.7l-0.2-1c0,0-0.3,0.9-0.8,1.1c-0.6,0.2-1.2-0.4-1.2-0.4L25.6,33.8z M27.7,33l-2,0.7l0.2,1
	c0,0,0.3-0.9,0.8-1.1s1.2,0.4,1.2,0.4L27.7,33z M12.2,24.1c0,1.1,0.9,2,2,2s2-0.9,2-2s-0.9-2-2-2S12.2,23,12.2,24.1z M5.7,24.1
	c0,1.1,0.9,2,2,2s2-0.9,2-2s-0.9-2-2-2S5.7,23,5.7,24.1z M9.4,24.9c0,0,0.7-0.6,1.5-0.6c0.8,0,1.5,0.6,1.5,0.6l0-0.8h-3V24.9z
	 M12.4,23.3c0,0-0.7,0.6-1.5,0.6c-0.8,0-1.5-0.6-1.5-0.6l0,0.8h3V23.3z M8.9,23c0,0-0.3-1.5,0-3c0.3-1.4,1.2-2.3,1.2-2.3l-0.8-0.4
	l-1.1,5.2L8.9,23z M8.6,16.9c0,0,0.3,1.5,0,3c-0.3,1.4-1.2,2.3-1.2,2.3l0.8,0.4l1.1-5.2L8.6,16.9z M8.2,25.6l1.1,5.2l0.8-0.4
	c0,0-0.8-0.9-1.2-2.3c-0.3-1.4,0-3,0-3L8.2,25.6z M9.3,30.9l-1.1-5.2L7.4,26c0,0,0.8,0.9,1.2,2.3c0.3,1.4,0,3,0,3L9.3,30.9z
	 M15.4,22.9c0,0-0.6-0.7-0.4-1.2c0.2-0.6,1.1-0.8,1.1-0.8l-1-0.2l-0.7,2L15.4,22.9z M14.2,20.4c0,0,0.6,0.7,0.4,1.2
	c-0.2,0.6-1.1,0.8-1.1,0.8l1,0.2l0.7-2L14.2,20.4z M14.5,25.6l0.7,2l1-0.2c0,0-0.9-0.3-1.1-0.8c-0.2-0.6,0.4-1.2,0.4-1.2L14.5,25.6z
	 M15.2,27.7l-0.7-2l-1,0.2c0,0,0.9,0.3,1.1,0.8c0.2,0.6-0.4,1.2-0.4,1.2L15.2,27.7z M36,24.1c0-1.1-0.9-2-2-2s-2,0.9-2,2s0.9,2,2,2
	S36,25.2,36,24.1z M42.6,24.1c0-1.1-0.9-2-2-2s-2,0.9-2,2s0.9,2,2,2S42.6,25.2,42.6,24.1z M38.8,23.3c0,0-0.7,0.6-1.5,0.6
	c-0.8,0-1.5-0.6-1.5-0.6l0,0.8h3V23.3z M35.8,24.9c0,0,0.7-0.6,1.5-0.6c0.8,0,1.5,0.6,1.5,0.6l0-0.8h-3V24.9z M39.3,25.2
	c0,0,0.3,1.5,0,3s-1.2,2.3-1.2,2.3l0.8,0.4l1.1-5.2L39.3,25.2z M39.6,31.3c0,0-0.3-1.5,0-3c0.3-1.4,1.2-2.3,1.2-2.3L40,25.7
	l-1.1,5.2L39.6,31.3z M40,22.6l-1.1-5.2l-0.8,0.4c0,0,0.8,0.9,1.2,2.3c0.3,1.4,0,3,0,3L40,22.6z M38.9,17.3l1.1,5.2l0.8-0.4
	c0,0-0.8-0.9-1.2-2.3c-0.3-1.4,0-3,0-3L38.9,17.3z M32.8,25.3c0,0,0.6,0.7,0.4,1.2s-1.1,0.8-1.1,0.8l1,0.2l0.7-2L32.8,25.3z
	 M34,27.8c0,0-0.6-0.7-0.4-1.2c0.2-0.6,1.1-0.8,1.1-0.8l-1-0.2l-0.7,2L34,27.8z M33.8,22.6l-0.7-2l-1,0.2c0,0,0.9,0.3,1.1,0.8
	c0.2,0.6-0.4,1.2-0.4,1.2L33.8,22.6z M33,20.6l0.7,2l1-0.2c0,0-0.9-0.3-1.1-0.8C33.4,21,34,20.3,34,20.3L33,20.6z"/>
<path class="st1" d="M26.1,24c0,1.1-0.9,2-2,2s-2-0.9-2-2s0.9-2,2-2S26.1,23,26.1,24z M24.1,12.2c-1.1,0-2,0.9-2,2s0.9,2,2,2
	s2-0.9,2-2S25.2,12.2,24.1,12.2z M24.1,5.7c-1.1,0-2,0.9-2,2s0.9,2,2,2s2-0.9,2-2S25.2,5.7,24.1,5.7z M23.3,9.4c0,0,0.6,0.7,0.6,1.5
	c0,0.8-0.6,1.5-0.6,1.5l0.8,0v-3H23.3z M24.9,12.4c0,0-0.6-0.7-0.6-1.5c0-0.8,0.6-1.5,0.6-1.5l-0.8,0v3H24.9z M25.2,8.9
	c0,0,1.5-0.3,3,0c1.4,0.3,2.3,1.2,2.3,1.2l0.4-0.8l-5.2-1.1L25.2,8.9z M31.3,8.6c0,0-1.5,0.3-3,0C26.9,8.3,26,7.4,26,7.4l-0.4,0.8
	l5.2,1.1L31.3,8.6z M22.6,8.2l-5.2,1.1l0.4,0.8c0,0,0.9-0.8,2.3-1.2c1.4-0.3,3,0,3,0L22.6,8.2z M17.3,9.3l5.2-1.1l-0.4-0.8
	c0,0-0.9,0.8-2.3,1.2c-1.4,0.3-3,0-3,0L17.3,9.3z M25.3,15.4c0,0,0.7-0.6,1.2-0.4c0.6,0.2,0.8,1.1,0.8,1.1l0.2-1l-2-0.7L25.3,15.4z
	 M27.8,14.2c0,0-0.7,0.6-1.2,0.4c-0.6-0.2-0.8-1.1-0.8-1.1l-0.2,1l2,0.7L27.8,14.2z M22.6,14.5l-2,0.7l0.2,1c0,0,0.3-0.9,0.8-1.1
	c0.6-0.2,1.2,0.4,1.2,0.4L22.6,14.5z M20.6,15.2l2-0.7l-0.2-1c0,0-0.3,0.9-0.8,1.1c-0.6,0.2-1.2-0.4-1.2-0.4L20.6,15.2z M30,13.8
	c-0.9-0.5-2.1-0.2-2.7,0.7c-0.5,0.9-0.2,2.1,0.7,2.7c0.9,0.5,2.1,0.2,2.7-0.7C31.2,15.5,30.9,14.3,30,13.8z M33.2,8.1
	c-0.9-0.5-2.1-0.2-2.7,0.7c-0.5,0.9-0.2,2.1,0.7,2.7c0.9,0.5,2.1,0.2,2.7-0.7C34.5,9.8,34.2,8.6,33.2,8.1z M30.7,10.9
	c0,0,0.2,0.9-0.2,1.6c-0.4,0.7-1.3,1-1.3,1l0.7,0.4l1.5-2.6L30.7,10.9z M30.6,14.4c0,0-0.2-0.9,0.2-1.6c0.4-0.7,1.3-1,1.3-1
	l-0.7-0.4L29.8,14L30.6,14.4z M32.6,11.5c0,0,1.5,0.5,2.6,1.4c1.1,1,1.4,2.1,1.4,2.1l0.7-0.5l-4-3.6L32.6,11.5z M38,14.2
	c0,0-1.5-0.5-2.6-1.4S34,10.6,34,10.6l-0.7,0.5l4,3.6L38,14.2z M30.7,9.5l-5.1-1.6l-0.1,0.8c0,0,1.2-0.3,2.6,0.1
	c1.4,0.4,2.6,1.5,2.6,1.5L30.7,9.5z M25.5,7.9l5.1,1.6l0.1-0.8c0,0-1.2,0.3-2.6-0.1c-1.4-0.4-2.6-1.5-2.6-1.5L25.5,7.9z M29.4,17.2
	c0,0,0.9-0.2,1.3,0.3s0.2,1.4,0.2,1.4l0.7-0.7l-1.4-1.6L29.4,17.2z M32.2,17.4c0,0-0.9,0.2-1.3-0.3s-0.2-1.4-0.2-1.4l-0.7,0.7
	l1.4,1.6L32.2,17.4z M27.6,15l-2.1-0.4l-0.3,1c0,0,0.7-0.7,1.3-0.6c0.6,0.1,0.9,0.9,0.9,0.9L27.6,15z M25.4,14.6l2.1,0.4l0.3-1
	c0,0-0.7,0.7-1.3,0.6c-0.6-0.1-0.9-0.9-0.9-0.9L25.4,14.6z M18.3,34.4c0.9,0.5,2.1,0.2,2.7-0.7s0.2-2.1-0.7-2.7
	c-0.9-0.5-2.1-0.2-2.7,0.7C17,32.7,17.3,33.9,18.3,34.4z M15,40.2c0.9,0.5,2.1,0.2,2.7-0.7c0.5-0.9,0.2-2.1-0.7-2.7
	c-0.9-0.5-2.1-0.2-2.7,0.7C13.7,38.4,14.1,39.6,15,40.2z M17.6,37.3c0,0-0.2-0.9,0.2-1.6c0.4-0.7,1.3-1,1.3-1l-0.7-0.4l-1.5,2.6
	L17.6,37.3z M17.7,33.9c0,0,0.2,0.9-0.2,1.6c-0.4,0.7-1.3,1-1.3,1l0.7,0.4l1.5-2.6L17.7,33.9z M15.7,36.8c0,0-1.5-0.5-2.6-1.4
	s-1.4-2.1-1.4-2.1L11,33.7l4,3.6L15.7,36.8z M10.2,34.1c0,0,1.5,0.5,2.6,1.4s1.4,2.1,1.4,2.1l0.7-0.5l-4-3.6L10.2,34.1z M17.6,38.7
	l5.1,1.6l0.1-0.8c0,0-1.2,0.3-2.6-0.1s-2.6-1.5-2.6-1.5L17.6,38.7z M22.7,40.3l-5.1-1.6l-0.1,0.8c0,0,1.2-0.3,2.6,0.1
	s2.6,1.5,2.6,1.5L22.7,40.3z M18.8,31.1c0,0-0.9,0.2-1.3-0.3s-0.2-1.4-0.2-1.4l-0.7,0.7l1.4,1.6L18.8,31.1z M16,30.9
	c0,0,0.9-0.2,1.3,0.3c0.4,0.4,0.2,1.4,0.2,1.4l0.7-0.7l-1.4-1.6L16,30.9z M20.7,33.2l2.1,0.4l0.3-1c0,0-0.7,0.7-1.3,0.6
	c-0.6-0.1-0.9-0.9-0.9-0.9L20.7,33.2z M22.8,33.6l-2.1-0.4l-0.3,1c0,0,0.7-0.7,1.3-0.6c0.6,0.1,0.9,0.9,0.9,0.9L22.8,33.6z
	 M13.8,18.3c-0.5,0.9-0.2,2.1,0.7,2.7c0.9,0.5,2.1,0.2,2.7-0.7s0.2-2.1-0.7-2.7C15.5,17,14.3,17.3,13.8,18.3z M8.1,15
	c-0.5,0.9-0.2,2.1,0.7,2.7c0.9,0.5,2.1,0.2,2.7-0.7s0.2-2.1-0.7-2.7C9.8,13.7,8.6,14.1,8.1,15z M10.9,17.6c0,0,0.9-0.2,1.6,0.2
	c0.7,0.4,1,1.3,1,1.3l0.4-0.7l-2.6-1.5L10.9,17.6z M14.4,17.7c0,0-0.9,0.2-1.6-0.2c-0.7-0.4-1-1.3-1-1.3l-0.4,0.7l2.6,1.5L14.4,17.7
	z M11.5,15.7c0,0,0.5-1.5,1.4-2.6s2.1-1.4,2.1-1.4L14.6,11l-3.6,4L11.5,15.7z M14.2,10.2c0,0-0.5,1.5-1.4,2.6s-2.1,1.4-2.1,1.4
	l0.5,0.7l3.6-4L14.2,10.2z M9.5,17.6l-1.6,5.1l0.8,0.1c0,0-0.3-1.2,0.1-2.6s1.5-2.6,1.5-2.6L9.5,17.6z M7.9,22.7l1.6-5.1l-0.8-0.1
	c0,0,0.3,1.2-0.1,2.6s-1.5,2.6-1.5,2.6L7.9,22.7z M17.2,18.8c0,0-0.2-0.9,0.3-1.3s1.4-0.2,1.4-0.2l-0.7-0.7l-1.6,1.4L17.2,18.8z
	 M17.4,16c0,0,0.2,0.9-0.3,1.3s-1.4,0.2-1.4,0.2l0.7,0.7l1.6-1.4L17.4,16z M15,20.7l-0.4,2.1l1,0.3c0,0-0.7-0.7-0.6-1.3
	c0.1-0.6,0.9-0.9,0.9-0.9L15,20.7z M14.6,22.8l0.4-2.1l-1-0.3c0,0,0.7,0.7,0.6,1.3c-0.1,0.6-0.9,0.9-0.9,0.9L14.6,22.8z M34.4,30
	c0.5-0.9,0.2-2.1-0.7-2.7c-0.9-0.5-2.1-0.2-2.7,0.7c-0.5,0.9-0.2,2.1,0.7,2.7S33.9,30.9,34.4,30z M40.2,33.2
	c0.5-0.9,0.2-2.1-0.7-2.7c-0.9-0.5-2.1-0.2-2.7,0.7c-0.5,0.9-0.2,2.1,0.7,2.7C38.4,34.5,39.6,34.2,40.2,33.2z M37.3,30.7
	c0,0-0.9,0.2-1.6-0.2c-0.7-0.4-1-1.3-1-1.3l-0.4,0.7l2.6,1.5L37.3,30.7z M33.9,30.6c0,0,0.9-0.2,1.6,0.2c0.7,0.4,1,1.3,1,1.3
	l0.4-0.7l-2.6-1.5L33.9,30.6z M36.8,32.6c0,0-0.5,1.5-1.4,2.6c-1,1.1-2.1,1.4-2.1,1.4l0.5,0.7l3.6-4L36.8,32.6z M34.1,38
	c0,0,0.5-1.5,1.4-2.6s2.1-1.4,2.1-1.4l-0.5-0.7l-3.6,4L34.1,38z M38.7,30.7l1.6-5.1l-0.8-0.1c0,0,0.3,1.2-0.1,2.6
	c-0.4,1.4-1.5,2.6-1.5,2.6L38.7,30.7z M40.3,25.5l-1.6,5.1l0.8,0.1c0,0-0.3-1.2,0.1-2.6c0.4-1.4,1.5-2.6,1.5-2.6L40.3,25.5z
	 M31.1,29.4c0,0,0.2,0.9-0.3,1.3s-1.4,0.2-1.4,0.2l0.7,0.7l1.6-1.4L31.1,29.4z M30.9,32.2c0,0-0.2-0.9,0.3-1.3
	c0.4-0.4,1.4-0.2,1.4-0.2l-0.7-0.7l-1.6,1.4L30.9,32.2z M33.2,27.6l0.4-2.1l-1-0.3c0,0,0.7,0.7,0.6,1.3s-0.9,0.9-0.9,0.9L33.2,27.6z
	 M33.6,25.4l-0.4,2.1l1,0.3c0,0-0.7-0.7-0.6-1.3c0.1-0.6,0.9-0.9,0.9-0.9L33.6,25.4z M34.4,18.1c-0.5-0.9-1.7-1.3-2.7-0.7
	c-0.9,0.5-1.3,1.7-0.7,2.7s1.7,1.3,2.7,0.7C34.6,20.3,34.9,19.1,34.4,18.1z M40.1,14.8c-0.5-0.9-1.7-1.3-2.7-0.7
	c-0.9,0.5-1.3,1.7-0.7,2.7s1.7,1.3,2.7,0.7C40.3,17,40.6,15.8,40.1,14.8z M36.4,16c0,0-0.3,0.9-1,1.3c-0.7,0.4-1.6,0.2-1.6,0.2
	l0.4,0.7l2.6-1.5L36.4,16z M34.6,18.9c0,0,0.3-0.9,1-1.3c0.7-0.4,1.6-0.2,1.6-0.2l-0.4-0.7l-2.6,1.5L34.6,18.9z M37.8,17.4
	c0,0,1,1.1,1.5,2.5c0.5,1.4,0.2,2.6,0.2,2.6l0.8-0.1l-1.6-5.1L37.8,17.4z M41.1,22.5c0,0-1-1.1-1.5-2.5c-0.5-1.4-0.2-2.6-0.2-2.6
	l-0.8,0.1l1.6,5.1L41.1,22.5z M37.1,14.8l-3.6-3.9l-0.5,0.7c0,0,1.2,0.3,2.2,1.4s1.5,2.6,1.5,2.6L37.1,14.8z M33.5,10.8l3.6,3.9
	l0.5-0.7c0,0-1.2-0.3-2.2-1.4s-1.5-2.6-1.5-2.6L33.5,10.8z M32.2,20.8c0,0,0.8,0.3,1,0.9c0.1,0.6-0.6,1.3-0.6,1.3l1-0.3l-0.4-2.1
	L32.2,20.8z M34.5,22.4c0,0-0.8-0.3-1-0.9s0.6-1.3,0.6-1.3l-1,0.3l0.4,2.1L34.5,22.4z M31.7,18l-1.6-1.4l-0.7,0.7
	c0,0,0.9-0.2,1.4,0.2c0.5,0.4,0.3,1.3,0.3,1.3L31.7,18z M30,16.6l1.6,1.4l0.7-0.7c0,0-0.9,0.2-1.4-0.2c-0.5-0.4-0.3-1.3-0.3-1.3
	L30,16.6z M13.8,30.1c0.5,0.9,1.7,1.3,2.7,0.7c0.9-0.5,1.3-1.7,0.7-2.7s-1.7-1.3-2.7-0.7C13.6,28,13.3,29.2,13.8,30.1z M8.2,33.4
	c0.5,0.9,1.7,1.3,2.7,0.7s1.3-1.7,0.7-2.7c-0.5-0.9-1.7-1.3-2.7-0.7C7.9,31.3,7.6,32.5,8.2,33.4z M11.8,32.2c0,0,0.3-0.9,1-1.3
	s1.6-0.2,1.6-0.2L14,30l-2.6,1.5L11.8,32.2z M13.6,29.3c0,0-0.3,0.9-1,1.3S11,30.8,11,30.8l0.4,0.7L14,30L13.6,29.3z M10.4,30.8
	c0,0-1-1.1-1.5-2.5s-0.2-2.6-0.2-2.6l-0.8,0.1l1.6,5.1L10.4,30.8z M7.1,25.7c0,0,1,1.1,1.5,2.5c0.5,1.4,0.2,2.6,0.2,2.6l0.8-0.1
	l-1.6-5.1L7.1,25.7z M11.1,33.4l3.6,3.9l0.5-0.7c0,0-1.2-0.3-2.2-1.4s-1.5-2.6-1.5-2.6L11.1,33.4z M14.7,37.4l-3.6-3.9l-0.5,0.7
	c0,0,1.2,0.3,2.2,1.4c1,1.1,1.5,2.6,1.5,2.6L14.7,37.4z M16,27.4c0,0-0.8-0.3-1-0.9c-0.1-0.6,0.6-1.3,0.6-1.3l-1,0.3l0.4,2.1
	L16,27.4z M13.7,25.8c0,0,0.8,0.3,1,0.9S14.1,28,14.1,28l1-0.3l-0.4-2.1L13.7,25.8z M16.5,30.3l1.6,1.4l0.7-0.7c0,0-0.9,0.2-1.4-0.2
	c-0.5-0.4-0.3-1.3-0.3-1.3L16.5,30.3z M18.2,31.7l-1.6-1.4L15.8,31c0,0,0.9-0.2,1.4,0.2c0.5,0.4,0.3,1.3,0.3,1.3L18.2,31.7z
	 M18.1,13.8c-0.9,0.5-1.3,1.7-0.7,2.7c0.5,0.9,1.7,1.3,2.7,0.7s1.3-1.7,0.7-2.7C20.3,13.6,19.1,13.3,18.1,13.8z M14.8,8.2
	c-0.9,0.5-1.3,1.7-0.7,2.7c0.5,0.9,1.7,1.3,2.7,0.7c0.9-0.5,1.3-1.7,0.7-2.7C17,7.9,15.8,7.6,14.8,8.2z M16,11.8c0,0,0.9,0.3,1.3,1
	s0.2,1.6,0.2,1.6l0.7-0.4l-1.5-2.6L16,11.8z M18.9,13.6c0,0-0.9-0.3-1.3-1S17.4,11,17.4,11l-0.7,0.4l1.5,2.6L18.9,13.6z M17.4,10.4
	c0,0,1.1-1,2.5-1.5c1.4-0.5,2.6-0.2,2.6-0.2l-0.1-0.8l-5.1,1.6L17.4,10.4z M22.5,7.1c0,0-1.1,1-2.5,1.5c-1.4,0.5-2.6,0.2-2.6,0.2
	l0.1,0.8l5.1-1.6L22.5,7.1z M14.8,11.1l-3.9,3.6l0.7,0.5c0,0,0.3-1.2,1.4-2.2s2.6-1.5,2.6-1.5L14.8,11.1z M10.8,14.7l3.9-3.6
	l-0.7-0.5c0,0-0.3,1.2-1.4,2.2s-2.6,1.5-2.6,1.5L10.8,14.7z M20.8,16c0,0,0.3-0.8,0.9-1c0.6-0.1,1.3,0.6,1.3,0.6l-0.3-1L20.5,15
	L20.8,16z M22.4,13.7c0,0-0.3,0.8-0.9,1s-1.3-0.6-1.3-0.6l0.3,1l2.1-0.4L22.4,13.7z M18,16.5l-1.4,1.6l0.7,0.7c0,0-0.2-0.9,0.2-1.4
	c0.4-0.5,1.3-0.3,1.3-0.3L18,16.5z M16.6,18.2l1.4-1.6l-0.7-0.7c0,0,0.2,0.9-0.2,1.4c-0.4,0.5-1.3,0.3-1.3,0.3L16.6,18.2z
	 M30.1,34.4c0.9-0.5,1.3-1.7,0.7-2.7c-0.5-0.9-1.7-1.3-2.7-0.7s-1.3,1.7-0.7,2.7S29.2,34.9,30.1,34.4z M33.4,40.1
	c0.9-0.5,1.3-1.7,0.7-2.7s-1.7-1.3-2.7-0.7c-0.9,0.5-1.3,1.7-0.7,2.7S32.5,40.6,33.4,40.1z M32.2,36.4c0,0-0.9-0.3-1.3-1
	c-0.4-0.7-0.2-1.6-0.2-1.6L30,34.2l1.5,2.6L32.2,36.4z M29.3,34.6c0,0,0.9,0.3,1.3,1c0.4,0.7,0.2,1.6,0.2,1.6l0.7-0.4L30,34.2
	L29.3,34.6z M30.8,37.8c0,0-1.1,1-2.5,1.5c-1.4,0.5-2.6,0.2-2.6,0.2l0.1,0.8l5.1-1.6L30.8,37.8z M25.7,41.1c0,0,1.1-1,2.5-1.5
	c1.4-0.5,2.6-0.2,2.6-0.2l-0.1-0.8l-5.1,1.6L25.7,41.1z M33.4,37.1l3.9-3.6l-0.7-0.5c0,0-0.3,1.2-1.4,2.2s-2.6,1.5-2.6,1.5
	L33.4,37.1z M37.4,33.5l-3.9,3.6l0.7,0.5c0,0,0.3-1.2,1.4-2.2c1.1-1,2.6-1.5,2.6-1.5L37.4,33.5z M27.4,32.2c0,0-0.3,0.8-0.9,1
	c-0.6,0.1-1.3-0.6-1.3-0.6l0.3,1l2.1-0.4L27.4,32.2z M25.8,34.5c0,0,0.3-0.8,0.9-1s1.3,0.6,1.3,0.6l-0.3-1l-2.1,0.4L25.8,34.5z
	 M30.3,31.7l1.4-1.6L31,29.3c0,0,0.2,0.9-0.2,1.4c-0.4,0.5-1.3,0.3-1.3,0.3L30.3,31.7z M31.7,30l-1.4,1.6l0.7,0.7
	c0,0-0.2-0.9,0.2-1.4c0.4-0.5,1.3-0.3,1.3-0.3L31.7,30z M24.1,36c1.1,0,2-0.9,2-2s-0.9-2-2-2s-2,0.9-2,2S23,36,24.1,36z M24.1,42.6
	c1.1,0,2-0.9,2-2s-0.9-2-2-2s-2,0.9-2,2S23,42.6,24.1,42.6z M24.9,38.8c0,0-0.6-0.7-0.6-1.5c0-0.8,0.6-1.5,0.6-1.5l-0.8,0v3H24.9z
	 M23.3,35.8c0,0,0.6,0.7,0.6,1.5c0,0.8-0.6,1.5-0.6,1.5l0.8,0v-3H23.3z M23,39.3c0,0-1.5,0.3-3,0c-1.4-0.3-2.3-1.2-2.3-1.2l-0.4,0.8
	l5.2,1.1L23,39.3z M16.9,39.6c0,0,1.5-0.3,3,0c1.4,0.3,2.3,1.2,2.3,1.2l0.4-0.8l-5.2-1.1L16.9,39.6z M25.6,40l5.2-1.1l-0.4-0.8
	c0,0-0.9,0.8-2.3,1.2s-3,0-3,0L25.6,40z M30.9,38.9L25.7,40l0.4,0.8c0,0,0.9-0.8,2.3-1.2c1.4-0.3,3,0,3,0L30.9,38.9z M22.9,32.8
	c0,0-0.7,0.6-1.2,0.4c-0.6-0.2-0.8-1.1-0.8-1.1l-0.2,1l2,0.7L22.9,32.8z M20.4,34c0,0,0.7-0.6,1.2-0.4s0.8,1.1,0.8,1.1l0.2-1l-2-0.7
	L20.4,34z M25.6,33.8l2-0.7l-0.2-1c0,0-0.3,0.9-0.8,1.1c-0.6,0.2-1.2-0.4-1.2-0.4L25.6,33.8z M27.7,33l-2,0.7l0.2,1
	c0,0,0.3-0.9,0.8-1.1s1.2,0.4,1.2,0.4L27.7,33z M12.2,24.1c0,1.1,0.9,2,2,2s2-0.9,2-2s-0.9-2-2-2S12.2,23,12.2,24.1z M5.7,24.1
	c0,1.1,0.9,2,2,2s2-0.9,2-2s-0.9-2-2-2S5.7,23,5.7,24.1z M9.4,24.9c0,0,0.7-0.6,1.5-0.6c0.8,0,1.5,0.6,1.5,0.6l0-0.8h-3V24.9z
	 M12.4,23.3c0,0-0.7,0.6-1.5,0.6c-0.8,0-1.5-0.6-1.5-0.6l0,0.8h3V23.3z M8.9,23c0,0-0.3-1.5,0-3c0.3-1.4,1.2-2.3,1.2-2.3l-0.8-0.4
	l-1.1,5.2L8.9,23z M8.6,16.9c0,0,0.3,1.5,0,3c-0.3,1.4-1.2,2.3-1.2,2.3l0.8,0.4l1.1-5.2L8.6,16.9z M8.2,25.6l1.1,5.2l0.8-0.4
	c0,0-0.8-0.9-1.2-2.3c-0.3-1.4,0-3,0-3L8.2,25.6z M9.3,30.9l-1.1-5.2L7.4,26c0,0,0.8,0.9,1.2,2.3c0.3,1.4,0,3,0,3L9.3,30.9z
	 M15.4,22.9c0,0-0.6-0.7-0.4-1.2c0.2-0.6,1.1-0.8,1.1-0.8l-1-0.2l-0.7,2L15.4,22.9z M14.2,20.4c0,0,0.6,0.7,0.4,1.2
	c-0.2,0.6-1.1,0.8-1.1,0.8l1,0.2l0.7-2L14.2,20.4z M14.5,25.6l0.7,2l1-0.2c0,0-0.9-0.3-1.1-0.8c-0.2-0.6,0.4-1.2,0.4-1.2L14.5,25.6z
	 M15.2,27.7l-0.7-2l-1,0.2c0,0,0.9,0.3,1.1,0.8c0.2,0.6-0.4,1.2-0.4,1.2L15.2,27.7z M36,24.1c0-1.1-0.9-2-2-2s-2,0.9-2,2s0.9,2,2,2
	S36,25.2,36,24.1z M42.6,24.1c0-1.1-0.9-2-2-2s-2,0.9-2,2s0.9,2,2,2S42.6,25.2,42.6,24.1z M38.8,23.3c0,0-0.7,0.6-1.5,0.6
	c-0.8,0-1.5-0.6-1.5-0.6l0,0.8h3V23.3z M35.8,24.9c0,0,0.7-0.6,1.5-0.6c0.8,0,1.5,0.6,1.5,0.6l0-0.8h-3V24.9z M39.3,25.2
	c0,0,0.3,1.5,0,3s-1.2,2.3-1.2,2.3l0.8,0.4l1.1-5.2L39.3,25.2z M39.6,31.3c0,0-0.3-1.5,0-3c0.3-1.4,1.2-2.3,1.2-2.3L40,25.7
	l-1.1,5.2L39.6,31.3z M40,22.6l-1.1-5.2l-0.8,0.4c0,0,0.8,0.9,1.2,2.3c0.3,1.4,0,3,0,3L40,22.6z M38.9,17.3l1.1,5.2l0.8-0.4
	c0,0-0.8-0.9-1.2-2.3c-0.3-1.4,0-3,0-3L38.9,17.3z M32.8,25.3c0,0,0.6,0.7,0.4,1.2s-1.1,0.8-1.1,0.8l1,0.2l0.7-2L32.8,25.3z
	 M34,27.8c0,0-0.6-0.7-0.4-1.2c0.2-0.6,1.1-0.8,1.1-0.8l-1-0.2l-0.7,2L34,27.8z M33.8,22.6l-0.7-2l-1,0.2c0,0,0.9,0.3,1.1,0.8
	c0.2,0.6-0.4,1.2-0.4,1.2L33.8,22.6z M33,20.6l0.7,2l1-0.2c0,0-0.9-0.3-1.1-0.8C33.4,21,34,20.3,34,20.3L33,20.6z"/>
<circle class="st2" cx="24.2" cy="23.9" r="6.8"/>
<g>
	<circle class="st3" cx="24.1" cy="24" r="2"/>
</g>
<g>
	<circle class="st3" cx="24.1" cy="14.2" r="2"/>
</g>
<g>
	<circle class="st3" cx="24.1" cy="7.6" r="2"/>
</g>
<path class="st3" d="M24.1,9.4v3l-0.8,0c0,0,0.6-0.7,0.6-1.5c0-0.8-0.6-1.5-0.6-1.5H24.1z"/>
<path class="st3" d="M24.1,12.4v-3l0.8,0c0,0-0.6,0.7-0.6,1.5c0,0.8,0.6,1.5,0.6,1.5H24.1z"/>
<path class="st3" d="M25.6,8.2l5.2,1.1l-0.4,0.8c0,0-0.9-0.8-2.3-1.2c-1.4-0.3-3,0-3,0L25.6,8.2z"/>
<path class="st3" d="M30.9,9.3l-5.2-1.1L26,7.4c0,0,0.9,0.8,2.3,1.2c1.4,0.3,3,0,3,0L30.9,9.3z"/>
<path class="st3" d="M22.6,8.2l-5.2,1.1l0.4,0.8c0,0,0.9-0.8,2.3-1.2c1.4-0.3,3,0,3,0L22.6,8.2z"/>
<path class="st3" d="M17.3,9.3l5.2-1.1l-0.4-0.8c0,0-0.9,0.8-2.3,1.2c-1.4,0.3-3,0-3,0L17.3,9.3z"/>
<g>
	<path class="st3" d="M25.6,14.5l2,0.7l-0.2,1c0,0-0.3-0.9-0.8-1.1c-0.6-0.2-1.2,0.4-1.2,0.4L25.6,14.5z"/>
</g>
<g>
	<path class="st3" d="M27.6,15.2l-2-0.7l0.2-1c0,0,0.3,0.9,0.8,1.1c0.6,0.2,1.2-0.4,1.2-0.4L27.6,15.2z"/>
</g>
<g>
	<path class="st3" d="M22.6,14.5l-2,0.7l0.2,1c0,0,0.3-0.9,0.8-1.1c0.6-0.2,1.2,0.4,1.2,0.4L22.6,14.5z"/>
</g>
<g>
	<path class="st3" d="M20.6,15.2l2-0.7l-0.2-1c0,0-0.3,0.9-0.8,1.1c-0.6,0.2-1.2-0.4-1.2-0.4L20.6,15.2z"/>
</g>
<g>
	<circle class="st3" cx="29" cy="15.5" r="2"/>
</g>
<g>
	<circle class="st3" cx="32.3" cy="9.8" r="2"/>
</g>
<path class="st3" d="M31.4,11.3l-1.5,2.6l-0.7-0.4c0,0,0.9-0.3,1.3-1c0.4-0.7,0.2-1.6,0.2-1.6L31.4,11.3z"/>
<path class="st3" d="M29.8,14l1.5-2.6l0.7,0.4c0,0-0.9,0.3-1.3,1c-0.4,0.7-0.2,1.6-0.2,1.6L29.8,14z"/>
<path class="st3" d="M33.3,11l4,3.6l-0.7,0.5c0,0-0.3-1.2-1.4-2.1c-1.1-1-2.6-1.4-2.6-1.4L33.3,11z"/>
<path class="st3" d="M37.3,14.6l-4-3.6l0.7-0.5c0,0,0.3,1.2,1.4,2.1s2.6,1.4,2.6,1.4L37.3,14.6z"/>
<path class="st3" d="M30.7,9.5l-5.1-1.6l-0.1,0.8c0,0,1.2-0.3,2.6,0.1c1.4,0.4,2.6,1.5,2.6,1.5L30.7,9.5z"/>
<path class="st3" d="M25.5,7.9l5.1,1.6l0.1-0.8c0,0-1.2,0.3-2.6-0.1c-1.4-0.4-2.6-1.5-2.6-1.5L25.5,7.9z"/>
<g>
	<path class="st3" d="M30.1,16.4l1.4,1.6l-0.7,0.7c0,0,0.2-0.9-0.2-1.4s-1.3-0.3-1.3-0.3L30.1,16.4z"/>
</g>
<g>
	<path class="st3" d="M31.5,18.1l-1.4-1.6l0.7-0.7c0,0-0.2,0.9,0.2,1.4s1.3,0.3,1.3,0.3L31.5,18.1z"/>
</g>
<g>
	<path class="st3" d="M27.6,15l-2.1-0.4l-0.3,1c0,0,0.7-0.7,1.3-0.6c0.6,0.1,0.9,0.9,0.9,0.9L27.6,15z"/>
</g>
<g>
	<path class="st3" d="M25.4,14.6l2.1,0.4l0.3-1c0,0-0.7,0.7-1.3,0.6c-0.6-0.1-0.9-0.9-0.9-0.9L25.4,14.6z"/>
</g>
<g>
	<circle class="st3" cx="19.2" cy="32.7" r="2"/>
</g>
<g>
	<circle class="st3" cx="16" cy="38.4" r="2"/>
</g>
<path class="st3" d="M16.9,36.9l1.5-2.6l0.7,0.4c0,0-0.9,0.3-1.3,1c-0.4,0.7-0.2,1.6-0.2,1.6L16.9,36.9z"/>
<path class="st3" d="M18.4,34.3l-1.5,2.6l-0.7-0.4c0,0,0.9-0.3,1.3-1c0.4-0.7,0.2-1.6,0.2-1.6L18.4,34.3z"/>
<path class="st3" d="M14.9,37.2l-4-3.6l0.7-0.5c0,0,0.3,1.2,1.4,2.1s2.6,1.4,2.6,1.4L14.9,37.2z"/>
<path class="st3" d="M10.9,33.6l4,3.6l-0.7,0.5c0,0-0.3-1.2-1.4-2.1s-2.6-1.4-2.6-1.4L10.9,33.6z"/>
<path class="st3" d="M17.6,38.7l5.1,1.6l0.1-0.8c0,0-1.2,0.3-2.6-0.1s-2.6-1.5-2.6-1.5L17.6,38.7z"/>
<path class="st3" d="M22.7,40.3l-5.1-1.6l-0.1,0.8c0,0,1.2-0.3,2.6,0.1s2.6,1.5,2.6,1.5L22.7,40.3z"/>
<g>
	<path class="st3" d="M18.1,31.8l-1.4-1.6l0.7-0.7c0,0-0.2,0.9,0.2,1.4s1.3,0.3,1.3,0.3L18.1,31.8z"/>
</g>
<g>
	<path class="st3" d="M16.7,30.1l1.4,1.6l-0.7,0.7c0,0,0.2-0.9-0.2-1.4c-0.4-0.4-1.3-0.3-1.3-0.3L16.7,30.1z"/>
</g>
<g>
	<path class="st3" d="M20.7,33.2l2.1,0.4l0.3-1c0,0-0.7,0.7-1.3,0.6c-0.6-0.1-0.9-0.9-0.9-0.9L20.7,33.2z"/>
</g>
<g>
	<path class="st3" d="M22.8,33.6l-2.1-0.4l-0.3,1c0,0,0.7-0.7,1.3-0.6c0.6,0.1,0.9,0.9,0.9,0.9L22.8,33.6z"/>
</g>
<g>
	<circle class="st3" cx="15.5" cy="19.2" r="2"/>
</g>
<g>
	<circle class="st3" cx="9.8" cy="16" r="2"/>
</g>
<path class="st3" d="M11.3,16.9l2.6,1.5l-0.4,0.7c0,0-0.3-0.9-1-1.3c-0.7-0.4-1.6-0.2-1.6-0.2L11.3,16.9z"/>
<path class="st3" d="M14,18.4l-2.6-1.5l0.4-0.7c0,0,0.3,0.9,1,1.3c0.7,0.4,1.6,0.2,1.6,0.2L14,18.4z"/>
<path class="st3" d="M11,14.9l3.6-4l0.5,0.7c0,0-1.2,0.3-2.1,1.4s-1.4,2.6-1.4,2.6L11,14.9z"/>
<path class="st3" d="M14.6,10.9l-3.6,4l-0.5-0.7c0,0,1.2-0.3,2.1-1.4s1.4-2.6,1.4-2.6L14.6,10.9z"/>
<path class="st3" d="M9.5,17.6l-1.6,5.1l0.8,0.1c0,0-0.3-1.2,0.1-2.6s1.5-2.6,1.5-2.6L9.5,17.6z"/>
<path class="st3" d="M7.9,22.7l1.6-5.1l-0.8-0.1c0,0,0.3,1.2-0.1,2.6s-1.5,2.6-1.5,2.6L7.9,22.7z"/>
<g>
	<path class="st3" d="M16.4,18.1l1.6-1.4l0.7,0.7c0,0-0.9-0.2-1.4,0.2s-0.3,1.3-0.3,1.3L16.4,18.1z"/>
</g>
<g>
	<path class="st3" d="M18.1,16.7l-1.6,1.4l-0.7-0.7c0,0,0.9,0.2,1.4-0.2s0.3-1.3,0.3-1.3L18.1,16.7z"/>
</g>
<g>
	<path class="st3" d="M15,20.7l-0.4,2.1l1,0.3c0,0-0.7-0.7-0.6-1.3c0.1-0.6,0.9-0.9,0.9-0.9L15,20.7z"/>
</g>
<g>
	<path class="st3" d="M14.6,22.8l0.4-2.1l-1-0.3c0,0,0.7,0.7,0.6,1.3c-0.1,0.6-0.9,0.9-0.9,0.9L14.6,22.8z"/>
</g>
<g>
	<circle class="st3" cx="32.7" cy="29" r="2"/>
</g>
<g>
	<circle class="st3" cx="38.4" cy="32.3" r="2"/>
</g>
<path class="st3" d="M36.9,31.4l-2.6-1.5l0.4-0.7c0,0,0.3,0.9,1,1.3c0.7,0.4,1.6,0.2,1.6,0.2L36.9,31.4z"/>
<path class="st3" d="M34.3,29.8l2.6,1.5l-0.4,0.7c0,0-0.3-0.9-1-1.3c-0.7-0.4-1.6-0.2-1.6-0.2L34.3,29.8z"/>
<path class="st3" d="M37.2,33.3l-3.6,4l-0.5-0.7c0,0,1.2-0.3,2.1-1.4c1-1.1,1.4-2.6,1.4-2.6L37.2,33.3z"/>
<path class="st3" d="M33.6,37.3l3.6-4l0.5,0.7c0,0-1.2,0.3-2.1,1.4S34.1,38,34.1,38L33.6,37.3z"/>
<path class="st3" d="M38.7,30.7l1.6-5.1l-0.8-0.1c0,0,0.3,1.2-0.1,2.6c-0.4,1.4-1.5,2.6-1.5,2.6L38.7,30.7z"/>
<path class="st3" d="M40.3,25.5l-1.6,5.1l0.8,0.1c0,0-0.3-1.2,0.1-2.6c0.4-1.4,1.5-2.6,1.5-2.6L40.3,25.5z"/>
<g>
	<path class="st3" d="M31.8,30.1l-1.6,1.4l-0.7-0.7c0,0,0.9,0.2,1.4-0.2s0.3-1.3,0.3-1.3L31.8,30.1z"/>
</g>
<g>
	<path class="st3" d="M30.1,31.5l1.6-1.4l0.7,0.7c0,0-0.9-0.2-1.4,0.2c-0.4,0.4-0.3,1.3-0.3,1.3L30.1,31.5z"/>
</g>
<g>
	<path class="st3" d="M33.2,27.6l0.4-2.1l-1-0.3c0,0,0.7,0.7,0.6,1.3s-0.9,0.9-0.9,0.9L33.2,27.6z"/>
</g>
<g>
	<path class="st3" d="M33.6,25.4l-0.4,2.1l1,0.3c0,0-0.7-0.7-0.6-1.3c0.1-0.6,0.9-0.9,0.9-0.9L33.6,25.4z"/>
</g>
<g>
	<circle class="st3" cx="32.7" cy="19.1" r="2"/>
</g>
<g>
	<circle class="st3" cx="38.4" cy="15.8" r="2"/>
</g>
<path class="st3" d="M36.8,16.7l-2.6,1.5l-0.4-0.7c0,0,0.9,0.2,1.6-0.2c0.7-0.4,1-1.3,1-1.3L36.8,16.7z"/>
<path class="st3" d="M34.2,18.2l2.6-1.5l0.4,0.7c0,0-0.9-0.2-1.6,0.2c-0.7,0.4-1,1.3-1,1.3L34.2,18.2z"/>
<path class="st3" d="M38.7,17.4l1.6,5.1l-0.8,0.1c0,0,0.3-1.2-0.2-2.6c-0.5-1.4-1.5-2.5-1.5-2.5L38.7,17.4z"/>
<path class="st3" d="M40.3,22.5l-1.6-5.1l0.8-0.1c0,0-0.3,1.2,0.2,2.6c0.5,1.4,1.5,2.5,1.5,2.5L40.3,22.5z"/>
<path class="st3" d="M37.1,14.8l-3.6-3.9l-0.5,0.7c0,0,1.2,0.3,2.2,1.4s1.5,2.6,1.5,2.6L37.1,14.8z"/>
<path class="st3" d="M33.5,10.8l3.6,3.9l0.5-0.7c0,0-1.2-0.3-2.2-1.4s-1.5-2.6-1.5-2.6L33.5,10.8z"/>
<g>
	<path class="st3" d="M33.2,20.5l0.4,2.1l-1,0.3c0,0,0.7-0.7,0.6-1.3c-0.1-0.6-1-0.9-1-0.9L33.2,20.5z"/>
</g>
<g>
	<path class="st3" d="M33.6,22.7l-0.4-2.1l1-0.3c0,0-0.7,0.7-0.6,1.3s1,0.9,1,0.9L33.6,22.7z"/>
</g>
<g>
	<path class="st3" d="M31.7,18l-1.6-1.4l-0.7,0.7c0,0,0.9-0.2,1.4,0.2c0.5,0.4,0.3,1.3,0.3,1.3L31.7,18z"/>
</g>
<g>
	<path class="st3" d="M30,16.6l1.6,1.4l0.7-0.7c0,0-0.9,0.2-1.4-0.2c-0.5-0.4-0.3-1.3-0.3-1.3L30,16.6z"/>
</g>
<g>
	<circle class="st3" cx="15.5" cy="29.1" r="2"/>
</g>
<g>
	<circle class="st3" cx="9.9" cy="32.4" r="2"/>
</g>
<path class="st3" d="M11.4,31.5L14,30l0.4,0.7c0,0-0.9-0.2-1.6,0.2s-1,1.3-1,1.3L11.4,31.5z"/>
<path class="st3" d="M14,30l-2.6,1.5L11,30.8c0,0,0.9,0.2,1.6-0.2s1-1.3,1-1.3L14,30z"/>
<path class="st3" d="M9.6,30.8l-1.6-5.1l0.8-0.1c0,0-0.3,1.2,0.2,2.6s1.5,2.5,1.5,2.5L9.6,30.8z"/>
<path class="st3" d="M7.9,25.7l1.6,5.1l-0.8,0.1c0,0,0.3-1.2-0.2-2.6c-0.5-1.4-1.5-2.5-1.5-2.5L7.9,25.7z"/>
<path class="st3" d="M11.1,33.4l3.6,3.9l0.5-0.7c0,0-1.2-0.3-2.2-1.4s-1.5-2.6-1.5-2.6L11.1,33.4z"/>
<path class="st3" d="M14.7,37.4l-3.6-3.9l-0.5,0.7c0,0,1.2,0.3,2.2,1.4c1,1.1,1.5,2.6,1.5,2.6L14.7,37.4z"/>
<g>
	<path class="st3" d="M15,27.7l-0.4-2.1l1-0.3c0,0-0.7,0.7-0.6,1.3c0.1,0.6,1,0.9,1,0.9L15,27.7z"/>
</g>
<g>
	<path class="st3" d="M14.7,25.6l0.4,2.1l-1,0.3c0,0,0.7-0.7,0.6-1.3s-1-0.9-1-0.9L14.7,25.6z"/>
</g>
<g>
	<path class="st3" d="M16.5,30.3l1.6,1.4l0.7-0.7c0,0-0.9,0.2-1.4-0.2c-0.5-0.4-0.3-1.3-0.3-1.3L16.5,30.3z"/>
</g>
<g>
	<path class="st3" d="M18.2,31.7l-1.6-1.4L15.8,31c0,0,0.9-0.2,1.4,0.2c0.5,0.4,0.3,1.3,0.3,1.3L18.2,31.7z"/>
</g>
<g>
	<circle class="st3" cx="19.1" cy="15.5" r="2"/>
</g>
<g>
	<circle class="st3" cx="15.8" cy="9.9" r="2"/>
</g>
<path class="st3" d="M16.7,11.4l1.5,2.6l-0.7,0.4c0,0,0.2-0.9-0.2-1.6s-1.3-1-1.3-1L16.7,11.4z"/>
<path class="st3" d="M18.2,14l-1.5-2.6l0.7-0.4c0,0-0.2,0.9,0.2,1.6s1.3,1,1.3,1L18.2,14z"/>
<path class="st3" d="M17.4,9.6l5.1-1.6l0.1,0.8c0,0-1.2-0.3-2.6,0.2c-1.4,0.5-2.5,1.5-2.5,1.5L17.4,9.6z"/>
<path class="st3" d="M22.5,7.9l-5.1,1.6l-0.1-0.8c0,0,1.2,0.3,2.6-0.2c1.4-0.5,2.5-1.5,2.5-1.5L22.5,7.9z"/>
<path class="st3" d="M14.8,11.1l-3.9,3.6l0.7,0.5c0,0,0.3-1.2,1.4-2.2s2.6-1.5,2.6-1.5L14.8,11.1z"/>
<path class="st3" d="M10.8,14.7l3.9-3.6l-0.7-0.5c0,0-0.3,1.2-1.4,2.2s-2.6,1.5-2.6,1.5L10.8,14.7z"/>
<g>
	<path class="st3" d="M20.5,15l2.1-0.4l0.3,1c0,0-0.7-0.7-1.3-0.6c-0.6,0.1-0.9,1-0.9,1L20.5,15z"/>
</g>
<g>
	<path class="st3" d="M22.7,14.7l-2.1,0.4l-0.3-1c0,0,0.7,0.7,1.3,0.6s0.9-1,0.9-1L22.7,14.7z"/>
</g>
<g>
	<path class="st3" d="M18,16.5l-1.4,1.6l0.7,0.7c0,0-0.2-0.9,0.2-1.4c0.4-0.5,1.3-0.3,1.3-0.3L18,16.5z"/>
</g>
<g>
	<path class="st3" d="M16.6,18.2l1.4-1.6l-0.7-0.7c0,0,0.2,0.9-0.2,1.4c-0.4,0.5-1.3,0.3-1.3,0.3L16.6,18.2z"/>
</g>
<g>
	<circle class="st3" cx="29.1" cy="32.7" r="2"/>
</g>
<g>
	<circle class="st3" cx="32.4" cy="38.4" r="2"/>
</g>
<path class="st3" d="M31.5,36.8L30,34.2l0.7-0.4c0,0-0.2,0.9,0.2,1.6c0.4,0.7,1.3,1,1.3,1L31.5,36.8z"/>
<path class="st3" d="M30,34.2l1.5,2.6l-0.7,0.4c0,0,0.2-0.9-0.2-1.6c-0.4-0.7-1.3-1-1.3-1L30,34.2z"/>
<path class="st3" d="M30.8,38.7l-5.1,1.6l-0.1-0.8c0,0,1.2,0.3,2.6-0.2c1.4-0.5,2.5-1.5,2.5-1.5L30.8,38.7z"/>
<path class="st3" d="M25.7,40.3l5.1-1.6l0.1,0.8c0,0-1.2-0.3-2.6,0.2c-1.4,0.5-2.5,1.5-2.5,1.5L25.7,40.3z"/>
<path class="st3" d="M33.4,37.1l3.9-3.6l-0.7-0.5c0,0-0.3,1.2-1.4,2.2s-2.6,1.5-2.6,1.5L33.4,37.1z"/>
<path class="st3" d="M37.4,33.5l-3.9,3.6l0.7,0.5c0,0,0.3-1.2,1.4-2.2c1.1-1,2.6-1.5,2.6-1.5L37.4,33.5z"/>
<g>
	<path class="st3" d="M27.7,33.2l-2.1,0.4l-0.3-1c0,0,0.7,0.7,1.3,0.6c0.6-0.1,0.9-1,0.9-1L27.7,33.2z"/>
</g>
<g>
	<path class="st3" d="M25.6,33.6l2.1-0.4l0.3,1c0,0-0.7-0.7-1.3-0.6s-0.9,1-0.9,1L25.6,33.6z"/>
</g>
<g>
	<path class="st3" d="M30.3,31.7l1.4-1.6L31,29.3c0,0,0.2,0.9-0.2,1.4c-0.4,0.5-1.3,0.3-1.3,0.3L30.3,31.7z"/>
</g>
<g>
	<path class="st3" d="M31.7,30l-1.4,1.6l0.7,0.7c0,0-0.2-0.9,0.2-1.4c0.4-0.5,1.3-0.3,1.3-0.3L31.7,30z"/>
</g>
<g>
	<circle class="st3" cx="24.1" cy="34" r="2"/>
</g>
<g>
	<circle class="st3" cx="24.1" cy="40.6" r="2"/>
</g>
<path class="st3" d="M24.1,38.8v-3l0.8,0c0,0-0.6,0.7-0.6,1.5c0,0.8,0.6,1.5,0.6,1.5H24.1z"/>
<path class="st3" d="M24.1,35.8v3l-0.8,0c0,0,0.6-0.7,0.6-1.5c0-0.8-0.6-1.5-0.6-1.5H24.1z"/>
<path class="st3" d="M22.6,40l-5.2-1.1l0.4-0.8c0,0,0.9,0.8,2.3,1.2c1.4,0.3,3,0,3,0L22.6,40z"/>
<path class="st3" d="M17.3,38.9l5.2,1.1l-0.4,0.8c0,0-0.9-0.8-2.3-1.2c-1.4-0.3-3,0-3,0L17.3,38.9z"/>
<path class="st3" d="M25.6,40l5.2-1.1l-0.4-0.8c0,0-0.9,0.8-2.3,1.2s-3,0-3,0L25.6,40z"/>
<path class="st3" d="M30.9,38.9L25.7,40l0.4,0.8c0,0,0.9-0.8,2.3-1.2c1.4-0.3,3,0,3,0L30.9,38.9z"/>
<g>
	<path class="st3" d="M22.7,33.8l-2-0.7l0.2-1c0,0,0.3,0.9,0.8,1.1c0.6,0.2,1.2-0.4,1.2-0.4L22.7,33.8z"/>
</g>
<g>
	<path class="st3" d="M20.6,33l2,0.7l-0.2,1c0,0-0.3-0.9-0.8-1.1S20.4,34,20.4,34L20.6,33z"/>
</g>
<g>
	<path class="st3" d="M25.6,33.8l2-0.7l-0.2-1c0,0-0.3,0.9-0.8,1.1c-0.6,0.2-1.2-0.4-1.2-0.4L25.6,33.8z"/>
</g>
<g>
	<path class="st3" d="M27.7,33l-2,0.7l0.2,1c0,0,0.3-0.9,0.8-1.1s1.2,0.4,1.2,0.4L27.7,33z"/>
</g>
<g>
	<circle class="st3" cx="14.2" cy="24.1" r="2"/>
</g>
<g>
	<circle class="st3" cx="7.6" cy="24.1" r="2"/>
</g>
<path class="st3" d="M9.4,24.1h3l0,0.8c0,0-0.7-0.6-1.5-0.6c-0.8,0-1.5,0.6-1.5,0.6V24.1z"/>
<path class="st3" d="M12.4,24.1h-3l0-0.8c0,0,0.7,0.6,1.5,0.6c0.8,0,1.5-0.6,1.5-0.6V24.1z"/>
<path class="st3" d="M8.2,22.6l1.1-5.2l0.8,0.4c0,0-0.8,0.9-1.2,2.3c-0.3,1.4,0,3,0,3L8.2,22.6z"/>
<path class="st3" d="M9.3,17.3l-1.1,5.2l-0.8-0.4c0,0,0.8-0.9,1.2-2.3c0.3-1.4,0-3,0-3L9.3,17.3z"/>
<path class="st3" d="M8.2,25.6l1.1,5.2l0.8-0.4c0,0-0.8-0.9-1.2-2.3c-0.3-1.4,0-3,0-3L8.2,25.6z"/>
<path class="st3" d="M9.3,30.9l-1.1-5.2L7.4,26c0,0,0.8,0.9,1.2,2.3c0.3,1.4,0,3,0,3L9.3,30.9z"/>
<g>
	<path class="st3" d="M14.5,22.7l0.7-2l1,0.2c0,0-0.9,0.3-1.1,0.8c-0.2,0.6,0.4,1.2,0.4,1.2L14.5,22.7z"/>
</g>
<g>
	<path class="st3" d="M15.2,20.6l-0.7,2l-1-0.2c0,0,0.9-0.3,1.1-0.8c0.2-0.6-0.4-1.2-0.4-1.2L15.2,20.6z"/>
</g>
<g>
	<path class="st3" d="M14.5,25.6l0.7,2l1-0.2c0,0-0.9-0.3-1.1-0.8c-0.2-0.6,0.4-1.2,0.4-1.2L14.5,25.6z"/>
</g>
<g>
	<path class="st3" d="M15.2,27.7l-0.7-2l-1,0.2c0,0,0.9,0.3,1.1,0.8c0.2,0.6-0.4,1.2-0.4,1.2L15.2,27.7z"/>
</g>
<g>
	<circle class="st3" cx="34" cy="24.1" r="2"/>
</g>
<g>
	<circle class="st3" cx="40.6" cy="24.1" r="2"/>
</g>
<path class="st3" d="M38.8,24.1h-3l0-0.8c0,0,0.7,0.6,1.5,0.6c0.8,0,1.5-0.6,1.5-0.6V24.1z"/>
<path class="st3" d="M35.8,24.1h3l0,0.8c0,0-0.7-0.6-1.5-0.6c-0.8,0-1.5,0.6-1.5,0.6V24.1z"/>
<path class="st3" d="M40,25.6l-1.1,5.2l-0.8-0.4c0,0,0.8-0.9,1.2-2.3s0-3,0-3L40,25.6z"/>
<path class="st3" d="M38.9,30.9l1.1-5.2l0.8,0.4c0,0-0.8,0.9-1.2,2.3c-0.3,1.4,0,3,0,3L38.9,30.9z"/>
<path class="st3" d="M40,22.6l-1.1-5.2l-0.8,0.4c0,0,0.8,0.9,1.2,2.3c0.3,1.4,0,3,0,3L40,22.6z"/>
<path class="st3" d="M38.9,17.3l1.1,5.2l0.8-0.4c0,0-0.8-0.9-1.2-2.3c-0.3-1.4,0-3,0-3L38.9,17.3z"/>
<g>
	<path class="st3" d="M33.8,25.6l-0.7,2l-1-0.2c0,0,0.9-0.3,1.1-0.8s-0.4-1.2-0.4-1.2L33.8,25.6z"/>
</g>
<g>
	<path class="st3" d="M33,27.6l0.7-2l1,0.2c0,0-0.9,0.3-1.1,0.8c-0.2,0.6,0.4,1.2,0.4,1.2L33,27.6z"/>
</g>
<g>
	<path class="st3" d="M33.8,22.6l-0.7-2l-1,0.2c0,0,0.9,0.3,1.1,0.8c0.2,0.6-0.4,1.2-0.4,1.2L33.8,22.6z"/>
</g>
<g>
	<path class="st3" d="M33,20.6l0.7,2l1-0.2c0,0-0.9-0.3-1.1-0.8C33.4,21,34,20.3,34,20.3L33,20.6z"/>
</g>
</svg>
